<?xml version="1.0" encoding="utf-8" standalone="no"?>
<!DOCTYPE svg PUBLIC "-//W3C//DTD SVG 1.1//EN"
  "http://www.w3.org/Graphics/SVG/1.1/DTD/svg11.dtd">
<svg height="158.4pt" version="1.1" viewBox="0 0 216 158.4" width="216pt" xmlns="http://www.w3.org/2000/svg" xmlns:xlink="http://www.w3.org/1999/xlink">
 <metadata>
  <rdf:RDF xmlns:cc="http://creativecommons.org/ns#" xmlns:dc="http://purl.org/dc/elements/1.1/" xmlns:rdf="http://www.w3.org/1999/02/22-rdf-syntax-ns#">
   <cc:Work>
    <dc:type rdf:resource="http://purl.org/dc/dcmitype/StillImage"/>
    <dc:date>2022-07-07T02:50:33.208384</dc:date>
    <dc:format>image/svg+xml</dc:format>
    <dc:creator>
     <cc:Agent>
      <dc:title>Matplotlib v3.4.3, https://matplotlib.org/</dc:title>
     </cc:Agent>
    </dc:creator>
   </cc:Work>
  </rdf:RDF>
 </metadata>
 <defs>
  <style type="text/css">*{stroke-linecap:butt;stroke-linejoin:round;}</style>
 </defs>
 <g id="figure_1">
  <g id="patch_1">
   <path d="M 0 158.4 
L 216 158.4 
L 216 0 
L 0 0 
z
" style="fill:none;"/>
  </g>
  <g id="axes_1">
   <g id="patch_2">
    <path d="M 27 138.6 
L 194.4 138.6 
L 194.4 19.008 
L 27 19.008 
z
" style="fill:none;"/>
   </g>
   <g id="PolyCollection_1">
    <path clip-path="url(#p0e639271a3)" d="M 27.837 132.905143 
L 27.837 125.5124 
L 29.511 125.376725 
L 31.185 125.257703 
L 32.859 125.156197 
L 34.533 125.072947 
L 36.207 125.00857 
L 37.881 124.963542 
L 39.555 124.9382 
L 41.229 124.932732 
L 42.903 124.947181 
L 44.577 124.981438 
L 46.251 125.035247 
L 47.925 125.108206 
L 49.599 125.199777 
L 51.273 125.309286 
L 52.947 125.435935 
L 54.621 125.578812 
L 56.295 125.736898 
L 57.969 125.909085 
L 59.643 126.094184 
L 61.317 126.290943 
L 62.991 126.498055 
L 64.665 126.714178 
L 66.339 126.937948 
L 68.013 127.167991 
L 69.687 127.402938 
L 71.361 127.641439 
L 73.035 127.882175 
L 74.709 128.123869 
L 76.383 128.365298 
L 78.057 128.605298 
L 79.731 128.842779 
L 81.405 129.076728 
L 83.079 129.306212 
L 84.753 129.530387 
L 86.427 129.7485 
L 88.101 129.959889 
L 89.775 130.163984 
L 91.449 130.360305 
L 93.123 130.548465 
L 94.797 130.728162 
L 96.471 130.899178 
L 98.145 131.061376 
L 99.819 131.214689 
L 101.493 131.359124 
L 103.167 131.494749 
L 104.841 131.621689 
L 106.515 131.74012 
L 108.189 131.850263 
L 109.863 131.952378 
L 111.537 132.046757 
L 113.211 132.133717 
L 114.885 132.213599 
L 116.559 132.286757 
L 118.233 132.353557 
L 119.907 132.414369 
L 121.581 132.469566 
L 123.255 132.519521 
L 124.929 132.5646 
L 126.603 132.605159 
L 128.277 132.641548 
L 129.951 132.674101 
L 131.625 132.703139 
L 133.299 132.728969 
L 134.973 132.751879 
L 136.647 132.772144 
L 138.321 132.790017 
L 139.995 132.805736 
L 141.669 132.819524 
L 143.343 132.831584 
L 145.017 132.842103 
L 146.691 132.851252 
L 148.365 132.859189 
L 150.039 132.866054 
L 151.713 132.871977 
L 153.387 132.877073 
L 155.061 132.881445 
L 156.735 132.885186 
L 158.409 132.888378 
L 160.083 132.891095 
L 161.757 132.893401 
L 163.431 132.895353 
L 165.105 132.897001 
L 166.779 132.898388 
L 168.453 132.899553 
L 170.127 132.900529 
L 171.801 132.901344 
L 173.475 132.902023 
L 175.149 132.902586 
L 176.823 132.903054 
L 178.497 132.90344 
L 180.171 132.903758 
L 181.845 132.904019 
L 183.519 132.904234 
L 185.193 132.904409 
L 186.867 132.904552 
L 188.541 132.904669 
L 190.215 132.904763 
L 191.889 132.904839 
L 193.563 132.904901 
L 193.563 132.905143 
L 193.563 132.905143 
L 191.889 132.905143 
L 190.215 132.905143 
L 188.541 132.905143 
L 186.867 132.905143 
L 185.193 132.905143 
L 183.519 132.905143 
L 181.845 132.905143 
L 180.171 132.905143 
L 178.497 132.905143 
L 176.823 132.905143 
L 175.149 132.905143 
L 173.475 132.905143 
L 171.801 132.905143 
L 170.127 132.905143 
L 168.453 132.905143 
L 166.779 132.905143 
L 165.105 132.905143 
L 163.431 132.905143 
L 161.757 132.905143 
L 160.083 132.905143 
L 158.409 132.905143 
L 156.735 132.905143 
L 155.061 132.905143 
L 153.387 132.905143 
L 151.713 132.905143 
L 150.039 132.905143 
L 148.365 132.905143 
L 146.691 132.905143 
L 145.017 132.905143 
L 143.343 132.905143 
L 141.669 132.905143 
L 139.995 132.905143 
L 138.321 132.905143 
L 136.647 132.905143 
L 134.973 132.905143 
L 133.299 132.905143 
L 131.625 132.905143 
L 129.951 132.905143 
L 128.277 132.905143 
L 126.603 132.905143 
L 124.929 132.905143 
L 123.255 132.905143 
L 121.581 132.905143 
L 119.907 132.905143 
L 118.233 132.905143 
L 116.559 132.905143 
L 114.885 132.905143 
L 113.211 132.905143 
L 111.537 132.905143 
L 109.863 132.905143 
L 108.189 132.905143 
L 106.515 132.905143 
L 104.841 132.905143 
L 103.167 132.905143 
L 101.493 132.905143 
L 99.819 132.905143 
L 98.145 132.905143 
L 96.471 132.905143 
L 94.797 132.905143 
L 93.123 132.905143 
L 91.449 132.905143 
L 89.775 132.905143 
L 88.101 132.905143 
L 86.427 132.905143 
L 84.753 132.905143 
L 83.079 132.905143 
L 81.405 132.905143 
L 79.731 132.905143 
L 78.057 132.905143 
L 76.383 132.905143 
L 74.709 132.905143 
L 73.035 132.905143 
L 71.361 132.905143 
L 69.687 132.905143 
L 68.013 132.905143 
L 66.339 132.905143 
L 64.665 132.905143 
L 62.991 132.905143 
L 61.317 132.905143 
L 59.643 132.905143 
L 57.969 132.905143 
L 56.295 132.905143 
L 54.621 132.905143 
L 52.947 132.905143 
L 51.273 132.905143 
L 49.599 132.905143 
L 47.925 132.905143 
L 46.251 132.905143 
L 44.577 132.905143 
L 42.903 132.905143 
L 41.229 132.905143 
L 39.555 132.905143 
L 37.881 132.905143 
L 36.207 132.905143 
L 34.533 132.905143 
L 32.859 132.905143 
L 31.185 132.905143 
L 29.511 132.905143 
L 27.837 132.905143 
z
" style="fill:#c3d5dd;"/>
   </g>
   <g id="PolyCollection_2">
    <path clip-path="url(#p0e639271a3)" d="M 27.837 121.515429 
L 27.837 116.009822 
L 29.511 115.774936 
L 31.185 115.544974 
L 32.859 115.321304 
L 34.533 115.1053 
L 36.207 114.898327 
L 37.881 114.701727 
L 39.555 114.516804 
L 41.229 114.344811 
L 42.903 114.186936 
L 44.577 114.044286 
L 46.251 113.917877 
L 47.925 113.80862 
L 49.599 113.717312 
L 51.273 113.644623 
L 52.947 113.591093 
L 54.621 113.557119 
L 56.295 113.542956 
L 57.969 113.548709 
L 59.643 113.574336 
L 61.317 113.619644 
L 62.991 113.684296 
L 64.665 113.767812 
L 66.339 113.869576 
L 68.013 113.988843 
L 69.687 114.12475 
L 71.361 114.276323 
L 73.035 114.442492 
L 74.709 114.622101 
L 76.383 114.813924 
L 78.057 115.016677 
L 79.731 115.229031 
L 81.405 115.449629 
L 83.079 115.677101 
L 84.753 115.910073 
L 86.427 116.147186 
L 88.101 116.387105 
L 89.775 116.628535 
L 91.449 116.870226 
L 93.123 117.110989 
L 94.797 117.3497 
L 96.471 117.585311 
L 98.145 117.816854 
L 99.819 118.043447 
L 101.493 118.264295 
L 103.167 118.478697 
L 104.841 118.686042 
L 106.515 118.885812 
L 108.189 119.07758 
L 109.863 119.261005 
L 111.537 119.435835 
L 113.211 119.601897 
L 114.885 119.759095 
L 116.559 119.907404 
L 118.233 120.046865 
L 119.907 120.17758 
L 121.581 120.299703 
L 123.255 120.413437 
L 124.929 120.519025 
L 126.603 120.616745 
L 128.277 120.706906 
L 129.951 120.789837 
L 131.625 120.865888 
L 133.299 120.93542 
L 134.973 120.998802 
L 136.647 121.056406 
L 138.321 121.108606 
L 139.995 121.15577 
L 141.669 121.19826 
L 143.343 121.236429 
L 145.017 121.270617 
L 146.691 121.301152 
L 148.365 121.328347 
L 150.039 121.352498 
L 151.713 121.373886 
L 153.387 121.392773 
L 155.061 121.409405 
L 156.735 121.424011 
L 158.409 121.436802 
L 160.083 121.447971 
L 161.757 121.457699 
L 163.431 121.466147 
L 165.105 121.473464 
L 166.779 121.479784 
L 168.453 121.485227 
L 170.127 121.489903 
L 171.801 121.49391 
L 173.475 121.497332 
L 175.149 121.500248 
L 176.823 121.502726 
L 178.497 121.504826 
L 180.171 121.506601 
L 181.845 121.508098 
L 183.519 121.509355 
L 185.193 121.51041 
L 186.867 121.511292 
L 188.541 121.512027 
L 190.215 121.512639 
L 191.889 121.513146 
L 193.563 121.513566 
L 193.563 121.515429 
L 193.563 121.515429 
L 191.889 121.515429 
L 190.215 121.515429 
L 188.541 121.515429 
L 186.867 121.515429 
L 185.193 121.515429 
L 183.519 121.515429 
L 181.845 121.515429 
L 180.171 121.515429 
L 178.497 121.515429 
L 176.823 121.515429 
L 175.149 121.515429 
L 173.475 121.515429 
L 171.801 121.515429 
L 170.127 121.515429 
L 168.453 121.515429 
L 166.779 121.515429 
L 165.105 121.515429 
L 163.431 121.515429 
L 161.757 121.515429 
L 160.083 121.515429 
L 158.409 121.515429 
L 156.735 121.515429 
L 155.061 121.515429 
L 153.387 121.515429 
L 151.713 121.515429 
L 150.039 121.515429 
L 148.365 121.515429 
L 146.691 121.515429 
L 145.017 121.515429 
L 143.343 121.515429 
L 141.669 121.515429 
L 139.995 121.515429 
L 138.321 121.515429 
L 136.647 121.515429 
L 134.973 121.515429 
L 133.299 121.515429 
L 131.625 121.515429 
L 129.951 121.515429 
L 128.277 121.515429 
L 126.603 121.515429 
L 124.929 121.515429 
L 123.255 121.515429 
L 121.581 121.515429 
L 119.907 121.515429 
L 118.233 121.515429 
L 116.559 121.515429 
L 114.885 121.515429 
L 113.211 121.515429 
L 111.537 121.515429 
L 109.863 121.515429 
L 108.189 121.515429 
L 106.515 121.515429 
L 104.841 121.515429 
L 103.167 121.515429 
L 101.493 121.515429 
L 99.819 121.515429 
L 98.145 121.515429 
L 96.471 121.515429 
L 94.797 121.515429 
L 93.123 121.515429 
L 91.449 121.515429 
L 89.775 121.515429 
L 88.101 121.515429 
L 86.427 121.515429 
L 84.753 121.515429 
L 83.079 121.515429 
L 81.405 121.515429 
L 79.731 121.515429 
L 78.057 121.515429 
L 76.383 121.515429 
L 74.709 121.515429 
L 73.035 121.515429 
L 71.361 121.515429 
L 69.687 121.515429 
L 68.013 121.515429 
L 66.339 121.515429 
L 64.665 121.515429 
L 62.991 121.515429 
L 61.317 121.515429 
L 59.643 121.515429 
L 57.969 121.515429 
L 56.295 121.515429 
L 54.621 121.515429 
L 52.947 121.515429 
L 51.273 121.515429 
L 49.599 121.515429 
L 47.925 121.515429 
L 46.251 121.515429 
L 44.577 121.515429 
L 42.903 121.515429 
L 41.229 121.515429 
L 39.555 121.515429 
L 37.881 121.515429 
L 36.207 121.515429 
L 34.533 121.515429 
L 32.859 121.515429 
L 31.185 121.515429 
L 29.511 121.515429 
L 27.837 121.515429 
z
" style="fill:#c3d5dd;"/>
   </g>
   <g id="PolyCollection_3">
    <path clip-path="url(#p0e639271a3)" d="M 27.837 110.125714 
L 27.837 106.599317 
L 29.511 106.371449 
L 31.185 106.138835 
L 32.859 105.902381 
L 34.533 105.663073 
L 36.207 105.42198 
L 37.881 105.18024 
L 39.555 104.93906 
L 41.229 104.6997 
L 42.903 104.463467 
L 44.577 104.231702 
L 46.251 104.00577 
L 47.925 103.787044 
L 49.599 103.576894 
L 51.273 103.376669 
L 52.947 103.18769 
L 54.621 103.011228 
L 56.295 102.848493 
L 57.969 102.700622 
L 59.643 102.568663 
L 61.317 102.453562 
L 62.991 102.356157 
L 64.665 102.277161 
L 66.339 102.217158 
L 68.013 102.176594 
L 69.687 102.155772 
L 71.361 102.154847 
L 73.035 102.173827 
L 74.709 102.212569 
L 76.383 102.270784 
L 78.057 102.34804 
L 79.731 102.443764 
L 81.405 102.557255 
L 83.079 102.687688 
L 84.753 102.834125 
L 86.427 102.995527 
L 88.101 103.170765 
L 89.775 103.358635 
L 91.449 103.55787 
L 93.123 103.767156 
L 94.797 103.985144 
L 96.471 104.210465 
L 98.145 104.441745 
L 99.819 104.677621 
L 101.493 104.916746 
L 103.167 105.157811 
L 104.841 105.39955 
L 106.515 105.640753 
L 108.189 105.880272 
L 109.863 106.117035 
L 111.537 106.350044 
L 113.211 106.578389 
L 114.885 106.801245 
L 116.559 107.01788 
L 118.233 107.227653 
L 119.907 107.430014 
L 121.581 107.624506 
L 123.255 107.81076 
L 124.929 107.988494 
L 126.603 108.157509 
L 128.277 108.317684 
L 129.951 108.46897 
L 131.625 108.611389 
L 133.299 108.74502 
L 134.973 108.870003 
L 136.647 108.986523 
L 138.321 109.094812 
L 139.995 109.195136 
L 141.669 109.287795 
L 143.343 109.373111 
L 145.017 109.451429 
L 146.691 109.523105 
L 148.365 109.588506 
L 150.039 109.648005 
L 151.713 109.701975 
L 153.387 109.750786 
L 155.061 109.794803 
L 156.735 109.834382 
L 158.409 109.869867 
L 160.083 109.901591 
L 161.757 109.929871 
L 163.431 109.95501 
L 165.105 109.977294 
L 166.779 109.996991 
L 168.453 110.014353 
L 170.127 110.029614 
L 171.801 110.04299 
L 173.475 110.054683 
L 175.149 110.064875 
L 176.823 110.073734 
L 178.497 110.081415 
L 180.171 110.088055 
L 181.845 110.093779 
L 183.519 110.098701 
L 185.193 110.102922 
L 186.867 110.106531 
L 188.541 110.109609 
L 190.215 110.112226 
L 191.889 110.114447 
L 193.563 110.116325 
L 193.563 110.125714 
L 193.563 110.125714 
L 191.889 110.125714 
L 190.215 110.125714 
L 188.541 110.125714 
L 186.867 110.125714 
L 185.193 110.125714 
L 183.519 110.125714 
L 181.845 110.125714 
L 180.171 110.125714 
L 178.497 110.125714 
L 176.823 110.125714 
L 175.149 110.125714 
L 173.475 110.125714 
L 171.801 110.125714 
L 170.127 110.125714 
L 168.453 110.125714 
L 166.779 110.125714 
L 165.105 110.125714 
L 163.431 110.125714 
L 161.757 110.125714 
L 160.083 110.125714 
L 158.409 110.125714 
L 156.735 110.125714 
L 155.061 110.125714 
L 153.387 110.125714 
L 151.713 110.125714 
L 150.039 110.125714 
L 148.365 110.125714 
L 146.691 110.125714 
L 145.017 110.125714 
L 143.343 110.125714 
L 141.669 110.125714 
L 139.995 110.125714 
L 138.321 110.125714 
L 136.647 110.125714 
L 134.973 110.125714 
L 133.299 110.125714 
L 131.625 110.125714 
L 129.951 110.125714 
L 128.277 110.125714 
L 126.603 110.125714 
L 124.929 110.125714 
L 123.255 110.125714 
L 121.581 110.125714 
L 119.907 110.125714 
L 118.233 110.125714 
L 116.559 110.125714 
L 114.885 110.125714 
L 113.211 110.125714 
L 111.537 110.125714 
L 109.863 110.125714 
L 108.189 110.125714 
L 106.515 110.125714 
L 104.841 110.125714 
L 103.167 110.125714 
L 101.493 110.125714 
L 99.819 110.125714 
L 98.145 110.125714 
L 96.471 110.125714 
L 94.797 110.125714 
L 93.123 110.125714 
L 91.449 110.125714 
L 89.775 110.125714 
L 88.101 110.125714 
L 86.427 110.125714 
L 84.753 110.125714 
L 83.079 110.125714 
L 81.405 110.125714 
L 79.731 110.125714 
L 78.057 110.125714 
L 76.383 110.125714 
L 74.709 110.125714 
L 73.035 110.125714 
L 71.361 110.125714 
L 69.687 110.125714 
L 68.013 110.125714 
L 66.339 110.125714 
L 64.665 110.125714 
L 62.991 110.125714 
L 61.317 110.125714 
L 59.643 110.125714 
L 57.969 110.125714 
L 56.295 110.125714 
L 54.621 110.125714 
L 52.947 110.125714 
L 51.273 110.125714 
L 49.599 110.125714 
L 47.925 110.125714 
L 46.251 110.125714 
L 44.577 110.125714 
L 42.903 110.125714 
L 41.229 110.125714 
L 39.555 110.125714 
L 37.881 110.125714 
L 36.207 110.125714 
L 34.533 110.125714 
L 32.859 110.125714 
L 31.185 110.125714 
L 29.511 110.125714 
L 27.837 110.125714 
z
" style="fill:#c3d5dd;"/>
   </g>
   <g id="PolyCollection_4">
    <path clip-path="url(#p0e639271a3)" d="M 27.837 98.736 
L 27.837 96.810905 
L 29.511 96.644213 
L 31.185 96.468763 
L 32.859 96.284732 
L 34.533 96.092381 
L 36.207 95.892055 
L 37.881 95.684188 
L 39.555 95.469304 
L 41.229 95.248021 
L 42.903 95.021048 
L 44.577 94.789184 
L 46.251 94.553319 
L 47.925 94.314425 
L 49.599 94.073558 
L 51.273 93.831845 
L 52.947 93.590482 
L 54.621 93.350719 
L 56.295 93.113857 
L 57.969 92.881232 
L 59.643 92.654206 
L 61.317 92.434151 
L 62.991 92.222438 
L 64.665 92.020422 
L 66.339 91.829429 
L 68.013 91.650739 
L 69.687 91.485575 
L 71.361 91.335086 
L 73.035 91.200337 
L 74.709 91.082292 
L 76.383 90.981808 
L 78.057 90.89962 
L 79.731 90.836334 
L 81.405 90.792422 
L 83.079 90.768209 
L 84.753 90.763879 
L 86.427 90.779462 
L 88.101 90.814842 
L 89.775 90.869755 
L 91.449 90.943792 
L 93.123 91.036406 
L 94.797 91.146915 
L 96.471 91.274515 
L 98.145 91.418287 
L 99.819 91.577208 
L 101.493 91.750165 
L 103.167 91.935963 
L 104.841 92.133348 
L 106.515 92.341011 
L 108.189 92.557607 
L 109.863 92.781772 
L 111.537 93.012131 
L 113.211 93.247317 
L 114.885 93.485981 
L 116.559 93.726805 
L 118.233 93.968517 
L 119.907 94.209894 
L 121.581 94.449779 
L 123.255 94.687086 
L 124.929 94.920804 
L 126.603 95.150007 
L 128.277 95.373856 
L 129.951 95.591602 
L 131.625 95.80259 
L 133.299 96.006252 
L 134.973 96.202118 
L 136.647 96.389803 
L 138.321 96.56901 
L 139.995 96.739526 
L 141.669 96.901217 
L 143.343 97.054024 
L 145.017 97.197954 
L 146.691 97.333079 
L 148.365 97.459528 
L 150.039 97.57748 
L 151.713 97.687158 
L 153.387 97.788824 
L 155.061 97.882771 
L 156.735 97.969318 
L 158.409 98.048807 
L 160.083 98.121592 
L 161.757 98.18804 
L 163.431 98.248522 
L 165.105 98.303411 
L 166.779 98.353078 
L 168.453 98.397889 
L 170.127 98.438201 
L 171.801 98.474362 
L 173.475 98.506706 
L 175.149 98.535553 
L 176.823 98.561209 
L 178.497 98.583961 
L 180.171 98.604082 
L 181.845 98.621826 
L 183.519 98.63743 
L 185.193 98.651114 
L 186.867 98.663081 
L 188.541 98.673517 
L 190.215 98.682593 
L 191.889 98.690465 
L 193.563 98.697273 
L 193.563 98.736 
L 193.563 98.736 
L 191.889 98.736 
L 190.215 98.736 
L 188.541 98.736 
L 186.867 98.736 
L 185.193 98.736 
L 183.519 98.736 
L 181.845 98.736 
L 180.171 98.736 
L 178.497 98.736 
L 176.823 98.736 
L 175.149 98.736 
L 173.475 98.736 
L 171.801 98.736 
L 170.127 98.736 
L 168.453 98.736 
L 166.779 98.736 
L 165.105 98.736 
L 163.431 98.736 
L 161.757 98.736 
L 160.083 98.736 
L 158.409 98.736 
L 156.735 98.736 
L 155.061 98.736 
L 153.387 98.736 
L 151.713 98.736 
L 150.039 98.736 
L 148.365 98.736 
L 146.691 98.736 
L 145.017 98.736 
L 143.343 98.736 
L 141.669 98.736 
L 139.995 98.736 
L 138.321 98.736 
L 136.647 98.736 
L 134.973 98.736 
L 133.299 98.736 
L 131.625 98.736 
L 129.951 98.736 
L 128.277 98.736 
L 126.603 98.736 
L 124.929 98.736 
L 123.255 98.736 
L 121.581 98.736 
L 119.907 98.736 
L 118.233 98.736 
L 116.559 98.736 
L 114.885 98.736 
L 113.211 98.736 
L 111.537 98.736 
L 109.863 98.736 
L 108.189 98.736 
L 106.515 98.736 
L 104.841 98.736 
L 103.167 98.736 
L 101.493 98.736 
L 99.819 98.736 
L 98.145 98.736 
L 96.471 98.736 
L 94.797 98.736 
L 93.123 98.736 
L 91.449 98.736 
L 89.775 98.736 
L 88.101 98.736 
L 86.427 98.736 
L 84.753 98.736 
L 83.079 98.736 
L 81.405 98.736 
L 79.731 98.736 
L 78.057 98.736 
L 76.383 98.736 
L 74.709 98.736 
L 73.035 98.736 
L 71.361 98.736 
L 69.687 98.736 
L 68.013 98.736 
L 66.339 98.736 
L 64.665 98.736 
L 62.991 98.736 
L 61.317 98.736 
L 59.643 98.736 
L 57.969 98.736 
L 56.295 98.736 
L 54.621 98.736 
L 52.947 98.736 
L 51.273 98.736 
L 49.599 98.736 
L 47.925 98.736 
L 46.251 98.736 
L 44.577 98.736 
L 42.903 98.736 
L 41.229 98.736 
L 39.555 98.736 
L 37.881 98.736 
L 36.207 98.736 
L 34.533 98.736 
L 32.859 98.736 
L 31.185 98.736 
L 29.511 98.736 
L 27.837 98.736 
z
" style="fill:#c3d5dd;"/>
   </g>
   <g id="PolyCollection_5">
    <path clip-path="url(#p0e639271a3)" d="M 27.837 87.346286 
L 27.837 86.864971 
L 29.511 86.805109 
L 31.185 86.73932 
L 32.859 86.667234 
L 34.533 86.588483 
L 36.207 86.502711 
L 37.881 86.409576 
L 39.555 86.308755 
L 41.229 86.199952 
L 42.903 86.082901 
L 44.577 85.957375 
L 46.251 85.823189 
L 47.925 85.68021 
L 49.599 85.52836 
L 51.273 85.367622 
L 52.947 85.19805 
L 54.621 85.019768 
L 56.295 84.832983 
L 57.969 84.63798 
L 59.643 84.435134 
L 61.317 84.224909 
L 62.991 84.00786 
L 64.665 83.784632 
L 66.339 83.555966 
L 68.013 83.322691 
L 69.687 83.085723 
L 71.361 82.846065 
L 73.035 82.604793 
L 74.709 82.36306 
L 76.383 82.12208 
L 78.057 81.883121 
L 79.731 81.647497 
L 81.405 81.416554 
L 83.079 81.191657 
L 84.753 80.974181 
L 86.427 80.765493 
L 88.101 80.566939 
L 89.775 80.379834 
L 91.449 80.205438 
L 93.123 80.044953 
L 94.797 79.899501 
L 96.471 79.770116 
L 98.145 79.657729 
L 99.819 79.563156 
L 101.493 79.487092 
L 103.167 79.430101 
L 104.841 79.392605 
L 106.515 79.374885 
L 108.189 79.377074 
L 109.863 79.399154 
L 111.537 79.440962 
L 113.211 79.502184 
L 114.885 79.582366 
L 116.559 79.680916 
L 118.233 79.797112 
L 119.907 79.93011 
L 121.581 80.078956 
L 123.255 80.242596 
L 124.929 80.419889 
L 126.603 80.60962 
L 128.277 80.810513 
L 129.951 81.021248 
L 131.625 81.240472 
L 133.299 81.466815 
L 134.973 81.698903 
L 136.647 81.935374 
L 138.321 82.174888 
L 139.995 82.41614 
L 141.669 82.657874 
L 143.343 82.898887 
L 145.017 83.138045 
L 146.691 83.374284 
L 148.365 83.606623 
L 150.039 83.834162 
L 151.713 84.056092 
L 153.387 84.271695 
L 155.061 84.480343 
L 156.735 84.681503 
L 158.409 84.874729 
L 160.083 85.059669 
L 161.757 85.236052 
L 163.431 85.403692 
L 165.105 85.562479 
L 166.779 85.712377 
L 168.453 85.853416 
L 170.127 85.985686 
L 171.801 86.109332 
L 173.475 86.224551 
L 175.149 86.331576 
L 176.823 86.430683 
L 178.497 86.522172 
L 180.171 86.606372 
L 181.845 86.683628 
L 183.519 86.754299 
L 185.193 86.818754 
L 186.867 86.877364 
L 188.541 86.930504 
L 190.215 86.978542 
L 191.889 87.021842 
L 193.563 87.060759 
L 193.563 87.346286 
L 193.563 87.346286 
L 191.889 87.346286 
L 190.215 87.346286 
L 188.541 87.346286 
L 186.867 87.346286 
L 185.193 87.346286 
L 183.519 87.346286 
L 181.845 87.346286 
L 180.171 87.346286 
L 178.497 87.346286 
L 176.823 87.346286 
L 175.149 87.346286 
L 173.475 87.346286 
L 171.801 87.346286 
L 170.127 87.346286 
L 168.453 87.346286 
L 166.779 87.346286 
L 165.105 87.346286 
L 163.431 87.346286 
L 161.757 87.346286 
L 160.083 87.346286 
L 158.409 87.346286 
L 156.735 87.346286 
L 155.061 87.346286 
L 153.387 87.346286 
L 151.713 87.346286 
L 150.039 87.346286 
L 148.365 87.346286 
L 146.691 87.346286 
L 145.017 87.346286 
L 143.343 87.346286 
L 141.669 87.346286 
L 139.995 87.346286 
L 138.321 87.346286 
L 136.647 87.346286 
L 134.973 87.346286 
L 133.299 87.346286 
L 131.625 87.346286 
L 129.951 87.346286 
L 128.277 87.346286 
L 126.603 87.346286 
L 124.929 87.346286 
L 123.255 87.346286 
L 121.581 87.346286 
L 119.907 87.346286 
L 118.233 87.346286 
L 116.559 87.346286 
L 114.885 87.346286 
L 113.211 87.346286 
L 111.537 87.346286 
L 109.863 87.346286 
L 108.189 87.346286 
L 106.515 87.346286 
L 104.841 87.346286 
L 103.167 87.346286 
L 101.493 87.346286 
L 99.819 87.346286 
L 98.145 87.346286 
L 96.471 87.346286 
L 94.797 87.346286 
L 93.123 87.346286 
L 91.449 87.346286 
L 89.775 87.346286 
L 88.101 87.346286 
L 86.427 87.346286 
L 84.753 87.346286 
L 83.079 87.346286 
L 81.405 87.346286 
L 79.731 87.346286 
L 78.057 87.346286 
L 76.383 87.346286 
L 74.709 87.346286 
L 73.035 87.346286 
L 71.361 87.346286 
L 69.687 87.346286 
L 68.013 87.346286 
L 66.339 87.346286 
L 64.665 87.346286 
L 62.991 87.346286 
L 61.317 87.346286 
L 59.643 87.346286 
L 57.969 87.346286 
L 56.295 87.346286 
L 54.621 87.346286 
L 52.947 87.346286 
L 51.273 87.346286 
L 49.599 87.346286 
L 47.925 87.346286 
L 46.251 87.346286 
L 44.577 87.346286 
L 42.903 87.346286 
L 41.229 87.346286 
L 39.555 87.346286 
L 37.881 87.346286 
L 36.207 87.346286 
L 34.533 87.346286 
L 32.859 87.346286 
L 31.185 87.346286 
L 29.511 87.346286 
L 27.837 87.346286 
z
" style="fill:#c3d5dd;"/>
   </g>
   <g id="PolyCollection_6">
    <path clip-path="url(#p0e639271a3)" d="M 27.837 75.956571 
L 27.837 75.770961 
L 29.511 75.743949 
L 31.185 75.713615 
L 32.859 75.679646 
L 34.533 75.641716 
L 36.207 75.599484 
L 37.881 75.552599 
L 39.555 75.500699 
L 41.229 75.443416 
L 42.903 75.380377 
L 44.577 75.31121 
L 46.251 75.235545 
L 47.925 75.153019 
L 49.599 75.063284 
L 51.273 74.966008 
L 52.947 74.860881 
L 54.621 74.747623 
L 56.295 74.625989 
L 57.969 74.495774 
L 59.643 74.35682 
L 61.317 74.209022 
L 62.991 74.052337 
L 64.665 73.886784 
L 66.339 73.712455 
L 68.013 73.529518 
L 69.687 73.338223 
L 71.361 73.138903 
L 73.035 72.931981 
L 74.709 72.71797 
L 76.383 72.497475 
L 78.057 72.271192 
L 79.731 72.039911 
L 81.405 71.804509 
L 83.079 71.565949 
L 84.753 71.325274 
L 86.427 71.083605 
L 88.101 70.842127 
L 89.775 70.602085 
L 91.449 70.364775 
L 93.123 70.131528 
L 94.797 69.903702 
L 96.471 69.68267 
L 98.145 69.469805 
L 99.819 69.266463 
L 101.493 69.073974 
L 103.167 68.893628 
L 104.841 68.726652 
L 106.515 68.574209 
L 108.189 68.437372 
L 109.863 68.317122 
L 111.537 68.214328 
L 113.211 68.129743 
L 114.885 68.06399 
L 116.559 68.017557 
L 118.233 67.99079 
L 119.907 67.983889 
L 121.581 67.996907 
L 123.255 68.029745 
L 124.929 68.082158 
L 126.603 68.153756 
L 128.277 68.244009 
L 129.951 68.352252 
L 131.625 68.477697 
L 133.299 68.619438 
L 134.973 68.776466 
L 136.647 68.947677 
L 138.321 69.131888 
L 139.995 69.327851 
L 141.669 69.534262 
L 143.343 69.749783 
L 145.017 69.973048 
L 146.691 70.202685 
L 148.365 70.437325 
L 150.039 70.675615 
L 151.713 70.916233 
L 153.387 71.1579 
L 155.061 71.399387 
L 156.735 71.639528 
L 158.409 71.877225 
L 160.083 72.11146 
L 161.757 72.341294 
L 163.431 72.565878 
L 165.105 72.784451 
L 166.779 72.996343 
L 168.453 73.20098 
L 170.127 73.397874 
L 171.801 73.586633 
L 173.475 73.766947 
L 175.149 73.938594 
L 176.823 74.101429 
L 178.497 74.255382 
L 180.171 74.400455 
L 181.845 74.53671 
L 183.519 74.664269 
L 185.193 74.783305 
L 186.867 74.894037 
L 188.541 74.99672 
L 190.215 75.091645 
L 191.889 75.179129 
L 193.563 75.259508 
L 193.563 75.956571 
L 193.563 75.956571 
L 191.889 75.956571 
L 190.215 75.956571 
L 188.541 75.956571 
L 186.867 75.956571 
L 185.193 75.956571 
L 183.519 75.956571 
L 181.845 75.956571 
L 180.171 75.956571 
L 178.497 75.956571 
L 176.823 75.956571 
L 175.149 75.956571 
L 173.475 75.956571 
L 171.801 75.956571 
L 170.127 75.956571 
L 168.453 75.956571 
L 166.779 75.956571 
L 165.105 75.956571 
L 163.431 75.956571 
L 161.757 75.956571 
L 160.083 75.956571 
L 158.409 75.956571 
L 156.735 75.956571 
L 155.061 75.956571 
L 153.387 75.956571 
L 151.713 75.956571 
L 150.039 75.956571 
L 148.365 75.956571 
L 146.691 75.956571 
L 145.017 75.956571 
L 143.343 75.956571 
L 141.669 75.956571 
L 139.995 75.956571 
L 138.321 75.956571 
L 136.647 75.956571 
L 134.973 75.956571 
L 133.299 75.956571 
L 131.625 75.956571 
L 129.951 75.956571 
L 128.277 75.956571 
L 126.603 75.956571 
L 124.929 75.956571 
L 123.255 75.956571 
L 121.581 75.956571 
L 119.907 75.956571 
L 118.233 75.956571 
L 116.559 75.956571 
L 114.885 75.956571 
L 113.211 75.956571 
L 111.537 75.956571 
L 109.863 75.956571 
L 108.189 75.956571 
L 106.515 75.956571 
L 104.841 75.956571 
L 103.167 75.956571 
L 101.493 75.956571 
L 99.819 75.956571 
L 98.145 75.956571 
L 96.471 75.956571 
L 94.797 75.956571 
L 93.123 75.956571 
L 91.449 75.956571 
L 89.775 75.956571 
L 88.101 75.956571 
L 86.427 75.956571 
L 84.753 75.956571 
L 83.079 75.956571 
L 81.405 75.956571 
L 79.731 75.956571 
L 78.057 75.956571 
L 76.383 75.956571 
L 74.709 75.956571 
L 73.035 75.956571 
L 71.361 75.956571 
L 69.687 75.956571 
L 68.013 75.956571 
L 66.339 75.956571 
L 64.665 75.956571 
L 62.991 75.956571 
L 61.317 75.956571 
L 59.643 75.956571 
L 57.969 75.956571 
L 56.295 75.956571 
L 54.621 75.956571 
L 52.947 75.956571 
L 51.273 75.956571 
L 49.599 75.956571 
L 47.925 75.956571 
L 46.251 75.956571 
L 44.577 75.956571 
L 42.903 75.956571 
L 41.229 75.956571 
L 39.555 75.956571 
L 37.881 75.956571 
L 36.207 75.956571 
L 34.533 75.956571 
L 32.859 75.956571 
L 31.185 75.956571 
L 29.511 75.956571 
L 27.837 75.956571 
z
" style="fill:#c3d5dd;"/>
   </g>
   <g id="PolyCollection_7">
    <path clip-path="url(#p0e639271a3)" d="M 27.837 64.566857 
L 27.837 64.5402 
L 29.511 64.535336 
L 31.185 64.529679 
L 32.859 64.523115 
L 34.533 64.515521 
L 36.207 64.50676 
L 37.881 64.496678 
L 39.555 64.48511 
L 41.229 64.471873 
L 42.903 64.456768 
L 44.577 64.439579 
L 46.251 64.420075 
L 47.925 64.398004 
L 49.599 64.373099 
L 51.273 64.345076 
L 52.947 64.313633 
L 54.621 64.278456 
L 56.295 64.239211 
L 57.969 64.195556 
L 59.643 64.147134 
L 61.317 64.093583 
L 62.991 64.034532 
L 64.665 63.969607 
L 66.339 63.898438 
L 68.013 63.820655 
L 69.687 63.735901 
L 71.361 63.643831 
L 73.035 63.54412 
L 74.709 63.436467 
L 76.383 63.320602 
L 78.057 63.196292 
L 79.731 63.063345 
L 81.405 62.921621 
L 83.079 62.771033 
L 84.753 62.611555 
L 86.427 62.443231 
L 88.101 62.266176 
L 89.775 62.080582 
L 91.449 61.886725 
L 93.123 61.684967 
L 94.797 61.475758 
L 96.471 61.25964 
L 98.145 61.037247 
L 99.819 60.809304 
L 101.493 60.57663 
L 103.167 60.340127 
L 104.841 60.100786 
L 106.515 59.859676 
L 108.189 59.617935 
L 109.863 59.376772 
L 111.537 59.137447 
L 113.211 58.901269 
L 114.885 58.669578 
L 116.559 58.443739 
L 118.233 58.225125 
L 119.907 58.015107 
L 121.581 57.815034 
L 123.255 57.626224 
L 124.929 57.44995 
L 126.603 57.287419 
L 128.277 57.139768 
L 129.951 57.008043 
L 131.625 56.893189 
L 133.299 56.796042 
L 134.973 56.717313 
L 136.647 56.657585 
L 138.321 56.6173 
L 139.995 56.596761 
L 141.669 56.596121 
L 143.343 56.615384 
L 145.017 56.654406 
L 146.691 56.712896 
L 148.365 56.79042 
L 150.039 56.886403 
L 151.713 57.000142 
L 153.387 57.13081 
L 155.061 57.277468 
L 156.735 57.439075 
L 158.409 57.614502 
L 160.083 57.802543 
L 161.757 58.001931 
L 163.431 58.211351 
L 165.105 58.429453 
L 166.779 58.654868 
L 168.453 58.886224 
L 170.127 59.122155 
L 171.801 59.361318 
L 173.475 59.602401 
L 175.149 59.844141 
L 176.823 60.085328 
L 178.497 60.324815 
L 180.171 60.56153 
L 181.845 60.794479 
L 183.519 61.022751 
L 185.193 61.245524 
L 186.867 61.462066 
L 188.541 61.671736 
L 190.215 61.873988 
L 191.889 62.068364 
L 193.563 62.254499 
L 193.563 64.566857 
L 193.563 64.566857 
L 191.889 64.566857 
L 190.215 64.566857 
L 188.541 64.566857 
L 186.867 64.566857 
L 185.193 64.566857 
L 183.519 64.566857 
L 181.845 64.566857 
L 180.171 64.566857 
L 178.497 64.566857 
L 176.823 64.566857 
L 175.149 64.566857 
L 173.475 64.566857 
L 171.801 64.566857 
L 170.127 64.566857 
L 168.453 64.566857 
L 166.779 64.566857 
L 165.105 64.566857 
L 163.431 64.566857 
L 161.757 64.566857 
L 160.083 64.566857 
L 158.409 64.566857 
L 156.735 64.566857 
L 155.061 64.566857 
L 153.387 64.566857 
L 151.713 64.566857 
L 150.039 64.566857 
L 148.365 64.566857 
L 146.691 64.566857 
L 145.017 64.566857 
L 143.343 64.566857 
L 141.669 64.566857 
L 139.995 64.566857 
L 138.321 64.566857 
L 136.647 64.566857 
L 134.973 64.566857 
L 133.299 64.566857 
L 131.625 64.566857 
L 129.951 64.566857 
L 128.277 64.566857 
L 126.603 64.566857 
L 124.929 64.566857 
L 123.255 64.566857 
L 121.581 64.566857 
L 119.907 64.566857 
L 118.233 64.566857 
L 116.559 64.566857 
L 114.885 64.566857 
L 113.211 64.566857 
L 111.537 64.566857 
L 109.863 64.566857 
L 108.189 64.566857 
L 106.515 64.566857 
L 104.841 64.566857 
L 103.167 64.566857 
L 101.493 64.566857 
L 99.819 64.566857 
L 98.145 64.566857 
L 96.471 64.566857 
L 94.797 64.566857 
L 93.123 64.566857 
L 91.449 64.566857 
L 89.775 64.566857 
L 88.101 64.566857 
L 86.427 64.566857 
L 84.753 64.566857 
L 83.079 64.566857 
L 81.405 64.566857 
L 79.731 64.566857 
L 78.057 64.566857 
L 76.383 64.566857 
L 74.709 64.566857 
L 73.035 64.566857 
L 71.361 64.566857 
L 69.687 64.566857 
L 68.013 64.566857 
L 66.339 64.566857 
L 64.665 64.566857 
L 62.991 64.566857 
L 61.317 64.566857 
L 59.643 64.566857 
L 57.969 64.566857 
L 56.295 64.566857 
L 54.621 64.566857 
L 52.947 64.566857 
L 51.273 64.566857 
L 49.599 64.566857 
L 47.925 64.566857 
L 46.251 64.566857 
L 44.577 64.566857 
L 42.903 64.566857 
L 41.229 64.566857 
L 39.555 64.566857 
L 37.881 64.566857 
L 36.207 64.566857 
L 34.533 64.566857 
L 32.859 64.566857 
L 31.185 64.566857 
L 29.511 64.566857 
L 27.837 64.566857 
z
" style="fill:#c3d5dd;"/>
   </g>
   <g id="PolyCollection_8">
    <path clip-path="url(#p0e639271a3)" d="M 27.837 53.177143 
L 27.837 53.170453 
L 29.511 53.169078 
L 31.185 53.167444 
L 32.859 53.165509 
L 34.533 53.163222 
L 36.207 53.160528 
L 37.881 53.157361 
L 39.555 53.15365 
L 41.229 53.149312 
L 42.903 53.144256 
L 44.577 53.138378 
L 46.251 53.131563 
L 47.925 53.123684 
L 49.599 53.1146 
L 51.273 53.104156 
L 52.947 53.092179 
L 54.621 53.078484 
L 56.295 53.062868 
L 57.969 53.04511 
L 59.643 53.024974 
L 61.317 53.002204 
L 62.991 52.97653 
L 64.665 52.947663 
L 66.339 52.915296 
L 68.013 52.879111 
L 69.687 52.838772 
L 71.361 52.793933 
L 73.035 52.744235 
L 74.709 52.689314 
L 76.383 52.628797 
L 78.057 52.562311 
L 79.731 52.489486 
L 81.405 52.409956 
L 83.079 52.323364 
L 84.753 52.229371 
L 86.427 52.127658 
L 88.101 52.01793 
L 89.775 51.899927 
L 91.449 51.773426 
L 93.123 51.638247 
L 94.797 51.494263 
L 96.471 51.341402 
L 98.145 51.179657 
L 99.819 51.009087 
L 101.493 50.829828 
L 103.167 50.642092 
L 104.841 50.446178 
L 106.515 50.242469 
L 108.189 50.031439 
L 109.863 49.813653 
L 111.537 49.589769 
L 113.211 49.360536 
L 114.885 49.126793 
L 116.559 48.889468 
L 118.233 48.64957 
L 119.907 48.408187 
L 121.581 48.166477 
L 123.255 47.925662 
L 124.929 47.687015 
L 126.603 47.451855 
L 128.277 47.221529 
L 129.951 46.997407 
L 131.625 46.78086 
L 133.299 46.573256 
L 134.973 46.375938 
L 136.647 46.190214 
L 138.321 46.01734 
L 139.995 45.858508 
L 141.669 45.714831 
L 143.343 45.587332 
L 145.017 45.47693 
L 146.691 45.384427 
L 148.365 45.310505 
L 150.039 45.25571 
L 151.713 45.220449 
L 153.387 45.204987 
L 155.061 45.20944 
L 156.735 45.233773 
L 158.409 45.277804 
L 160.083 45.341206 
L 161.757 45.423508 
L 163.431 45.524101 
L 165.105 45.642251 
L 166.779 45.777099 
L 168.453 45.927681 
L 170.127 46.092931 
L 171.801 46.271699 
L 173.475 46.462763 
L 175.149 46.664842 
L 176.823 46.87661 
L 178.497 47.096712 
L 180.171 47.323777 
L 181.845 47.556431 
L 183.519 47.793315 
L 185.193 48.033091 
L 186.867 48.274461 
L 188.541 48.516172 
L 190.215 48.75703 
L 191.889 48.995908 
L 193.563 49.231752 
L 193.563 53.177143 
L 193.563 53.177143 
L 191.889 53.177143 
L 190.215 53.177143 
L 188.541 53.177143 
L 186.867 53.177143 
L 185.193 53.177143 
L 183.519 53.177143 
L 181.845 53.177143 
L 180.171 53.177143 
L 178.497 53.177143 
L 176.823 53.177143 
L 175.149 53.177143 
L 173.475 53.177143 
L 171.801 53.177143 
L 170.127 53.177143 
L 168.453 53.177143 
L 166.779 53.177143 
L 165.105 53.177143 
L 163.431 53.177143 
L 161.757 53.177143 
L 160.083 53.177143 
L 158.409 53.177143 
L 156.735 53.177143 
L 155.061 53.177143 
L 153.387 53.177143 
L 151.713 53.177143 
L 150.039 53.177143 
L 148.365 53.177143 
L 146.691 53.177143 
L 145.017 53.177143 
L 143.343 53.177143 
L 141.669 53.177143 
L 139.995 53.177143 
L 138.321 53.177143 
L 136.647 53.177143 
L 134.973 53.177143 
L 133.299 53.177143 
L 131.625 53.177143 
L 129.951 53.177143 
L 128.277 53.177143 
L 126.603 53.177143 
L 124.929 53.177143 
L 123.255 53.177143 
L 121.581 53.177143 
L 119.907 53.177143 
L 118.233 53.177143 
L 116.559 53.177143 
L 114.885 53.177143 
L 113.211 53.177143 
L 111.537 53.177143 
L 109.863 53.177143 
L 108.189 53.177143 
L 106.515 53.177143 
L 104.841 53.177143 
L 103.167 53.177143 
L 101.493 53.177143 
L 99.819 53.177143 
L 98.145 53.177143 
L 96.471 53.177143 
L 94.797 53.177143 
L 93.123 53.177143 
L 91.449 53.177143 
L 89.775 53.177143 
L 88.101 53.177143 
L 86.427 53.177143 
L 84.753 53.177143 
L 83.079 53.177143 
L 81.405 53.177143 
L 79.731 53.177143 
L 78.057 53.177143 
L 76.383 53.177143 
L 74.709 53.177143 
L 73.035 53.177143 
L 71.361 53.177143 
L 69.687 53.177143 
L 68.013 53.177143 
L 66.339 53.177143 
L 64.665 53.177143 
L 62.991 53.177143 
L 61.317 53.177143 
L 59.643 53.177143 
L 57.969 53.177143 
L 56.295 53.177143 
L 54.621 53.177143 
L 52.947 53.177143 
L 51.273 53.177143 
L 49.599 53.177143 
L 47.925 53.177143 
L 46.251 53.177143 
L 44.577 53.177143 
L 42.903 53.177143 
L 41.229 53.177143 
L 39.555 53.177143 
L 37.881 53.177143 
L 36.207 53.177143 
L 34.533 53.177143 
L 32.859 53.177143 
L 31.185 53.177143 
L 29.511 53.177143 
L 27.837 53.177143 
z
" style="fill:#c3d5dd;"/>
   </g>
   <g id="PolyCollection_9">
    <path clip-path="url(#p0e639271a3)" d="M 27.837 41.787429 
L 27.837 41.785061 
L 29.511 41.784536 
L 31.185 41.783903 
L 32.859 41.783143 
L 34.533 41.782232 
L 36.207 41.781143 
L 37.881 41.779844 
L 39.555 41.778301 
L 41.229 41.77647 
L 42.903 41.774305 
L 44.577 41.771752 
L 46.251 41.768749 
L 47.925 41.765226 
L 49.599 41.761105 
L 51.273 41.756297 
L 52.947 41.750702 
L 54.621 41.744211 
L 56.295 41.736698 
L 57.969 41.728029 
L 59.643 41.718051 
L 61.317 41.7066 
L 62.991 41.693495 
L 64.665 41.678536 
L 66.339 41.661511 
L 68.013 41.642188 
L 69.687 41.620317 
L 71.361 41.595634 
L 73.035 41.567854 
L 74.709 41.536677 
L 76.383 41.50179 
L 78.057 41.462861 
L 79.731 41.419547 
L 81.405 41.371494 
L 83.079 41.318338 
L 84.753 41.25971 
L 86.427 41.195237 
L 88.101 41.124546 
L 89.775 41.04727 
L 91.449 40.963049 
L 93.123 40.871537 
L 94.797 40.772407 
L 96.471 40.665357 
L 98.145 40.550113 
L 99.819 40.426441 
L 101.493 40.294144 
L 103.167 40.153079 
L 104.841 40.003154 
L 106.515 39.84434 
L 108.189 39.676673 
L 109.863 39.500264 
L 111.537 39.315299 
L 113.211 39.122048 
L 114.885 38.920865 
L 116.559 38.712195 
L 118.233 38.496572 
L 119.907 38.274623 
L 121.581 38.047068 
L 123.255 37.814716 
L 124.929 37.578467 
L 126.603 37.339302 
L 128.277 37.098285 
L 129.951 36.856551 
L 131.625 36.615301 
L 133.299 36.375795 
L 134.973 36.139335 
L 136.647 35.907262 
L 138.321 35.680939 
L 139.995 35.461739 
L 141.669 35.251031 
L 143.343 35.05017 
L 145.017 34.860475 
L 146.691 34.683222 
L 148.365 34.519625 
L 150.039 34.370825 
L 151.713 34.237877 
L 153.387 34.121734 
L 155.061 34.023238 
L 156.735 33.943112 
L 158.409 33.881948 
L 160.083 33.8402 
L 161.757 33.81818 
L 163.431 33.816052 
L 165.105 33.833832 
L 166.779 33.871387 
L 168.453 33.928437 
L 170.127 34.004558 
L 171.801 34.099185 
L 173.475 34.211626 
L 175.149 34.341061 
L 176.823 34.48656 
L 178.497 34.647089 
L 180.171 34.821525 
L 181.845 35.008668 
L 183.519 35.207253 
L 185.193 35.41597 
L 186.867 35.633471 
L 188.541 35.858388 
L 190.215 36.089348 
L 191.889 36.324984 
L 193.563 36.563951 
L 193.563 41.787429 
L 193.563 41.787429 
L 191.889 41.787429 
L 190.215 41.787429 
L 188.541 41.787429 
L 186.867 41.787429 
L 185.193 41.787429 
L 183.519 41.787429 
L 181.845 41.787429 
L 180.171 41.787429 
L 178.497 41.787429 
L 176.823 41.787429 
L 175.149 41.787429 
L 173.475 41.787429 
L 171.801 41.787429 
L 170.127 41.787429 
L 168.453 41.787429 
L 166.779 41.787429 
L 165.105 41.787429 
L 163.431 41.787429 
L 161.757 41.787429 
L 160.083 41.787429 
L 158.409 41.787429 
L 156.735 41.787429 
L 155.061 41.787429 
L 153.387 41.787429 
L 151.713 41.787429 
L 150.039 41.787429 
L 148.365 41.787429 
L 146.691 41.787429 
L 145.017 41.787429 
L 143.343 41.787429 
L 141.669 41.787429 
L 139.995 41.787429 
L 138.321 41.787429 
L 136.647 41.787429 
L 134.973 41.787429 
L 133.299 41.787429 
L 131.625 41.787429 
L 129.951 41.787429 
L 128.277 41.787429 
L 126.603 41.787429 
L 124.929 41.787429 
L 123.255 41.787429 
L 121.581 41.787429 
L 119.907 41.787429 
L 118.233 41.787429 
L 116.559 41.787429 
L 114.885 41.787429 
L 113.211 41.787429 
L 111.537 41.787429 
L 109.863 41.787429 
L 108.189 41.787429 
L 106.515 41.787429 
L 104.841 41.787429 
L 103.167 41.787429 
L 101.493 41.787429 
L 99.819 41.787429 
L 98.145 41.787429 
L 96.471 41.787429 
L 94.797 41.787429 
L 93.123 41.787429 
L 91.449 41.787429 
L 89.775 41.787429 
L 88.101 41.787429 
L 86.427 41.787429 
L 84.753 41.787429 
L 83.079 41.787429 
L 81.405 41.787429 
L 79.731 41.787429 
L 78.057 41.787429 
L 76.383 41.787429 
L 74.709 41.787429 
L 73.035 41.787429 
L 71.361 41.787429 
L 69.687 41.787429 
L 68.013 41.787429 
L 66.339 41.787429 
L 64.665 41.787429 
L 62.991 41.787429 
L 61.317 41.787429 
L 59.643 41.787429 
L 57.969 41.787429 
L 56.295 41.787429 
L 54.621 41.787429 
L 52.947 41.787429 
L 51.273 41.787429 
L 49.599 41.787429 
L 47.925 41.787429 
L 46.251 41.787429 
L 44.577 41.787429 
L 42.903 41.787429 
L 41.229 41.787429 
L 39.555 41.787429 
L 37.881 41.787429 
L 36.207 41.787429 
L 34.533 41.787429 
L 32.859 41.787429 
L 31.185 41.787429 
L 29.511 41.787429 
L 27.837 41.787429 
z
" style="fill:#c3d5dd;"/>
   </g>
   <g id="PolyCollection_10">
    <path clip-path="url(#p0e639271a3)" d="M 27.837 30.397714 
L 27.837 30.397453 
L 29.511 30.397387 
L 31.185 30.397305 
L 32.859 30.397204 
L 34.533 30.397079 
L 36.207 30.396926 
L 37.881 30.396738 
L 39.555 30.396509 
L 41.229 30.39623 
L 42.903 30.39589 
L 44.577 30.395479 
L 46.251 30.394981 
L 47.925 30.394381 
L 49.599 30.393659 
L 51.273 30.392794 
L 52.947 30.391758 
L 54.621 30.390523 
L 56.295 30.389053 
L 57.969 30.387308 
L 59.643 30.385244 
L 61.317 30.382807 
L 62.991 30.379939 
L 64.665 30.376572 
L 66.339 30.37263 
L 68.013 30.368027 
L 69.687 30.362666 
L 71.361 30.356442 
L 73.035 30.349233 
L 74.709 30.340908 
L 76.383 30.331319 
L 78.057 30.320305 
L 79.731 30.30769 
L 81.405 30.29328 
L 83.079 30.276865 
L 84.753 30.258221 
L 86.427 30.237101 
L 88.101 30.213246 
L 89.775 30.186377 
L 91.449 30.156199 
L 93.123 30.1224 
L 94.797 30.084656 
L 96.471 30.042625 
L 98.145 29.995957 
L 99.819 29.944291 
L 101.493 29.887259 
L 103.167 29.824487 
L 104.841 29.755604 
L 106.515 29.680238 
L 108.189 29.598029 
L 109.863 29.508626 
L 111.537 29.411696 
L 113.211 29.306929 
L 114.885 29.194043 
L 116.559 29.072791 
L 118.233 28.942966 
L 119.907 28.804408 
L 121.581 28.65701 
L 123.255 28.500724 
L 124.929 28.335569 
L 126.603 28.161632 
L 128.277 27.979078 
L 129.951 27.788153 
L 131.625 27.589186 
L 133.299 27.382596 
L 134.973 27.168891 
L 136.647 26.948674 
L 138.321 26.722636 
L 139.995 26.491561 
L 141.669 26.256325 
L 143.343 26.017885 
L 145.017 25.777282 
L 146.691 25.535632 
L 148.365 25.294119 
L 150.039 25.053986 
L 151.713 24.816524 
L 153.387 24.583065 
L 155.061 24.354966 
L 156.735 24.133598 
L 158.409 23.920336 
L 160.083 23.716536 
L 161.757 23.523531 
L 163.431 23.342611 
L 165.105 23.175008 
L 166.779 23.021886 
L 168.453 22.884325 
L 170.127 22.763309 
L 171.801 22.659712 
L 173.475 22.574293 
L 175.149 22.507681 
L 176.823 22.460369 
L 178.497 22.432711 
L 180.171 22.424914 
L 181.845 22.437036 
L 183.519 22.468986 
L 185.193 22.520525 
L 186.867 22.59127 
L 188.541 22.680696 
L 190.215 22.788146 
L 191.889 22.912835 
L 193.563 23.053863 
L 193.563 30.397714 
L 193.563 30.397714 
L 191.889 30.397714 
L 190.215 30.397714 
L 188.541 30.397714 
L 186.867 30.397714 
L 185.193 30.397714 
L 183.519 30.397714 
L 181.845 30.397714 
L 180.171 30.397714 
L 178.497 30.397714 
L 176.823 30.397714 
L 175.149 30.397714 
L 173.475 30.397714 
L 171.801 30.397714 
L 170.127 30.397714 
L 168.453 30.397714 
L 166.779 30.397714 
L 165.105 30.397714 
L 163.431 30.397714 
L 161.757 30.397714 
L 160.083 30.397714 
L 158.409 30.397714 
L 156.735 30.397714 
L 155.061 30.397714 
L 153.387 30.397714 
L 151.713 30.397714 
L 150.039 30.397714 
L 148.365 30.397714 
L 146.691 30.397714 
L 145.017 30.397714 
L 143.343 30.397714 
L 141.669 30.397714 
L 139.995 30.397714 
L 138.321 30.397714 
L 136.647 30.397714 
L 134.973 30.397714 
L 133.299 30.397714 
L 131.625 30.397714 
L 129.951 30.397714 
L 128.277 30.397714 
L 126.603 30.397714 
L 124.929 30.397714 
L 123.255 30.397714 
L 121.581 30.397714 
L 119.907 30.397714 
L 118.233 30.397714 
L 116.559 30.397714 
L 114.885 30.397714 
L 113.211 30.397714 
L 111.537 30.397714 
L 109.863 30.397714 
L 108.189 30.397714 
L 106.515 30.397714 
L 104.841 30.397714 
L 103.167 30.397714 
L 101.493 30.397714 
L 99.819 30.397714 
L 98.145 30.397714 
L 96.471 30.397714 
L 94.797 30.397714 
L 93.123 30.397714 
L 91.449 30.397714 
L 89.775 30.397714 
L 88.101 30.397714 
L 86.427 30.397714 
L 84.753 30.397714 
L 83.079 30.397714 
L 81.405 30.397714 
L 79.731 30.397714 
L 78.057 30.397714 
L 76.383 30.397714 
L 74.709 30.397714 
L 73.035 30.397714 
L 71.361 30.397714 
L 69.687 30.397714 
L 68.013 30.397714 
L 66.339 30.397714 
L 64.665 30.397714 
L 62.991 30.397714 
L 61.317 30.397714 
L 59.643 30.397714 
L 57.969 30.397714 
L 56.295 30.397714 
L 54.621 30.397714 
L 52.947 30.397714 
L 51.273 30.397714 
L 49.599 30.397714 
L 47.925 30.397714 
L 46.251 30.397714 
L 44.577 30.397714 
L 42.903 30.397714 
L 41.229 30.397714 
L 39.555 30.397714 
L 37.881 30.397714 
L 36.207 30.397714 
L 34.533 30.397714 
L 32.859 30.397714 
L 31.185 30.397714 
L 29.511 30.397714 
L 27.837 30.397714 
z
" style="fill:#c3d5dd;"/>
   </g>
   <g id="matplotlib.axis_1">
    <g id="xtick_1">
     <g id="line2d_1">
      <defs>
       <path d="M 0 0 
L 0 3.5 
" id="ma9809ef951" style="stroke:#4c4c4c;stroke-width:2;"/>
      </defs>
      <g>
       <use style="fill:#4c4c4c;stroke:#4c4c4c;stroke-width:2;" x="27" xlink:href="#ma9809ef951" y="139.6"/>
      </g>
     </g>
     <g id="text_1">
      <!-- 0 -->
      <g style="fill:#4c4c4c;" transform="translate(24.775625 150.8425)scale(0.08 -0.08)">
       <defs>
        <path d="M 1778 -122 
Q 1041 -122 639 478 
Q 238 1078 238 2188 
Q 238 3297 639 3898 
Q 1041 4500 1778 4500 
Q 2522 4500 2922 3898 
Q 3322 3297 3322 2188 
Q 3322 1078 2922 478 
Q 2522 -122 1778 -122 
L 1778 -122 
z
M 1778 384 
Q 2253 384 2490 834 
Q 2728 1284 2725 2188 
Q 2728 3091 2490 3542 
Q 2253 3994 1778 3994 
Q 1306 3994 1072 3542 
Q 838 3091 834 2188 
Q 838 1284 1072 834 
Q 1306 384 1778 384 
L 1778 384 
z
" id="Helvetica-30" transform="scale(0.015625)"/>
       </defs>
       <use xlink:href="#Helvetica-30"/>
      </g>
     </g>
    </g>
    <g id="xtick_2">
     <g id="line2d_2">
      <g>
       <use style="fill:#4c4c4c;stroke:#4c4c4c;stroke-width:2;" x="194.4" xlink:href="#ma9809ef951" y="139.6"/>
      </g>
     </g>
     <g id="text_2">
      <!-- 1 -->
      <g style="fill:#4c4c4c;" transform="translate(192.175625 150.8425)scale(0.08 -0.08)">
       <defs>
        <path d="M 1700 0 
L 1700 3194 
L 1700 3194 
L 647 3194 
L 647 3644 
Q 1113 3634 1403 3844 
Q 1697 4056 1838 4500 
L 2297 4500 
L 2297 4500 
L 2297 0 
L 2297 0 
L 2000 0 
L 1700 0 
L 1700 0 
z
" id="Helvetica-31" transform="scale(0.015625)"/>
       </defs>
       <use xlink:href="#Helvetica-31"/>
      </g>
     </g>
    </g>
    <g id="text_3">
     <!-- Position / m -->
     <g transform="translate(89.804375 161.2375)scale(0.08 -0.08)">
      <defs>
       <path d="M 550 0 
L 550 4594 
L 550 4594 
L 859 4594 
L 859 4594 
L 2559 4594 
Q 3228 4594 3604 4258 
Q 3981 3922 3981 3328 
Q 3981 2675 3604 2306 
Q 3228 1938 2559 1938 
Q 1681 1941 1172 1931 
L 1172 1931 
L 1172 0 
L 1172 0 
L 863 0 
L 550 0 
L 550 0 
z
M 1172 2469 
L 1172 2469 
L 2406 2469 
Q 2891 2469 3116 2673 
Q 3341 2878 3341 3316 
Q 3341 3703 3116 3883 
Q 2891 4063 2406 4063 
L 1172 4063 
L 1172 4063 
L 1172 2469 
z
" id="Helvetica-50" transform="scale(0.015625)"/>
       <path d="M 1778 -91 
Q 1084 -91 654 396 
Q 225 884 225 1675 
Q 225 2469 654 2956 
Q 1084 3444 1778 3444 
Q 2478 3444 2906 2956 
Q 3334 2469 3334 1675 
Q 3334 884 2906 396 
Q 2478 -91 1778 -91 
L 1778 -91 
z
M 1778 394 
Q 2222 394 2484 741 
Q 2747 1088 2747 1675 
Q 2747 2263 2484 2611 
Q 2222 2959 1778 2959 
Q 1334 2959 1073 2611 
Q 813 2263 813 1675 
Q 813 1088 1073 741 
Q 1334 394 1778 394 
L 1778 394 
z
" id="Helvetica-6f" transform="scale(0.015625)"/>
       <path d="M 2331 2375 
L 2331 2375 
Q 2306 2653 2104 2806 
Q 1903 2959 1563 2959 
Q 1213 2959 1030 2837 
Q 847 2716 847 2481 
Q 847 2303 975 2213 
Q 1103 2122 1484 2031 
L 2066 1894 
Q 2553 1775 2763 1566 
Q 2969 1359 2969 988 
Q 2969 491 2611 200 
Q 2253 -91 1644 -91 
Q 938 -91 591 189 
Q 244 469 206 1069 
L 206 1069 
L 747 1069 
L 747 1069 
Q 788 713 998 553 
Q 1209 394 1644 394 
Q 2022 394 2217 537 
Q 2413 681 2413 956 
Q 2413 1131 2284 1222 
Q 2156 1313 1769 1403 
L 1188 1541 
Q 716 1653 516 1856 
Q 316 2056 316 2419 
Q 316 2891 652 3167 
Q 988 3444 1563 3444 
Q 2147 3444 2492 3159 
Q 2838 2875 2859 2375 
L 2859 2375 
L 2331 2375 
z
" id="Helvetica-73" transform="scale(0.015625)"/>
       <path d="M 434 0 
L 434 3344 
L 434 3344 
L 716 3344 
L 997 3344 
L 997 3344 
L 997 0 
L 997 0 
L 716 0 
L 434 0 
L 434 0 
z
M 428 4594 
L 1003 4594 
L 1003 3956 
L 428 3956 
L 428 4594 
z
" id="Helvetica-69" transform="scale(0.015625)"/>
       <path d="M 1644 3 
Q 1356 -41 1225 -41 
Q 856 -41 704 121 
Q 553 284 553 681 
L 553 2884 
L 553 2884 
L 91 2884 
L 91 3344 
L 553 3344 
L 553 3344 
L 553 4281 
L 1116 4281 
L 1116 3344 
L 1116 3344 
L 1644 3344 
L 1644 2884 
L 1116 2884 
L 1116 2884 
L 1116 681 
Q 1116 569 1205 503 
Q 1294 438 1444 438 
L 1644 438 
L 1644 3 
z
" id="Helvetica-74" transform="scale(0.015625)"/>
       <path d="M 416 0 
L 416 3344 
L 416 3344 
L 681 3344 
L 950 3344 
L 950 3344 
L 950 2850 
L 950 2850 
L 950 2850 
L 1075 3016 
Q 1441 3444 1991 3444 
Q 2544 3444 2844 3144 
Q 3144 2844 3144 2291 
L 3144 0 
L 3144 0 
L 2863 0 
L 2581 0 
L 2581 0 
L 2581 2100 
Q 2581 2541 2411 2736 
Q 2241 2931 1859 2931 
Q 1453 2931 1215 2623 
Q 978 2316 978 1791 
L 978 1791 
L 978 0 
L 978 0 
L 697 0 
L 416 0 
L 416 0 
z
" id="Helvetica-6e" transform="scale(0.015625)"/>
       <path id="Helvetica-20" transform="scale(0.015625)"/>
       <path d="M 1884 4713 
L 322 -125 
L -106 -125 
L 1456 4713 
L 1884 4713 
z
" id="Helvetica-2f" transform="scale(0.015625)"/>
       <path d="M 416 0 
L 416 3344 
L 416 3344 
L 681 3344 
L 950 3344 
L 950 3344 
L 950 2847 
L 950 2847 
L 950 2847 
L 1066 2997 
Q 1444 3444 1969 3444 
Q 2419 3444 2684 3178 
Q 2803 3059 2869 2906 
L 2869 2906 
L 2959 3022 
Q 3322 3444 3825 3444 
Q 4350 3444 4636 3158 
Q 4922 2872 4922 2347 
L 4922 0 
L 4922 0 
L 4641 0 
L 4359 0 
L 4359 0 
L 4359 2156 
Q 4359 2538 4203 2734 
Q 4047 2931 3747 2931 
Q 3381 2931 3165 2647 
Q 2950 2363 2950 1878 
L 2950 1878 
L 2950 0 
L 2950 0 
L 2669 0 
L 2388 0 
L 2388 0 
L 2388 2291 
Q 2388 2603 2245 2767 
Q 2103 2931 1831 2931 
Q 1456 2931 1217 2612 
Q 978 2294 978 1791 
L 978 1791 
L 978 0 
L 978 0 
L 697 0 
L 416 0 
L 416 0 
z
" id="Helvetica-6d" transform="scale(0.015625)"/>
      </defs>
      <use xlink:href="#Helvetica-50"/>
      <use x="66.699219" xlink:href="#Helvetica-6f"/>
      <use x="122.314453" xlink:href="#Helvetica-73"/>
      <use x="172.314453" xlink:href="#Helvetica-69"/>
      <use x="194.53125" xlink:href="#Helvetica-74"/>
      <use x="222.314453" xlink:href="#Helvetica-69"/>
      <use x="244.53125" xlink:href="#Helvetica-6f"/>
      <use x="300.146484" xlink:href="#Helvetica-6e"/>
      <use x="355.761719" xlink:href="#Helvetica-20"/>
      <use x="383.544922" xlink:href="#Helvetica-2f"/>
      <use x="411.328125" xlink:href="#Helvetica-20"/>
      <use x="439.111328" xlink:href="#Helvetica-6d"/>
     </g>
    </g>
   </g>
   <g id="matplotlib.axis_2">
    <g id="text_4">
     <!-- Neurons -->
     <g transform="translate(21.3475 93.922125)rotate(-90)scale(0.08 -0.08)">
      <defs>
       <path d="M 1088 0 
L 1088 0 
L 788 0 
L 488 0 
L 488 0 
L 488 4594 
L 488 4594 
L 859 4594 
L 1234 4594 
L 1234 4594 
L 3534 859 
L 3534 859 
L 3534 859 
L 3534 4594 
L 3534 4594 
L 3834 4594 
L 4134 4594 
L 4134 4594 
L 4134 0 
L 3794 0 
L 3453 0 
L 1088 3747 
L 1088 3747 
L 1088 3747 
L 1088 0 
z
" id="Helvetica-4e" transform="scale(0.015625)"/>
       <path d="M 1778 -91 
Q 1069 -91 662 359 
Q 256 809 256 1603 
Q 256 2447 686 2945 
Q 1116 3444 1841 3444 
Q 2497 3444 2900 2956 
Q 3303 2469 3303 1675 
L 3297 1475 
L 3297 1475 
L 853 1475 
L 853 1475 
Q 888 975 1081 713 
Q 1319 394 1831 394 
Q 2153 394 2393 575 
Q 2634 756 2688 1038 
L 2688 1038 
L 3244 1038 
L 3244 1038 
Q 3119 488 2744 198 
Q 2369 -91 1778 -91 
z
M 2716 1928 
L 2716 1928 
Q 2691 2394 2484 2653 
Q 2256 2941 1816 2941 
Q 1372 2941 1106 2609 
Q 897 2350 853 1928 
L 853 1928 
L 2716 1928 
z
" id="Helvetica-65" transform="scale(0.015625)"/>
       <path d="M 997 3344 
L 997 1188 
Q 997 766 1159 580 
Q 1322 394 1688 394 
Q 2094 394 2331 708 
Q 2569 1022 2569 1559 
L 2569 1559 
L 2569 3344 
L 2569 3344 
L 2850 3344 
L 3131 3344 
L 3131 3344 
L 3131 0 
L 3131 0 
L 2866 0 
L 2597 0 
L 2597 0 
L 2597 509 
L 2597 509 
L 2597 509 
Q 2541 419 2472 338 
Q 2113 -91 1572 -91 
Q 1003 -91 718 193 
Q 434 478 434 1047 
L 434 3344 
L 434 3344 
L 716 3344 
L 997 3344 
L 997 3344 
z
" id="Helvetica-75" transform="scale(0.015625)"/>
       <path d="M 494 0 
L 494 3344 
L 494 3344 
L 759 3344 
L 1028 3344 
L 1028 3344 
L 1028 2772 
L 1028 2772 
L 1028 2772 
Q 1100 2906 1181 3016 
Q 1500 3444 1966 3444 
Q 2044 3444 2125 3416 
L 2125 2841 
L 2009 2844 
Q 1553 2844 1304 2570 
Q 1056 2297 1056 1791 
L 1056 1791 
L 1056 0 
L 1056 0 
L 775 0 
L 494 0 
L 494 0 
z
" id="Helvetica-72" transform="scale(0.015625)"/>
      </defs>
      <use xlink:href="#Helvetica-4e"/>
      <use x="72.216797" xlink:href="#Helvetica-65"/>
      <use x="127.832031" xlink:href="#Helvetica-75"/>
      <use x="183.447266" xlink:href="#Helvetica-72"/>
      <use x="216.748047" xlink:href="#Helvetica-6f"/>
      <use x="272.363281" xlink:href="#Helvetica-6e"/>
      <use x="327.978516" xlink:href="#Helvetica-73"/>
     </g>
    </g>
   </g>
   <g id="line2d_3">
    <path clip-path="url(#p0e639271a3)" d="M 27.837 125.5124 
L 29.511 125.376725 
L 31.185 125.257703 
L 32.859 125.156197 
L 34.533 125.072947 
L 36.207 125.00857 
L 37.881 124.963542 
L 39.555 124.9382 
L 41.229 124.932732 
L 42.903 124.947181 
L 44.577 124.981438 
L 46.251 125.035247 
L 47.925 125.108206 
L 49.599 125.199777 
L 51.273 125.309286 
L 52.947 125.435935 
L 54.621 125.578812 
L 56.295 125.736898 
L 57.969 125.909085 
L 59.643 126.094184 
L 61.317 126.290943 
L 62.991 126.498055 
L 64.665 126.714178 
L 66.339 126.937948 
L 68.013 127.167991 
L 69.687 127.402938 
L 71.361 127.641439 
L 73.035 127.882175 
L 74.709 128.123869 
L 76.383 128.365298 
L 78.057 128.605298 
L 79.731 128.842779 
L 81.405 129.076728 
L 83.079 129.306212 
L 84.753 129.530387 
L 86.427 129.7485 
L 88.101 129.959889 
L 89.775 130.163984 
L 91.449 130.360305 
L 93.123 130.548465 
L 94.797 130.728162 
L 96.471 130.899178 
L 98.145 131.061376 
L 99.819 131.214689 
L 101.493 131.359124 
L 103.167 131.494749 
L 104.841 131.621689 
L 106.515 131.74012 
L 108.189 131.850263 
L 109.863 131.952378 
L 111.537 132.046757 
L 113.211 132.133717 
L 114.885 132.213599 
L 116.559 132.286757 
L 118.233 132.353557 
L 119.907 132.414369 
L 121.581 132.469566 
L 123.255 132.519521 
L 124.929 132.5646 
L 126.603 132.605159 
L 128.277 132.641548 
L 129.951 132.674101 
L 131.625 132.703139 
L 133.299 132.728969 
L 134.973 132.751879 
L 136.647 132.772144 
L 138.321 132.790017 
L 139.995 132.805736 
L 141.669 132.819524 
L 143.343 132.831584 
L 145.017 132.842103 
L 146.691 132.851252 
L 148.365 132.859189 
L 150.039 132.866054 
L 151.713 132.871977 
L 153.387 132.877073 
L 155.061 132.881445 
L 156.735 132.885186 
L 158.409 132.888378 
L 160.083 132.891095 
L 161.757 132.893401 
L 163.431 132.895353 
L 165.105 132.897001 
L 166.779 132.898388 
L 168.453 132.899553 
L 170.127 132.900529 
L 171.801 132.901344 
L 173.475 132.902023 
L 175.149 132.902586 
L 176.823 132.903054 
L 178.497 132.90344 
L 180.171 132.903758 
L 181.845 132.904019 
L 183.519 132.904234 
L 185.193 132.904409 
L 186.867 132.904552 
L 188.541 132.904669 
L 190.215 132.904763 
L 191.889 132.904839 
L 193.563 132.904901 
" style="fill:none;stroke:#37738f;stroke-linecap:square;stroke-width:2;"/>
   </g>
   <g id="line2d_4">
    <path clip-path="url(#p0e639271a3)" d="M 27.837 116.009822 
L 29.511 115.774936 
L 31.185 115.544974 
L 32.859 115.321304 
L 34.533 115.1053 
L 36.207 114.898327 
L 37.881 114.701727 
L 39.555 114.516804 
L 41.229 114.344811 
L 42.903 114.186936 
L 44.577 114.044286 
L 46.251 113.917877 
L 47.925 113.80862 
L 49.599 113.717312 
L 51.273 113.644623 
L 52.947 113.591093 
L 54.621 113.557119 
L 56.295 113.542956 
L 57.969 113.548709 
L 59.643 113.574336 
L 61.317 113.619644 
L 62.991 113.684296 
L 64.665 113.767812 
L 66.339 113.869576 
L 68.013 113.988843 
L 69.687 114.12475 
L 71.361 114.276323 
L 73.035 114.442492 
L 74.709 114.622101 
L 76.383 114.813924 
L 78.057 115.016677 
L 79.731 115.229031 
L 81.405 115.449629 
L 83.079 115.677101 
L 84.753 115.910073 
L 86.427 116.147186 
L 88.101 116.387105 
L 89.775 116.628535 
L 91.449 116.870226 
L 93.123 117.110989 
L 94.797 117.3497 
L 96.471 117.585311 
L 98.145 117.816854 
L 99.819 118.043447 
L 101.493 118.264295 
L 103.167 118.478697 
L 104.841 118.686042 
L 106.515 118.885812 
L 108.189 119.07758 
L 109.863 119.261005 
L 111.537 119.435835 
L 113.211 119.601897 
L 114.885 119.759095 
L 116.559 119.907404 
L 118.233 120.046865 
L 119.907 120.17758 
L 121.581 120.299703 
L 123.255 120.413437 
L 124.929 120.519025 
L 126.603 120.616745 
L 128.277 120.706906 
L 129.951 120.789837 
L 131.625 120.865888 
L 133.299 120.93542 
L 134.973 120.998802 
L 136.647 121.056406 
L 138.321 121.108606 
L 139.995 121.15577 
L 141.669 121.19826 
L 143.343 121.236429 
L 145.017 121.270617 
L 146.691 121.301152 
L 148.365 121.328347 
L 150.039 121.352498 
L 151.713 121.373886 
L 153.387 121.392773 
L 155.061 121.409405 
L 156.735 121.424011 
L 158.409 121.436802 
L 160.083 121.447971 
L 161.757 121.457699 
L 163.431 121.466147 
L 165.105 121.473464 
L 166.779 121.479784 
L 168.453 121.485227 
L 170.127 121.489903 
L 171.801 121.49391 
L 173.475 121.497332 
L 175.149 121.500248 
L 176.823 121.502726 
L 178.497 121.504826 
L 180.171 121.506601 
L 181.845 121.508098 
L 183.519 121.509355 
L 185.193 121.51041 
L 186.867 121.511292 
L 188.541 121.512027 
L 190.215 121.512639 
L 191.889 121.513146 
L 193.563 121.513566 
" style="fill:none;stroke:#37738f;stroke-linecap:square;stroke-width:2;"/>
   </g>
   <g id="line2d_5">
    <path clip-path="url(#p0e639271a3)" d="M 27.837 106.599317 
L 29.511 106.371449 
L 31.185 106.138835 
L 32.859 105.902381 
L 34.533 105.663073 
L 36.207 105.42198 
L 37.881 105.18024 
L 39.555 104.93906 
L 41.229 104.6997 
L 42.903 104.463467 
L 44.577 104.231702 
L 46.251 104.00577 
L 47.925 103.787044 
L 49.599 103.576894 
L 51.273 103.376669 
L 52.947 103.18769 
L 54.621 103.011228 
L 56.295 102.848493 
L 57.969 102.700622 
L 59.643 102.568663 
L 61.317 102.453562 
L 62.991 102.356157 
L 64.665 102.277161 
L 66.339 102.217158 
L 68.013 102.176594 
L 69.687 102.155772 
L 71.361 102.154847 
L 73.035 102.173827 
L 74.709 102.212569 
L 76.383 102.270784 
L 78.057 102.34804 
L 79.731 102.443764 
L 81.405 102.557255 
L 83.079 102.687688 
L 84.753 102.834125 
L 86.427 102.995527 
L 88.101 103.170765 
L 89.775 103.358635 
L 91.449 103.55787 
L 93.123 103.767156 
L 94.797 103.985144 
L 96.471 104.210465 
L 98.145 104.441745 
L 99.819 104.677621 
L 101.493 104.916746 
L 103.167 105.157811 
L 104.841 105.39955 
L 106.515 105.640753 
L 108.189 105.880272 
L 109.863 106.117035 
L 111.537 106.350044 
L 113.211 106.578389 
L 114.885 106.801245 
L 116.559 107.01788 
L 118.233 107.227653 
L 119.907 107.430014 
L 121.581 107.624506 
L 123.255 107.81076 
L 124.929 107.988494 
L 126.603 108.157509 
L 128.277 108.317684 
L 129.951 108.46897 
L 131.625 108.611389 
L 133.299 108.74502 
L 134.973 108.870003 
L 136.647 108.986523 
L 138.321 109.094812 
L 139.995 109.195136 
L 141.669 109.287795 
L 143.343 109.373111 
L 145.017 109.451429 
L 146.691 109.523105 
L 148.365 109.588506 
L 150.039 109.648005 
L 151.713 109.701975 
L 153.387 109.750786 
L 155.061 109.794803 
L 156.735 109.834382 
L 158.409 109.869867 
L 160.083 109.901591 
L 161.757 109.929871 
L 163.431 109.95501 
L 165.105 109.977294 
L 166.779 109.996991 
L 168.453 110.014353 
L 170.127 110.029614 
L 171.801 110.04299 
L 173.475 110.054683 
L 175.149 110.064875 
L 176.823 110.073734 
L 178.497 110.081415 
L 180.171 110.088055 
L 181.845 110.093779 
L 183.519 110.098701 
L 185.193 110.102922 
L 186.867 110.106531 
L 188.541 110.109609 
L 190.215 110.112226 
L 191.889 110.114447 
L 193.563 110.116325 
" style="fill:none;stroke:#37738f;stroke-linecap:square;stroke-width:2;"/>
   </g>
   <g id="line2d_6">
    <path clip-path="url(#p0e639271a3)" d="M 27.837 96.810905 
L 29.511 96.644213 
L 31.185 96.468763 
L 32.859 96.284732 
L 34.533 96.092381 
L 36.207 95.892055 
L 37.881 95.684188 
L 39.555 95.469304 
L 41.229 95.248021 
L 42.903 95.021048 
L 44.577 94.789184 
L 46.251 94.553319 
L 47.925 94.314425 
L 49.599 94.073558 
L 51.273 93.831845 
L 52.947 93.590482 
L 54.621 93.350719 
L 56.295 93.113857 
L 57.969 92.881232 
L 59.643 92.654206 
L 61.317 92.434151 
L 62.991 92.222438 
L 64.665 92.020422 
L 66.339 91.829429 
L 68.013 91.650739 
L 69.687 91.485575 
L 71.361 91.335086 
L 73.035 91.200337 
L 74.709 91.082292 
L 76.383 90.981808 
L 78.057 90.89962 
L 79.731 90.836334 
L 81.405 90.792422 
L 83.079 90.768209 
L 84.753 90.763879 
L 86.427 90.779462 
L 88.101 90.814842 
L 89.775 90.869755 
L 91.449 90.943792 
L 93.123 91.036406 
L 94.797 91.146915 
L 96.471 91.274515 
L 98.145 91.418287 
L 99.819 91.577208 
L 101.493 91.750165 
L 103.167 91.935963 
L 104.841 92.133348 
L 106.515 92.341011 
L 108.189 92.557607 
L 109.863 92.781772 
L 111.537 93.012131 
L 113.211 93.247317 
L 114.885 93.485981 
L 116.559 93.726805 
L 118.233 93.968517 
L 119.907 94.209894 
L 121.581 94.449779 
L 123.255 94.687086 
L 124.929 94.920804 
L 126.603 95.150007 
L 128.277 95.373856 
L 129.951 95.591602 
L 131.625 95.80259 
L 133.299 96.006252 
L 134.973 96.202118 
L 136.647 96.389803 
L 138.321 96.56901 
L 139.995 96.739526 
L 141.669 96.901217 
L 143.343 97.054024 
L 145.017 97.197954 
L 146.691 97.333079 
L 148.365 97.459528 
L 150.039 97.57748 
L 151.713 97.687158 
L 153.387 97.788824 
L 155.061 97.882771 
L 156.735 97.969318 
L 158.409 98.048807 
L 160.083 98.121592 
L 161.757 98.18804 
L 163.431 98.248522 
L 165.105 98.303411 
L 166.779 98.353078 
L 168.453 98.397889 
L 170.127 98.438201 
L 171.801 98.474362 
L 173.475 98.506706 
L 175.149 98.535553 
L 176.823 98.561209 
L 178.497 98.583961 
L 180.171 98.604082 
L 181.845 98.621826 
L 183.519 98.63743 
L 185.193 98.651114 
L 186.867 98.663081 
L 188.541 98.673517 
L 190.215 98.682593 
L 191.889 98.690465 
L 193.563 98.697273 
" style="fill:none;stroke:#37738f;stroke-linecap:square;stroke-width:2;"/>
   </g>
   <g id="line2d_7">
    <path clip-path="url(#p0e639271a3)" d="M 27.837 86.864971 
L 29.511 86.805109 
L 31.185 86.73932 
L 32.859 86.667234 
L 34.533 86.588483 
L 36.207 86.502711 
L 37.881 86.409576 
L 39.555 86.308755 
L 41.229 86.199952 
L 42.903 86.082901 
L 44.577 85.957375 
L 46.251 85.823189 
L 47.925 85.68021 
L 49.599 85.52836 
L 51.273 85.367622 
L 52.947 85.19805 
L 54.621 85.019768 
L 56.295 84.832983 
L 57.969 84.63798 
L 59.643 84.435134 
L 61.317 84.224909 
L 62.991 84.00786 
L 64.665 83.784632 
L 66.339 83.555966 
L 68.013 83.322691 
L 69.687 83.085723 
L 71.361 82.846065 
L 73.035 82.604793 
L 74.709 82.36306 
L 76.383 82.12208 
L 78.057 81.883121 
L 79.731 81.647497 
L 81.405 81.416554 
L 83.079 81.191657 
L 84.753 80.974181 
L 86.427 80.765493 
L 88.101 80.566939 
L 89.775 80.379834 
L 91.449 80.205438 
L 93.123 80.044953 
L 94.797 79.899501 
L 96.471 79.770116 
L 98.145 79.657729 
L 99.819 79.563156 
L 101.493 79.487092 
L 103.167 79.430101 
L 104.841 79.392605 
L 106.515 79.374885 
L 108.189 79.377074 
L 109.863 79.399154 
L 111.537 79.440962 
L 113.211 79.502184 
L 114.885 79.582366 
L 116.559 79.680916 
L 118.233 79.797112 
L 119.907 79.93011 
L 121.581 80.078956 
L 123.255 80.242596 
L 124.929 80.419889 
L 126.603 80.60962 
L 128.277 80.810513 
L 129.951 81.021248 
L 131.625 81.240472 
L 133.299 81.466815 
L 134.973 81.698903 
L 136.647 81.935374 
L 138.321 82.174888 
L 139.995 82.41614 
L 141.669 82.657874 
L 143.343 82.898887 
L 145.017 83.138045 
L 146.691 83.374284 
L 148.365 83.606623 
L 150.039 83.834162 
L 151.713 84.056092 
L 153.387 84.271695 
L 155.061 84.480343 
L 156.735 84.681503 
L 158.409 84.874729 
L 160.083 85.059669 
L 161.757 85.236052 
L 163.431 85.403692 
L 165.105 85.562479 
L 166.779 85.712377 
L 168.453 85.853416 
L 170.127 85.985686 
L 171.801 86.109332 
L 173.475 86.224551 
L 175.149 86.331576 
L 176.823 86.430683 
L 178.497 86.522172 
L 180.171 86.606372 
L 181.845 86.683628 
L 183.519 86.754299 
L 185.193 86.818754 
L 186.867 86.877364 
L 188.541 86.930504 
L 190.215 86.978542 
L 191.889 87.021842 
L 193.563 87.060759 
" style="fill:none;stroke:#37738f;stroke-linecap:square;stroke-width:2;"/>
   </g>
   <g id="line2d_8">
    <path clip-path="url(#p0e639271a3)" d="M 27.837 75.770961 
L 29.511 75.743949 
L 31.185 75.713615 
L 32.859 75.679646 
L 34.533 75.641716 
L 36.207 75.599484 
L 37.881 75.552599 
L 39.555 75.500699 
L 41.229 75.443416 
L 42.903 75.380377 
L 44.577 75.31121 
L 46.251 75.235545 
L 47.925 75.153019 
L 49.599 75.063284 
L 51.273 74.966008 
L 52.947 74.860881 
L 54.621 74.747623 
L 56.295 74.625989 
L 57.969 74.495774 
L 59.643 74.35682 
L 61.317 74.209022 
L 62.991 74.052337 
L 64.665 73.886784 
L 66.339 73.712455 
L 68.013 73.529518 
L 69.687 73.338223 
L 71.361 73.138903 
L 73.035 72.931981 
L 74.709 72.71797 
L 76.383 72.497475 
L 78.057 72.271192 
L 79.731 72.039911 
L 81.405 71.804509 
L 83.079 71.565949 
L 84.753 71.325274 
L 86.427 71.083605 
L 88.101 70.842127 
L 89.775 70.602085 
L 91.449 70.364775 
L 93.123 70.131528 
L 94.797 69.903702 
L 96.471 69.68267 
L 98.145 69.469805 
L 99.819 69.266463 
L 101.493 69.073974 
L 103.167 68.893628 
L 104.841 68.726652 
L 106.515 68.574209 
L 108.189 68.437372 
L 109.863 68.317122 
L 111.537 68.214328 
L 113.211 68.129743 
L 114.885 68.06399 
L 116.559 68.017557 
L 118.233 67.99079 
L 119.907 67.983889 
L 121.581 67.996907 
L 123.255 68.029745 
L 124.929 68.082158 
L 126.603 68.153756 
L 128.277 68.244009 
L 129.951 68.352252 
L 131.625 68.477697 
L 133.299 68.619438 
L 134.973 68.776466 
L 136.647 68.947677 
L 138.321 69.131888 
L 139.995 69.327851 
L 141.669 69.534262 
L 143.343 69.749783 
L 145.017 69.973048 
L 146.691 70.202685 
L 148.365 70.437325 
L 150.039 70.675615 
L 151.713 70.916233 
L 153.387 71.1579 
L 155.061 71.399387 
L 156.735 71.639528 
L 158.409 71.877225 
L 160.083 72.11146 
L 161.757 72.341294 
L 163.431 72.565878 
L 165.105 72.784451 
L 166.779 72.996343 
L 168.453 73.20098 
L 170.127 73.397874 
L 171.801 73.586633 
L 173.475 73.766947 
L 175.149 73.938594 
L 176.823 74.101429 
L 178.497 74.255382 
L 180.171 74.400455 
L 181.845 74.53671 
L 183.519 74.664269 
L 185.193 74.783305 
L 186.867 74.894037 
L 188.541 74.99672 
L 190.215 75.091645 
L 191.889 75.179129 
L 193.563 75.259508 
" style="fill:none;stroke:#37738f;stroke-linecap:square;stroke-width:2;"/>
   </g>
   <g id="line2d_9">
    <path clip-path="url(#p0e639271a3)" d="M 27.837 64.5402 
L 29.511 64.535336 
L 31.185 64.529679 
L 32.859 64.523115 
L 34.533 64.515521 
L 36.207 64.50676 
L 37.881 64.496678 
L 39.555 64.48511 
L 41.229 64.471873 
L 42.903 64.456768 
L 44.577 64.439579 
L 46.251 64.420075 
L 47.925 64.398004 
L 49.599 64.373099 
L 51.273 64.345076 
L 52.947 64.313633 
L 54.621 64.278456 
L 56.295 64.239211 
L 57.969 64.195556 
L 59.643 64.147134 
L 61.317 64.093583 
L 62.991 64.034532 
L 64.665 63.969607 
L 66.339 63.898438 
L 68.013 63.820655 
L 69.687 63.735901 
L 71.361 63.643831 
L 73.035 63.54412 
L 74.709 63.436467 
L 76.383 63.320602 
L 78.057 63.196292 
L 79.731 63.063345 
L 81.405 62.921621 
L 83.079 62.771033 
L 84.753 62.611555 
L 86.427 62.443231 
L 88.101 62.266176 
L 89.775 62.080582 
L 91.449 61.886725 
L 93.123 61.684967 
L 94.797 61.475758 
L 96.471 61.25964 
L 98.145 61.037247 
L 99.819 60.809304 
L 101.493 60.57663 
L 103.167 60.340127 
L 104.841 60.100786 
L 106.515 59.859676 
L 108.189 59.617935 
L 109.863 59.376772 
L 111.537 59.137447 
L 113.211 58.901269 
L 114.885 58.669578 
L 116.559 58.443739 
L 118.233 58.225125 
L 119.907 58.015107 
L 121.581 57.815034 
L 123.255 57.626224 
L 124.929 57.44995 
L 126.603 57.287419 
L 128.277 57.139768 
L 129.951 57.008043 
L 131.625 56.893189 
L 133.299 56.796042 
L 134.973 56.717313 
L 136.647 56.657585 
L 138.321 56.6173 
L 139.995 56.596761 
L 141.669 56.596121 
L 143.343 56.615384 
L 145.017 56.654406 
L 146.691 56.712896 
L 148.365 56.79042 
L 150.039 56.886403 
L 151.713 57.000142 
L 153.387 57.13081 
L 155.061 57.277468 
L 156.735 57.439075 
L 158.409 57.614502 
L 160.083 57.802543 
L 161.757 58.001931 
L 163.431 58.211351 
L 165.105 58.429453 
L 166.779 58.654868 
L 168.453 58.886224 
L 170.127 59.122155 
L 171.801 59.361318 
L 173.475 59.602401 
L 175.149 59.844141 
L 176.823 60.085328 
L 178.497 60.324815 
L 180.171 60.56153 
L 181.845 60.794479 
L 183.519 61.022751 
L 185.193 61.245524 
L 186.867 61.462066 
L 188.541 61.671736 
L 190.215 61.873988 
L 191.889 62.068364 
L 193.563 62.254499 
" style="fill:none;stroke:#37738f;stroke-linecap:square;stroke-width:2;"/>
   </g>
   <g id="line2d_10">
    <path clip-path="url(#p0e639271a3)" d="M 27.837 53.170453 
L 29.511 53.169078 
L 31.185 53.167444 
L 32.859 53.165509 
L 34.533 53.163222 
L 36.207 53.160528 
L 37.881 53.157361 
L 39.555 53.15365 
L 41.229 53.149312 
L 42.903 53.144256 
L 44.577 53.138378 
L 46.251 53.131563 
L 47.925 53.123684 
L 49.599 53.1146 
L 51.273 53.104156 
L 52.947 53.092179 
L 54.621 53.078484 
L 56.295 53.062868 
L 57.969 53.04511 
L 59.643 53.024974 
L 61.317 53.002204 
L 62.991 52.97653 
L 64.665 52.947663 
L 66.339 52.915296 
L 68.013 52.879111 
L 69.687 52.838772 
L 71.361 52.793933 
L 73.035 52.744235 
L 74.709 52.689314 
L 76.383 52.628797 
L 78.057 52.562311 
L 79.731 52.489486 
L 81.405 52.409956 
L 83.079 52.323364 
L 84.753 52.229371 
L 86.427 52.127658 
L 88.101 52.01793 
L 89.775 51.899927 
L 91.449 51.773426 
L 93.123 51.638247 
L 94.797 51.494263 
L 96.471 51.341402 
L 98.145 51.179657 
L 99.819 51.009087 
L 101.493 50.829828 
L 103.167 50.642092 
L 104.841 50.446178 
L 106.515 50.242469 
L 108.189 50.031439 
L 109.863 49.813653 
L 111.537 49.589769 
L 113.211 49.360536 
L 114.885 49.126793 
L 116.559 48.889468 
L 118.233 48.64957 
L 119.907 48.408187 
L 121.581 48.166477 
L 123.255 47.925662 
L 124.929 47.687015 
L 126.603 47.451855 
L 128.277 47.221529 
L 129.951 46.997407 
L 131.625 46.78086 
L 133.299 46.573256 
L 134.973 46.375938 
L 136.647 46.190214 
L 138.321 46.01734 
L 139.995 45.858508 
L 141.669 45.714831 
L 143.343 45.587332 
L 145.017 45.47693 
L 146.691 45.384427 
L 148.365 45.310505 
L 150.039 45.25571 
L 151.713 45.220449 
L 153.387 45.204987 
L 155.061 45.20944 
L 156.735 45.233773 
L 158.409 45.277804 
L 160.083 45.341206 
L 161.757 45.423508 
L 163.431 45.524101 
L 165.105 45.642251 
L 166.779 45.777099 
L 168.453 45.927681 
L 170.127 46.092931 
L 171.801 46.271699 
L 173.475 46.462763 
L 175.149 46.664842 
L 176.823 46.87661 
L 178.497 47.096712 
L 180.171 47.323777 
L 181.845 47.556431 
L 183.519 47.793315 
L 185.193 48.033091 
L 186.867 48.274461 
L 188.541 48.516172 
L 190.215 48.75703 
L 191.889 48.995908 
L 193.563 49.231752 
" style="fill:none;stroke:#37738f;stroke-linecap:square;stroke-width:2;"/>
   </g>
   <g id="line2d_11">
    <path clip-path="url(#p0e639271a3)" d="M 27.837 41.785061 
L 29.511 41.784536 
L 31.185 41.783903 
L 32.859 41.783143 
L 34.533 41.782232 
L 36.207 41.781143 
L 37.881 41.779844 
L 39.555 41.778301 
L 41.229 41.77647 
L 42.903 41.774305 
L 44.577 41.771752 
L 46.251 41.768749 
L 47.925 41.765226 
L 49.599 41.761105 
L 51.273 41.756297 
L 52.947 41.750702 
L 54.621 41.744211 
L 56.295 41.736698 
L 57.969 41.728029 
L 59.643 41.718051 
L 61.317 41.7066 
L 62.991 41.693495 
L 64.665 41.678536 
L 66.339 41.661511 
L 68.013 41.642188 
L 69.687 41.620317 
L 71.361 41.595634 
L 73.035 41.567854 
L 74.709 41.536677 
L 76.383 41.50179 
L 78.057 41.462861 
L 79.731 41.419547 
L 81.405 41.371494 
L 83.079 41.318338 
L 84.753 41.25971 
L 86.427 41.195237 
L 88.101 41.124546 
L 89.775 41.04727 
L 91.449 40.963049 
L 93.123 40.871537 
L 94.797 40.772407 
L 96.471 40.665357 
L 98.145 40.550113 
L 99.819 40.426441 
L 101.493 40.294144 
L 103.167 40.153079 
L 104.841 40.003154 
L 106.515 39.84434 
L 108.189 39.676673 
L 109.863 39.500264 
L 111.537 39.315299 
L 113.211 39.122048 
L 114.885 38.920865 
L 116.559 38.712195 
L 118.233 38.496572 
L 119.907 38.274623 
L 121.581 38.047068 
L 123.255 37.814716 
L 124.929 37.578467 
L 126.603 37.339302 
L 128.277 37.098285 
L 129.951 36.856551 
L 131.625 36.615301 
L 133.299 36.375795 
L 134.973 36.139335 
L 136.647 35.907262 
L 138.321 35.680939 
L 139.995 35.461739 
L 141.669 35.251031 
L 143.343 35.05017 
L 145.017 34.860475 
L 146.691 34.683222 
L 148.365 34.519625 
L 150.039 34.370825 
L 151.713 34.237877 
L 153.387 34.121734 
L 155.061 34.023238 
L 156.735 33.943112 
L 158.409 33.881948 
L 160.083 33.8402 
L 161.757 33.81818 
L 163.431 33.816052 
L 165.105 33.833832 
L 166.779 33.871387 
L 168.453 33.928437 
L 170.127 34.004558 
L 171.801 34.099185 
L 173.475 34.211626 
L 175.149 34.341061 
L 176.823 34.48656 
L 178.497 34.647089 
L 180.171 34.821525 
L 181.845 35.008668 
L 183.519 35.207253 
L 185.193 35.41597 
L 186.867 35.633471 
L 188.541 35.858388 
L 190.215 36.089348 
L 191.889 36.324984 
L 193.563 36.563951 
" style="fill:none;stroke:#37738f;stroke-linecap:square;stroke-width:2;"/>
   </g>
   <g id="line2d_12">
    <path clip-path="url(#p0e639271a3)" d="M 27.837 30.397453 
L 29.511 30.397387 
L 31.185 30.397305 
L 32.859 30.397204 
L 34.533 30.397079 
L 36.207 30.396926 
L 37.881 30.396738 
L 39.555 30.396509 
L 41.229 30.39623 
L 42.903 30.39589 
L 44.577 30.395479 
L 46.251 30.394981 
L 47.925 30.394381 
L 49.599 30.393659 
L 51.273 30.392794 
L 52.947 30.391758 
L 54.621 30.390523 
L 56.295 30.389053 
L 57.969 30.387308 
L 59.643 30.385244 
L 61.317 30.382807 
L 62.991 30.379939 
L 64.665 30.376572 
L 66.339 30.37263 
L 68.013 30.368027 
L 69.687 30.362666 
L 71.361 30.356442 
L 73.035 30.349233 
L 74.709 30.340908 
L 76.383 30.331319 
L 78.057 30.320305 
L 79.731 30.30769 
L 81.405 30.29328 
L 83.079 30.276865 
L 84.753 30.258221 
L 86.427 30.237101 
L 88.101 30.213246 
L 89.775 30.186377 
L 91.449 30.156199 
L 93.123 30.1224 
L 94.797 30.084656 
L 96.471 30.042625 
L 98.145 29.995957 
L 99.819 29.944291 
L 101.493 29.887259 
L 103.167 29.824487 
L 104.841 29.755604 
L 106.515 29.680238 
L 108.189 29.598029 
L 109.863 29.508626 
L 111.537 29.411696 
L 113.211 29.306929 
L 114.885 29.194043 
L 116.559 29.072791 
L 118.233 28.942966 
L 119.907 28.804408 
L 121.581 28.65701 
L 123.255 28.500724 
L 124.929 28.335569 
L 126.603 28.161632 
L 128.277 27.979078 
L 129.951 27.788153 
L 131.625 27.589186 
L 133.299 27.382596 
L 134.973 27.168891 
L 136.647 26.948674 
L 138.321 26.722636 
L 139.995 26.491561 
L 141.669 26.256325 
L 143.343 26.017885 
L 145.017 25.777282 
L 146.691 25.535632 
L 148.365 25.294119 
L 150.039 25.053986 
L 151.713 24.816524 
L 153.387 24.583065 
L 155.061 24.354966 
L 156.735 24.133598 
L 158.409 23.920336 
L 160.083 23.716536 
L 161.757 23.523531 
L 163.431 23.342611 
L 165.105 23.175008 
L 166.779 23.021886 
L 168.453 22.884325 
L 170.127 22.763309 
L 171.801 22.659712 
L 173.475 22.574293 
L 175.149 22.507681 
L 176.823 22.460369 
L 178.497 22.432711 
L 180.171 22.424914 
L 181.845 22.437036 
L 183.519 22.468986 
L 185.193 22.520525 
L 186.867 22.59127 
L 188.541 22.680696 
L 190.215 22.788146 
L 191.889 22.912835 
L 193.563 23.053863 
" style="fill:none;stroke:#37738f;stroke-linecap:square;stroke-width:2;"/>
   </g>
   <g id="patch_3">
    <path d="M 26 132.905143 
L 26 30.397714 
" style="fill:none;"/>
   </g>
   <g id="patch_4">
    <path d="M 194.4 138.6 
L 194.4 19.008 
" style="fill:none;"/>
   </g>
   <g id="patch_5">
    <path d="M 27 139.6 
L 194.4 139.6 
" style="fill:none;stroke:#4c4c4c;stroke-linecap:square;stroke-linejoin:miter;stroke-width:2;"/>
   </g>
   <g id="patch_6">
    <path d="M 27 19.008 
L 194.4 19.008 
" style="fill:none;"/>
   </g>
  </g>
 </g>
 <defs>
  <clipPath id="p0e639271a3">
   <rect height="119.592" width="167.4" x="27" y="19.008"/>
  </clipPath>
 </defs>
</svg>
