<?xml version="1.0" encoding="utf-8" standalone="no"?>
<!DOCTYPE svg PUBLIC "-//W3C//DTD SVG 1.1//EN"
  "http://www.w3.org/Graphics/SVG/1.1/DTD/svg11.dtd">
<svg height="144pt" version="1.1" viewBox="0 0 288 144" width="288pt" xmlns="http://www.w3.org/2000/svg" xmlns:xlink="http://www.w3.org/1999/xlink">
 <metadata>
  <rdf:RDF xmlns:cc="http://creativecommons.org/ns#" xmlns:dc="http://purl.org/dc/elements/1.1/" xmlns:rdf="http://www.w3.org/1999/02/22-rdf-syntax-ns#">
   <cc:Work>
    <dc:type rdf:resource="http://purl.org/dc/dcmitype/StillImage"/>
    <dc:date>2022-07-07T02:50:32.686016</dc:date>
    <dc:format>image/svg+xml</dc:format>
    <dc:creator>
     <cc:Agent>
      <dc:title>Matplotlib v3.4.3, https://matplotlib.org/</dc:title>
     </cc:Agent>
    </dc:creator>
   </cc:Work>
  </rdf:RDF>
 </metadata>
 <defs>
  <style type="text/css">*{stroke-linecap:butt;stroke-linejoin:round;}</style>
 </defs>
 <g id="figure_1">
  <g id="patch_1">
   <path d="M 0 144 
L 288 144 
L 288 0 
L 0 0 
z
" style="fill:none;"/>
  </g>
  <g id="axes_1">
   <g id="patch_2">
    <path d="M 36 126 
L 259.2 126 
L 259.2 17.28 
L 36 17.28 
z
" style="fill:none;"/>
   </g>
   <g id="PathCollection_1">
    <defs>
     <path d="M 0 1 
C 0.265203 1 0.51958 0.894634 0.707107 0.707107 
C 0.894634 0.51958 1 0.265203 1 0 
C 1 -0.265203 0.894634 -0.51958 0.707107 -0.707107 
C 0.51958 -0.894634 0.265203 -1 0 -1 
C -0.265203 -1 -0.51958 -0.894634 -0.707107 -0.707107 
C -0.894634 -0.51958 -1 -0.265203 -1 0 
C -1 0.265203 -0.894634 0.51958 -0.707107 0.707107 
C -0.51958 0.894634 -0.265203 1 0 1 
z
" id="m03afad1bde"/>
    </defs>
    <g clip-path="url(#p4117b286da)">
     <use style="fill:#7b699a;fill-opacity:0.7;" x="36.093" xlink:href="#m03afad1bde" y="64.610811"/>
     <use style="fill:#7b699a;fill-opacity:0.7;" x="36.744" xlink:href="#m03afad1bde" y="63.317165"/>
     <use style="fill:#7b699a;fill-opacity:0.7;" x="37.395" xlink:href="#m03afad1bde" y="63.452442"/>
     <use style="fill:#7b699a;fill-opacity:0.7;" x="38.046" xlink:href="#m03afad1bde" y="63.472554"/>
     <use style="fill:#7b699a;fill-opacity:0.7;" x="38.697" xlink:href="#m03afad1bde" y="63.378528"/>
     <use style="fill:#7b699a;fill-opacity:0.7;" x="39.348" xlink:href="#m03afad1bde" y="61.95335"/>
     <use style="fill:#7b699a;fill-opacity:0.7;" x="39.999" xlink:href="#m03afad1bde" y="61.790837"/>
     <use style="fill:#7b699a;fill-opacity:0.7;" x="40.65" xlink:href="#m03afad1bde" y="61.994322"/>
     <use style="fill:#7b699a;fill-opacity:0.7;" x="41.301" xlink:href="#m03afad1bde" y="63.191154"/>
     <use style="fill:#7b699a;fill-opacity:0.7;" x="41.952" xlink:href="#m03afad1bde" y="65.240843"/>
     <use style="fill:#7b699a;fill-opacity:0.7;" x="42.603" xlink:href="#m03afad1bde" y="64.075033"/>
     <use style="fill:#7b699a;fill-opacity:0.7;" x="43.254" xlink:href="#m03afad1bde" y="63.98688"/>
     <use style="fill:#7b699a;fill-opacity:0.7;" x="43.905" xlink:href="#m03afad1bde" y="66.652514"/>
     <use style="fill:#7b699a;fill-opacity:0.7;" x="44.556" xlink:href="#m03afad1bde" y="70.540245"/>
     <use style="fill:#7b699a;fill-opacity:0.7;" x="45.207" xlink:href="#m03afad1bde" y="72.83802"/>
     <use style="fill:#7b699a;fill-opacity:0.7;" x="45.858" xlink:href="#m03afad1bde" y="74.89579"/>
     <use style="fill:#7b699a;fill-opacity:0.7;" x="46.509" xlink:href="#m03afad1bde" y="77.161879"/>
     <use style="fill:#7b699a;fill-opacity:0.7;" x="47.16" xlink:href="#m03afad1bde" y="81.78538"/>
     <use style="fill:#7b699a;fill-opacity:0.7;" x="47.811" xlink:href="#m03afad1bde" y="86.810136"/>
     <use style="fill:#7b699a;fill-opacity:0.7;" x="48.462" xlink:href="#m03afad1bde" y="91.410864"/>
     <use style="fill:#7b699a;fill-opacity:0.7;" x="49.113" xlink:href="#m03afad1bde" y="93.99849"/>
     <use style="fill:#7b699a;fill-opacity:0.7;" x="49.764" xlink:href="#m03afad1bde" y="94.11152"/>
     <use style="fill:#7b699a;fill-opacity:0.7;" x="50.415" xlink:href="#m03afad1bde" y="96.235734"/>
     <use style="fill:#7b699a;fill-opacity:0.7;" x="51.066" xlink:href="#m03afad1bde" y="99.227312"/>
     <use style="fill:#7b699a;fill-opacity:0.7;" x="51.717" xlink:href="#m03afad1bde" y="101.317304"/>
     <use style="fill:#7b699a;fill-opacity:0.7;" x="52.368" xlink:href="#m03afad1bde" y="101.219616"/>
     <use style="fill:#7b699a;fill-opacity:0.7;" x="53.019" xlink:href="#m03afad1bde" y="97.60541"/>
     <use style="fill:#7b699a;fill-opacity:0.7;" x="53.67" xlink:href="#m03afad1bde" y="96.199925"/>
     <use style="fill:#7b699a;fill-opacity:0.7;" x="54.321" xlink:href="#m03afad1bde" y="95.713058"/>
     <use style="fill:#7b699a;fill-opacity:0.7;" x="54.972" xlink:href="#m03afad1bde" y="95.923031"/>
     <use style="fill:#7b699a;fill-opacity:0.7;" x="55.623" xlink:href="#m03afad1bde" y="98.61959"/>
     <use style="fill:#7b699a;fill-opacity:0.7;" x="56.274" xlink:href="#m03afad1bde" y="99.879539"/>
     <use style="fill:#7b699a;fill-opacity:0.7;" x="56.925" xlink:href="#m03afad1bde" y="104.688417"/>
     <use style="fill:#7b699a;fill-opacity:0.7;" x="57.576" xlink:href="#m03afad1bde" y="108.728971"/>
     <use style="fill:#7b699a;fill-opacity:0.7;" x="58.227" xlink:href="#m03afad1bde" y="113.357662"/>
     <use style="fill:#7b699a;fill-opacity:0.7;" x="58.878" xlink:href="#m03afad1bde" y="115.473979"/>
     <use style="fill:#7b699a;fill-opacity:0.7;" x="59.529" xlink:href="#m03afad1bde" y="119.385387"/>
     <use style="fill:#7b699a;fill-opacity:0.7;" x="60.18" xlink:href="#m03afad1bde" y="123.392097"/>
     <use style="fill:#7b699a;fill-opacity:0.7;" x="60.831" xlink:href="#m03afad1bde" y="124.336275"/>
     <use style="fill:#7b699a;fill-opacity:0.7;" x="61.482" xlink:href="#m03afad1bde" y="120.825409"/>
     <use style="fill:#7b699a;fill-opacity:0.7;" x="62.133" xlink:href="#m03afad1bde" y="116.063591"/>
     <use style="fill:#7b699a;fill-opacity:0.7;" x="62.784" xlink:href="#m03afad1bde" y="112.784901"/>
     <use style="fill:#7b699a;fill-opacity:0.7;" x="63.435" xlink:href="#m03afad1bde" y="108.341584"/>
     <use style="fill:#7b699a;fill-opacity:0.7;" x="64.086" xlink:href="#m03afad1bde" y="101.609526"/>
     <use style="fill:#7b699a;fill-opacity:0.7;" x="64.737" xlink:href="#m03afad1bde" y="95.21894"/>
     <use style="fill:#7b699a;fill-opacity:0.7;" x="65.388" xlink:href="#m03afad1bde" y="92.222384"/>
     <use style="fill:#7b699a;fill-opacity:0.7;" x="66.039" xlink:href="#m03afad1bde" y="91.357473"/>
     <use style="fill:#7b699a;fill-opacity:0.7;" x="66.69" xlink:href="#m03afad1bde" y="90.071566"/>
     <use style="fill:#7b699a;fill-opacity:0.7;" x="67.341" xlink:href="#m03afad1bde" y="88.022926"/>
     <use style="fill:#7b699a;fill-opacity:0.7;" x="67.992" xlink:href="#m03afad1bde" y="85.357641"/>
     <use style="fill:#7b699a;fill-opacity:0.7;" x="68.643" xlink:href="#m03afad1bde" y="81.651855"/>
     <use style="fill:#7b699a;fill-opacity:0.7;" x="69.294" xlink:href="#m03afad1bde" y="80.383378"/>
     <use style="fill:#7b699a;fill-opacity:0.7;" x="69.945" xlink:href="#m03afad1bde" y="80.124641"/>
     <use style="fill:#7b699a;fill-opacity:0.7;" x="70.596" xlink:href="#m03afad1bde" y="79.323594"/>
     <use style="fill:#7b699a;fill-opacity:0.7;" x="71.247" xlink:href="#m03afad1bde" y="78.686399"/>
     <use style="fill:#7b699a;fill-opacity:0.7;" x="71.898" xlink:href="#m03afad1bde" y="80.814892"/>
     <use style="fill:#7b699a;fill-opacity:0.7;" x="72.549" xlink:href="#m03afad1bde" y="80.637017"/>
     <use style="fill:#7b699a;fill-opacity:0.7;" x="73.2" xlink:href="#m03afad1bde" y="79.291536"/>
     <use style="fill:#7b699a;fill-opacity:0.7;" x="73.851" xlink:href="#m03afad1bde" y="74.584639"/>
     <use style="fill:#7b699a;fill-opacity:0.7;" x="74.502" xlink:href="#m03afad1bde" y="70.868735"/>
     <use style="fill:#7b699a;fill-opacity:0.7;" x="75.153" xlink:href="#m03afad1bde" y="68.037453"/>
     <use style="fill:#7b699a;fill-opacity:0.7;" x="75.804" xlink:href="#m03afad1bde" y="65.491205"/>
     <use style="fill:#7b699a;fill-opacity:0.7;" x="76.455" xlink:href="#m03afad1bde" y="65.362931"/>
     <use style="fill:#7b699a;fill-opacity:0.7;" x="77.106" xlink:href="#m03afad1bde" y="64.828083"/>
     <use style="fill:#7b699a;fill-opacity:0.7;" x="77.757" xlink:href="#m03afad1bde" y="62.824937"/>
     <use style="fill:#7b699a;fill-opacity:0.7;" x="78.408" xlink:href="#m03afad1bde" y="61.970345"/>
     <use style="fill:#7b699a;fill-opacity:0.7;" x="79.059" xlink:href="#m03afad1bde" y="59.247646"/>
     <use style="fill:#7b699a;fill-opacity:0.7;" x="79.71" xlink:href="#m03afad1bde" y="59.35328"/>
     <use style="fill:#7b699a;fill-opacity:0.7;" x="80.361" xlink:href="#m03afad1bde" y="60.147898"/>
     <use style="fill:#7b699a;fill-opacity:0.7;" x="81.012" xlink:href="#m03afad1bde" y="59.330032"/>
     <use style="fill:#7b699a;fill-opacity:0.7;" x="81.663" xlink:href="#m03afad1bde" y="58.88938"/>
     <use style="fill:#7b699a;fill-opacity:0.7;" x="82.314" xlink:href="#m03afad1bde" y="58.6295"/>
     <use style="fill:#7b699a;fill-opacity:0.7;" x="82.965" xlink:href="#m03afad1bde" y="58.068825"/>
     <use style="fill:#7b699a;fill-opacity:0.7;" x="83.616" xlink:href="#m03afad1bde" y="56.283342"/>
     <use style="fill:#7b699a;fill-opacity:0.7;" x="84.267" xlink:href="#m03afad1bde" y="54.215983"/>
     <use style="fill:#7b699a;fill-opacity:0.7;" x="84.918" xlink:href="#m03afad1bde" y="54.87751"/>
     <use style="fill:#7b699a;fill-opacity:0.7;" x="85.569" xlink:href="#m03afad1bde" y="57.764507"/>
     <use style="fill:#7b699a;fill-opacity:0.7;" x="86.22" xlink:href="#m03afad1bde" y="59.159979"/>
     <use style="fill:#7b699a;fill-opacity:0.7;" x="86.871" xlink:href="#m03afad1bde" y="59.21607"/>
     <use style="fill:#7b699a;fill-opacity:0.7;" x="87.522" xlink:href="#m03afad1bde" y="61.763508"/>
     <use style="fill:#7b699a;fill-opacity:0.7;" x="88.173" xlink:href="#m03afad1bde" y="66.370716"/>
     <use style="fill:#7b699a;fill-opacity:0.7;" x="88.824" xlink:href="#m03afad1bde" y="74.262543"/>
     <use style="fill:#7b699a;fill-opacity:0.7;" x="89.475" xlink:href="#m03afad1bde" y="78.941224"/>
     <use style="fill:#7b699a;fill-opacity:0.7;" x="90.126" xlink:href="#m03afad1bde" y="80.209466"/>
     <use style="fill:#7b699a;fill-opacity:0.7;" x="90.777" xlink:href="#m03afad1bde" y="82.903385"/>
     <use style="fill:#7b699a;fill-opacity:0.7;" x="91.428" xlink:href="#m03afad1bde" y="87.224786"/>
     <use style="fill:#7b699a;fill-opacity:0.7;" x="92.079" xlink:href="#m03afad1bde" y="92.147903"/>
     <use style="fill:#7b699a;fill-opacity:0.7;" x="92.73" xlink:href="#m03afad1bde" y="95.545826"/>
     <use style="fill:#7b699a;fill-opacity:0.7;" x="93.381" xlink:href="#m03afad1bde" y="99.392163"/>
     <use style="fill:#7b699a;fill-opacity:0.7;" x="94.032" xlink:href="#m03afad1bde" y="98.98972"/>
     <use style="fill:#7b699a;fill-opacity:0.7;" x="94.683" xlink:href="#m03afad1bde" y="95.202988"/>
     <use style="fill:#7b699a;fill-opacity:0.7;" x="95.334" xlink:href="#m03afad1bde" y="94.115205"/>
     <use style="fill:#7b699a;fill-opacity:0.7;" x="95.985" xlink:href="#m03afad1bde" y="90.325489"/>
     <use style="fill:#7b699a;fill-opacity:0.7;" x="96.636" xlink:href="#m03afad1bde" y="85.183822"/>
     <use style="fill:#7b699a;fill-opacity:0.7;" x="97.287" xlink:href="#m03afad1bde" y="84.726066"/>
     <use style="fill:#7b699a;fill-opacity:0.7;" x="97.938" xlink:href="#m03afad1bde" y="83.671209"/>
     <use style="fill:#7b699a;fill-opacity:0.7;" x="98.589" xlink:href="#m03afad1bde" y="81.842944"/>
     <use style="fill:#7b699a;fill-opacity:0.7;" x="99.24" xlink:href="#m03afad1bde" y="76.449676"/>
     <use style="fill:#7b699a;fill-opacity:0.7;" x="99.891" xlink:href="#m03afad1bde" y="70.750477"/>
     <use style="fill:#7b699a;fill-opacity:0.7;" x="100.542" xlink:href="#m03afad1bde" y="64.007192"/>
     <use style="fill:#7b699a;fill-opacity:0.7;" x="101.193" xlink:href="#m03afad1bde" y="58.987417"/>
     <use style="fill:#7b699a;fill-opacity:0.7;" x="101.844" xlink:href="#m03afad1bde" y="56.525059"/>
     <use style="fill:#7b699a;fill-opacity:0.7;" x="102.495" xlink:href="#m03afad1bde" y="53.064774"/>
     <use style="fill:#7b699a;fill-opacity:0.7;" x="103.146" xlink:href="#m03afad1bde" y="48.253678"/>
     <use style="fill:#7b699a;fill-opacity:0.7;" x="103.797" xlink:href="#m03afad1bde" y="46.728418"/>
     <use style="fill:#7b699a;fill-opacity:0.7;" x="104.448" xlink:href="#m03afad1bde" y="47.50819"/>
     <use style="fill:#7b699a;fill-opacity:0.7;" x="105.099" xlink:href="#m03afad1bde" y="48.374431"/>
     <use style="fill:#7b699a;fill-opacity:0.7;" x="105.75" xlink:href="#m03afad1bde" y="48.138627"/>
     <use style="fill:#7b699a;fill-opacity:0.7;" x="106.401" xlink:href="#m03afad1bde" y="47.735534"/>
     <use style="fill:#7b699a;fill-opacity:0.7;" x="107.052" xlink:href="#m03afad1bde" y="47.015346"/>
     <use style="fill:#7b699a;fill-opacity:0.7;" x="107.703" xlink:href="#m03afad1bde" y="49.183703"/>
     <use style="fill:#7b699a;fill-opacity:0.7;" x="108.354" xlink:href="#m03afad1bde" y="49.431333"/>
     <use style="fill:#7b699a;fill-opacity:0.7;" x="109.005" xlink:href="#m03afad1bde" y="48.114572"/>
     <use style="fill:#7b699a;fill-opacity:0.7;" x="109.656" xlink:href="#m03afad1bde" y="52.860479"/>
     <use style="fill:#7b699a;fill-opacity:0.7;" x="110.307" xlink:href="#m03afad1bde" y="53.223563"/>
     <use style="fill:#7b699a;fill-opacity:0.7;" x="110.958" xlink:href="#m03afad1bde" y="51.13944"/>
     <use style="fill:#7b699a;fill-opacity:0.7;" x="111.609" xlink:href="#m03afad1bde" y="48.327589"/>
     <use style="fill:#7b699a;fill-opacity:0.7;" x="112.26" xlink:href="#m03afad1bde" y="48.527553"/>
     <use style="fill:#7b699a;fill-opacity:0.7;" x="112.911" xlink:href="#m03afad1bde" y="51.727851"/>
     <use style="fill:#7b699a;fill-opacity:0.7;" x="113.562" xlink:href="#m03afad1bde" y="54.384877"/>
     <use style="fill:#7b699a;fill-opacity:0.7;" x="114.213" xlink:href="#m03afad1bde" y="56.745611"/>
     <use style="fill:#7b699a;fill-opacity:0.7;" x="114.864" xlink:href="#m03afad1bde" y="56.002744"/>
     <use style="fill:#7b699a;fill-opacity:0.7;" x="115.515" xlink:href="#m03afad1bde" y="55.668725"/>
     <use style="fill:#7b699a;fill-opacity:0.7;" x="116.166" xlink:href="#m03afad1bde" y="58.596644"/>
     <use style="fill:#7b699a;fill-opacity:0.7;" x="116.817" xlink:href="#m03afad1bde" y="60.696185"/>
     <use style="fill:#7b699a;fill-opacity:0.7;" x="117.468" xlink:href="#m03afad1bde" y="63.845773"/>
     <use style="fill:#7b699a;fill-opacity:0.7;" x="118.119" xlink:href="#m03afad1bde" y="61.592342"/>
     <use style="fill:#7b699a;fill-opacity:0.7;" x="118.77" xlink:href="#m03afad1bde" y="60.045913"/>
     <use style="fill:#7b699a;fill-opacity:0.7;" x="119.421" xlink:href="#m03afad1bde" y="58.852886"/>
     <use style="fill:#7b699a;fill-opacity:0.7;" x="120.072" xlink:href="#m03afad1bde" y="59.007518"/>
     <use style="fill:#7b699a;fill-opacity:0.7;" x="120.723" xlink:href="#m03afad1bde" y="60.635224"/>
     <use style="fill:#7b699a;fill-opacity:0.7;" x="121.374" xlink:href="#m03afad1bde" y="61.897834"/>
     <use style="fill:#7b699a;fill-opacity:0.7;" x="122.025" xlink:href="#m03afad1bde" y="57.363764"/>
     <use style="fill:#7b699a;fill-opacity:0.7;" x="122.676" xlink:href="#m03afad1bde" y="53.363307"/>
     <use style="fill:#7b699a;fill-opacity:0.7;" x="123.327" xlink:href="#m03afad1bde" y="53.245044"/>
     <use style="fill:#7b699a;fill-opacity:0.7;" x="123.978" xlink:href="#m03afad1bde" y="52.31925"/>
     <use style="fill:#7b699a;fill-opacity:0.7;" x="124.629" xlink:href="#m03afad1bde" y="49.171165"/>
     <use style="fill:#7b699a;fill-opacity:0.7;" x="125.28" xlink:href="#m03afad1bde" y="49.00183"/>
     <use style="fill:#7b699a;fill-opacity:0.7;" x="125.931" xlink:href="#m03afad1bde" y="48.279678"/>
     <use style="fill:#7b699a;fill-opacity:0.7;" x="126.582" xlink:href="#m03afad1bde" y="49.069541"/>
     <use style="fill:#7b699a;fill-opacity:0.7;" x="127.233" xlink:href="#m03afad1bde" y="51.253999"/>
     <use style="fill:#7b699a;fill-opacity:0.7;" x="127.884" xlink:href="#m03afad1bde" y="50.232096"/>
     <use style="fill:#7b699a;fill-opacity:0.7;" x="128.535" xlink:href="#m03afad1bde" y="51.546227"/>
     <use style="fill:#7b699a;fill-opacity:0.7;" x="129.186" xlink:href="#m03afad1bde" y="52.006554"/>
     <use style="fill:#7b699a;fill-opacity:0.7;" x="129.837" xlink:href="#m03afad1bde" y="52.470171"/>
     <use style="fill:#7b699a;fill-opacity:0.7;" x="130.488" xlink:href="#m03afad1bde" y="53.288184"/>
     <use style="fill:#7b699a;fill-opacity:0.7;" x="131.139" xlink:href="#m03afad1bde" y="52.794978"/>
     <use style="fill:#7b699a;fill-opacity:0.7;" x="131.79" xlink:href="#m03afad1bde" y="52.470384"/>
     <use style="fill:#7b699a;fill-opacity:0.7;" x="132.441" xlink:href="#m03afad1bde" y="51.666265"/>
     <use style="fill:#7b699a;fill-opacity:0.7;" x="133.092" xlink:href="#m03afad1bde" y="52.57493"/>
     <use style="fill:#7b699a;fill-opacity:0.7;" x="133.743" xlink:href="#m03afad1bde" y="50.012511"/>
     <use style="fill:#7b699a;fill-opacity:0.7;" x="134.394" xlink:href="#m03afad1bde" y="44.147636"/>
     <use style="fill:#7b699a;fill-opacity:0.7;" x="135.045" xlink:href="#m03afad1bde" y="43.033025"/>
     <use style="fill:#7b699a;fill-opacity:0.7;" x="135.696" xlink:href="#m03afad1bde" y="43.813829"/>
     <use style="fill:#7b699a;fill-opacity:0.7;" x="136.347" xlink:href="#m03afad1bde" y="43.600963"/>
     <use style="fill:#7b699a;fill-opacity:0.7;" x="136.998" xlink:href="#m03afad1bde" y="44.064344"/>
     <use style="fill:#7b699a;fill-opacity:0.7;" x="137.649" xlink:href="#m03afad1bde" y="44.759328"/>
     <use style="fill:#7b699a;fill-opacity:0.7;" x="138.3" xlink:href="#m03afad1bde" y="49.063257"/>
     <use style="fill:#7b699a;fill-opacity:0.7;" x="138.951" xlink:href="#m03afad1bde" y="55.459471"/>
     <use style="fill:#7b699a;fill-opacity:0.7;" x="139.602" xlink:href="#m03afad1bde" y="58.461892"/>
     <use style="fill:#7b699a;fill-opacity:0.7;" x="140.253" xlink:href="#m03afad1bde" y="56.335137"/>
     <use style="fill:#7b699a;fill-opacity:0.7;" x="140.904" xlink:href="#m03afad1bde" y="52.165341"/>
     <use style="fill:#7b699a;fill-opacity:0.7;" x="141.555" xlink:href="#m03afad1bde" y="47.993219"/>
     <use style="fill:#7b699a;fill-opacity:0.7;" x="142.206" xlink:href="#m03afad1bde" y="42.234194"/>
     <use style="fill:#7b699a;fill-opacity:0.7;" x="142.857" xlink:href="#m03afad1bde" y="43.41382"/>
     <use style="fill:#7b699a;fill-opacity:0.7;" x="143.508" xlink:href="#m03afad1bde" y="46.937688"/>
     <use style="fill:#7b699a;fill-opacity:0.7;" x="144.159" xlink:href="#m03afad1bde" y="50.632111"/>
     <use style="fill:#7b699a;fill-opacity:0.7;" x="144.81" xlink:href="#m03afad1bde" y="57.487386"/>
     <use style="fill:#7b699a;fill-opacity:0.7;" x="145.461" xlink:href="#m03afad1bde" y="61.878955"/>
     <use style="fill:#7b699a;fill-opacity:0.7;" x="146.112" xlink:href="#m03afad1bde" y="65.258079"/>
     <use style="fill:#7b699a;fill-opacity:0.7;" x="146.763" xlink:href="#m03afad1bde" y="67.728176"/>
     <use style="fill:#7b699a;fill-opacity:0.7;" x="147.414" xlink:href="#m03afad1bde" y="70.090289"/>
     <use style="fill:#7b699a;fill-opacity:0.7;" x="148.065" xlink:href="#m03afad1bde" y="71.390965"/>
     <use style="fill:#7b699a;fill-opacity:0.7;" x="148.716" xlink:href="#m03afad1bde" y="72.160608"/>
     <use style="fill:#7b699a;fill-opacity:0.7;" x="149.367" xlink:href="#m03afad1bde" y="72.501338"/>
     <use style="fill:#7b699a;fill-opacity:0.7;" x="150.018" xlink:href="#m03afad1bde" y="76.403178"/>
     <use style="fill:#7b699a;fill-opacity:0.7;" x="150.669" xlink:href="#m03afad1bde" y="79.300923"/>
     <use style="fill:#7b699a;fill-opacity:0.7;" x="151.32" xlink:href="#m03afad1bde" y="82.447797"/>
     <use style="fill:#7b699a;fill-opacity:0.7;" x="151.971" xlink:href="#m03afad1bde" y="88.544336"/>
     <use style="fill:#7b699a;fill-opacity:0.7;" x="152.622" xlink:href="#m03afad1bde" y="94.591587"/>
     <use style="fill:#7b699a;fill-opacity:0.7;" x="153.273" xlink:href="#m03afad1bde" y="96.918014"/>
     <use style="fill:#7b699a;fill-opacity:0.7;" x="153.924" xlink:href="#m03afad1bde" y="100.318431"/>
     <use style="fill:#7b699a;fill-opacity:0.7;" x="154.575" xlink:href="#m03afad1bde" y="104.894337"/>
     <use style="fill:#7b699a;fill-opacity:0.7;" x="155.226" xlink:href="#m03afad1bde" y="109.599193"/>
     <use style="fill:#7b699a;fill-opacity:0.7;" x="155.877" xlink:href="#m03afad1bde" y="113.239859"/>
     <use style="fill:#7b699a;fill-opacity:0.7;" x="156.528" xlink:href="#m03afad1bde" y="116.73429"/>
     <use style="fill:#7b699a;fill-opacity:0.7;" x="157.179" xlink:href="#m03afad1bde" y="119.384809"/>
     <use style="fill:#7b699a;fill-opacity:0.7;" x="157.83" xlink:href="#m03afad1bde" y="121.563326"/>
     <use style="fill:#7b699a;fill-opacity:0.7;" x="158.481" xlink:href="#m03afad1bde" y="124.335545"/>
     <use style="fill:#7b699a;fill-opacity:0.7;" x="159.132" xlink:href="#m03afad1bde" y="122.069721"/>
     <use style="fill:#7b699a;fill-opacity:0.7;" x="159.783" xlink:href="#m03afad1bde" y="118.435698"/>
     <use style="fill:#7b699a;fill-opacity:0.7;" x="160.434" xlink:href="#m03afad1bde" y="113.25981"/>
     <use style="fill:#7b699a;fill-opacity:0.7;" x="161.085" xlink:href="#m03afad1bde" y="109.491844"/>
     <use style="fill:#7b699a;fill-opacity:0.7;" x="161.736" xlink:href="#m03afad1bde" y="105.882198"/>
     <use style="fill:#7b699a;fill-opacity:0.7;" x="162.387" xlink:href="#m03afad1bde" y="106.301963"/>
     <use style="fill:#7b699a;fill-opacity:0.7;" x="163.038" xlink:href="#m03afad1bde" y="108.474773"/>
     <use style="fill:#7b699a;fill-opacity:0.7;" x="163.689" xlink:href="#m03afad1bde" y="106.83778"/>
     <use style="fill:#7b699a;fill-opacity:0.7;" x="164.34" xlink:href="#m03afad1bde" y="109.080339"/>
     <use style="fill:#7b699a;fill-opacity:0.7;" x="164.991" xlink:href="#m03afad1bde" y="112.052421"/>
     <use style="fill:#7b699a;fill-opacity:0.7;" x="165.642" xlink:href="#m03afad1bde" y="115.669339"/>
     <use style="fill:#7b699a;fill-opacity:0.7;" x="166.293" xlink:href="#m03afad1bde" y="115.497517"/>
     <use style="fill:#7b699a;fill-opacity:0.7;" x="166.944" xlink:href="#m03afad1bde" y="117.462083"/>
     <use style="fill:#7b699a;fill-opacity:0.7;" x="167.595" xlink:href="#m03afad1bde" y="118.456958"/>
     <use style="fill:#7b699a;fill-opacity:0.7;" x="168.246" xlink:href="#m03afad1bde" y="119.887678"/>
     <use style="fill:#7b699a;fill-opacity:0.7;" x="168.897" xlink:href="#m03afad1bde" y="120.122659"/>
     <use style="fill:#7b699a;fill-opacity:0.7;" x="169.548" xlink:href="#m03afad1bde" y="118.584099"/>
     <use style="fill:#7b699a;fill-opacity:0.7;" x="170.199" xlink:href="#m03afad1bde" y="114.755017"/>
     <use style="fill:#7b699a;fill-opacity:0.7;" x="170.85" xlink:href="#m03afad1bde" y="110.321565"/>
     <use style="fill:#7b699a;fill-opacity:0.7;" x="171.501" xlink:href="#m03afad1bde" y="105.880143"/>
     <use style="fill:#7b699a;fill-opacity:0.7;" x="172.152" xlink:href="#m03afad1bde" y="100.689445"/>
     <use style="fill:#7b699a;fill-opacity:0.7;" x="172.803" xlink:href="#m03afad1bde" y="97.579194"/>
     <use style="fill:#7b699a;fill-opacity:0.7;" x="173.454" xlink:href="#m03afad1bde" y="93.873336"/>
     <use style="fill:#7b699a;fill-opacity:0.7;" x="174.105" xlink:href="#m03afad1bde" y="93.196934"/>
     <use style="fill:#7b699a;fill-opacity:0.7;" x="174.756" xlink:href="#m03afad1bde" y="95.044913"/>
     <use style="fill:#7b699a;fill-opacity:0.7;" x="175.407" xlink:href="#m03afad1bde" y="96.085077"/>
     <use style="fill:#7b699a;fill-opacity:0.7;" x="176.058" xlink:href="#m03afad1bde" y="98.017621"/>
     <use style="fill:#7b699a;fill-opacity:0.7;" x="176.709" xlink:href="#m03afad1bde" y="100.360938"/>
     <use style="fill:#7b699a;fill-opacity:0.7;" x="177.36" xlink:href="#m03afad1bde" y="102.768834"/>
     <use style="fill:#7b699a;fill-opacity:0.7;" x="178.011" xlink:href="#m03afad1bde" y="109.591791"/>
     <use style="fill:#7b699a;fill-opacity:0.7;" x="178.662" xlink:href="#m03afad1bde" y="110.482952"/>
     <use style="fill:#7b699a;fill-opacity:0.7;" x="179.313" xlink:href="#m03afad1bde" y="104.439434"/>
     <use style="fill:#7b699a;fill-opacity:0.7;" x="179.964" xlink:href="#m03afad1bde" y="98.59278"/>
     <use style="fill:#7b699a;fill-opacity:0.7;" x="180.615" xlink:href="#m03afad1bde" y="94.18947"/>
     <use style="fill:#7b699a;fill-opacity:0.7;" x="181.266" xlink:href="#m03afad1bde" y="93.056216"/>
     <use style="fill:#7b699a;fill-opacity:0.7;" x="181.917" xlink:href="#m03afad1bde" y="91.593132"/>
     <use style="fill:#7b699a;fill-opacity:0.7;" x="182.568" xlink:href="#m03afad1bde" y="92.00855"/>
     <use style="fill:#7b699a;fill-opacity:0.7;" x="183.219" xlink:href="#m03afad1bde" y="90.311289"/>
     <use style="fill:#7b699a;fill-opacity:0.7;" x="183.87" xlink:href="#m03afad1bde" y="88.245086"/>
     <use style="fill:#7b699a;fill-opacity:0.7;" x="184.521" xlink:href="#m03afad1bde" y="85.471419"/>
     <use style="fill:#7b699a;fill-opacity:0.7;" x="185.172" xlink:href="#m03afad1bde" y="84.039509"/>
     <use style="fill:#7b699a;fill-opacity:0.7;" x="185.823" xlink:href="#m03afad1bde" y="84.506398"/>
     <use style="fill:#7b699a;fill-opacity:0.7;" x="186.474" xlink:href="#m03afad1bde" y="86.321257"/>
     <use style="fill:#7b699a;fill-opacity:0.7;" x="187.125" xlink:href="#m03afad1bde" y="86.94275"/>
     <use style="fill:#7b699a;fill-opacity:0.7;" x="187.776" xlink:href="#m03afad1bde" y="86.749608"/>
     <use style="fill:#7b699a;fill-opacity:0.7;" x="188.427" xlink:href="#m03afad1bde" y="87.303916"/>
     <use style="fill:#7b699a;fill-opacity:0.7;" x="189.078" xlink:href="#m03afad1bde" y="85.465825"/>
     <use style="fill:#7b699a;fill-opacity:0.7;" x="189.729" xlink:href="#m03afad1bde" y="89.261342"/>
     <use style="fill:#7b699a;fill-opacity:0.7;" x="190.38" xlink:href="#m03afad1bde" y="93.55094"/>
     <use style="fill:#7b699a;fill-opacity:0.7;" x="191.031" xlink:href="#m03afad1bde" y="94.643939"/>
     <use style="fill:#7b699a;fill-opacity:0.7;" x="191.682" xlink:href="#m03afad1bde" y="94.846374"/>
     <use style="fill:#7b699a;fill-opacity:0.7;" x="192.333" xlink:href="#m03afad1bde" y="90.392477"/>
     <use style="fill:#7b699a;fill-opacity:0.7;" x="192.984" xlink:href="#m03afad1bde" y="86.903612"/>
     <use style="fill:#7b699a;fill-opacity:0.7;" x="193.635" xlink:href="#m03afad1bde" y="82.523844"/>
     <use style="fill:#7b699a;fill-opacity:0.7;" x="194.286" xlink:href="#m03afad1bde" y="75.832744"/>
     <use style="fill:#7b699a;fill-opacity:0.7;" x="194.937" xlink:href="#m03afad1bde" y="74.190741"/>
     <use style="fill:#7b699a;fill-opacity:0.7;" x="195.588" xlink:href="#m03afad1bde" y="74.699507"/>
     <use style="fill:#7b699a;fill-opacity:0.7;" x="196.239" xlink:href="#m03afad1bde" y="76.742051"/>
     <use style="fill:#7b699a;fill-opacity:0.7;" x="196.89" xlink:href="#m03afad1bde" y="79.497721"/>
     <use style="fill:#7b699a;fill-opacity:0.7;" x="197.541" xlink:href="#m03afad1bde" y="82.531127"/>
     <use style="fill:#7b699a;fill-opacity:0.7;" x="198.192" xlink:href="#m03afad1bde" y="84.291415"/>
     <use style="fill:#7b699a;fill-opacity:0.7;" x="198.843" xlink:href="#m03afad1bde" y="84.713139"/>
     <use style="fill:#7b699a;fill-opacity:0.7;" x="199.494" xlink:href="#m03afad1bde" y="82.663625"/>
     <use style="fill:#7b699a;fill-opacity:0.7;" x="200.145" xlink:href="#m03afad1bde" y="78.530768"/>
     <use style="fill:#7b699a;fill-opacity:0.7;" x="200.796" xlink:href="#m03afad1bde" y="76.15812"/>
     <use style="fill:#7b699a;fill-opacity:0.7;" x="201.447" xlink:href="#m03afad1bde" y="74.077054"/>
     <use style="fill:#7b699a;fill-opacity:0.7;" x="202.098" xlink:href="#m03afad1bde" y="73.02106"/>
     <use style="fill:#7b699a;fill-opacity:0.7;" x="202.749" xlink:href="#m03afad1bde" y="69.695162"/>
     <use style="fill:#7b699a;fill-opacity:0.7;" x="203.4" xlink:href="#m03afad1bde" y="67.366674"/>
     <use style="fill:#7b699a;fill-opacity:0.7;" x="204.051" xlink:href="#m03afad1bde" y="68.616972"/>
     <use style="fill:#7b699a;fill-opacity:0.7;" x="204.702" xlink:href="#m03afad1bde" y="70.802977"/>
     <use style="fill:#7b699a;fill-opacity:0.7;" x="205.353" xlink:href="#m03afad1bde" y="74.409416"/>
     <use style="fill:#7b699a;fill-opacity:0.7;" x="206.004" xlink:href="#m03afad1bde" y="78.081056"/>
     <use style="fill:#7b699a;fill-opacity:0.7;" x="206.655" xlink:href="#m03afad1bde" y="82.789221"/>
     <use style="fill:#7b699a;fill-opacity:0.7;" x="207.306" xlink:href="#m03afad1bde" y="85.673929"/>
     <use style="fill:#7b699a;fill-opacity:0.7;" x="207.957" xlink:href="#m03afad1bde" y="86.21593"/>
     <use style="fill:#7b699a;fill-opacity:0.7;" x="208.608" xlink:href="#m03afad1bde" y="84.578125"/>
     <use style="fill:#7b699a;fill-opacity:0.7;" x="209.259" xlink:href="#m03afad1bde" y="80.630168"/>
     <use style="fill:#7b699a;fill-opacity:0.7;" x="209.91" xlink:href="#m03afad1bde" y="80.067487"/>
     <use style="fill:#7b699a;fill-opacity:0.7;" x="210.561" xlink:href="#m03afad1bde" y="81.986601"/>
     <use style="fill:#7b699a;fill-opacity:0.7;" x="211.212" xlink:href="#m03afad1bde" y="83.49911"/>
     <use style="fill:#7b699a;fill-opacity:0.7;" x="211.863" xlink:href="#m03afad1bde" y="86.734375"/>
     <use style="fill:#7b699a;fill-opacity:0.7;" x="212.514" xlink:href="#m03afad1bde" y="87.6296"/>
     <use style="fill:#7b699a;fill-opacity:0.7;" x="213.165" xlink:href="#m03afad1bde" y="90.252675"/>
     <use style="fill:#7b699a;fill-opacity:0.7;" x="213.816" xlink:href="#m03afad1bde" y="92.007105"/>
     <use style="fill:#7b699a;fill-opacity:0.7;" x="214.467" xlink:href="#m03afad1bde" y="91.800396"/>
     <use style="fill:#7b699a;fill-opacity:0.7;" x="215.118" xlink:href="#m03afad1bde" y="95.167906"/>
     <use style="fill:#7b699a;fill-opacity:0.7;" x="215.769" xlink:href="#m03afad1bde" y="98.508681"/>
     <use style="fill:#7b699a;fill-opacity:0.7;" x="216.42" xlink:href="#m03afad1bde" y="102.941325"/>
     <use style="fill:#7b699a;fill-opacity:0.7;" x="217.071" xlink:href="#m03afad1bde" y="106.656258"/>
     <use style="fill:#7b699a;fill-opacity:0.7;" x="217.722" xlink:href="#m03afad1bde" y="110.407041"/>
     <use style="fill:#7b699a;fill-opacity:0.7;" x="218.373" xlink:href="#m03afad1bde" y="114.656336"/>
     <use style="fill:#7b699a;fill-opacity:0.7;" x="219.024" xlink:href="#m03afad1bde" y="119.483319"/>
     <use style="fill:#7b699a;fill-opacity:0.7;" x="219.675" xlink:href="#m03afad1bde" y="121.279165"/>
     <use style="fill:#7b699a;fill-opacity:0.7;" x="220.326" xlink:href="#m03afad1bde" y="120.683446"/>
     <use style="fill:#7b699a;fill-opacity:0.7;" x="220.977" xlink:href="#m03afad1bde" y="119.70128"/>
     <use style="fill:#7b699a;fill-opacity:0.7;" x="221.628" xlink:href="#m03afad1bde" y="120.483393"/>
     <use style="fill:#7b699a;fill-opacity:0.7;" x="222.279" xlink:href="#m03afad1bde" y="120.054509"/>
     <use style="fill:#7b699a;fill-opacity:0.7;" x="222.93" xlink:href="#m03afad1bde" y="116.315657"/>
     <use style="fill:#7b699a;fill-opacity:0.7;" x="223.581" xlink:href="#m03afad1bde" y="111.074291"/>
     <use style="fill:#7b699a;fill-opacity:0.7;" x="224.232" xlink:href="#m03afad1bde" y="110.456019"/>
     <use style="fill:#7b699a;fill-opacity:0.7;" x="224.883" xlink:href="#m03afad1bde" y="108.41783"/>
     <use style="fill:#7b699a;fill-opacity:0.7;" x="225.534" xlink:href="#m03afad1bde" y="106.230823"/>
     <use style="fill:#7b699a;fill-opacity:0.7;" x="226.185" xlink:href="#m03afad1bde" y="107.309706"/>
     <use style="fill:#7b699a;fill-opacity:0.7;" x="226.836" xlink:href="#m03afad1bde" y="105.36201"/>
     <use style="fill:#7b699a;fill-opacity:0.7;" x="227.487" xlink:href="#m03afad1bde" y="105.226842"/>
     <use style="fill:#7b699a;fill-opacity:0.7;" x="228.138" xlink:href="#m03afad1bde" y="103.675137"/>
     <use style="fill:#7b699a;fill-opacity:0.7;" x="228.789" xlink:href="#m03afad1bde" y="103.216578"/>
     <use style="fill:#7b699a;fill-opacity:0.7;" x="229.44" xlink:href="#m03afad1bde" y="104.668203"/>
     <use style="fill:#7b699a;fill-opacity:0.7;" x="230.091" xlink:href="#m03afad1bde" y="114.456203"/>
     <use style="fill:#7b699a;fill-opacity:0.7;" x="230.742" xlink:href="#m03afad1bde" y="120.386753"/>
     <use style="fill:#7b699a;fill-opacity:0.7;" x="231.393" xlink:href="#m03afad1bde" y="122.730381"/>
     <use style="fill:#7b699a;fill-opacity:0.7;" x="232.044" xlink:href="#m03afad1bde" y="117.189463"/>
     <use style="fill:#7b699a;fill-opacity:0.7;" x="232.695" xlink:href="#m03afad1bde" y="111.372763"/>
     <use style="fill:#7b699a;fill-opacity:0.7;" x="233.346" xlink:href="#m03afad1bde" y="108.753743"/>
     <use style="fill:#7b699a;fill-opacity:0.7;" x="233.997" xlink:href="#m03afad1bde" y="105.858532"/>
     <use style="fill:#7b699a;fill-opacity:0.7;" x="234.648" xlink:href="#m03afad1bde" y="104.938215"/>
     <use style="fill:#7b699a;fill-opacity:0.7;" x="235.299" xlink:href="#m03afad1bde" y="103.892349"/>
     <use style="fill:#7b699a;fill-opacity:0.7;" x="235.95" xlink:href="#m03afad1bde" y="102.527421"/>
     <use style="fill:#7b699a;fill-opacity:0.7;" x="236.601" xlink:href="#m03afad1bde" y="102.236602"/>
     <use style="fill:#7b699a;fill-opacity:0.7;" x="237.252" xlink:href="#m03afad1bde" y="105.371452"/>
     <use style="fill:#7b699a;fill-opacity:0.7;" x="237.903" xlink:href="#m03afad1bde" y="105.94535"/>
     <use style="fill:#7b699a;fill-opacity:0.7;" x="238.554" xlink:href="#m03afad1bde" y="108.771351"/>
     <use style="fill:#7b699a;fill-opacity:0.7;" x="239.205" xlink:href="#m03afad1bde" y="111.135524"/>
     <use style="fill:#7b699a;fill-opacity:0.7;" x="239.856" xlink:href="#m03afad1bde" y="111.03584"/>
     <use style="fill:#7b699a;fill-opacity:0.7;" x="240.507" xlink:href="#m03afad1bde" y="110.077415"/>
     <use style="fill:#7b699a;fill-opacity:0.7;" x="241.158" xlink:href="#m03afad1bde" y="110.104795"/>
     <use style="fill:#7b699a;fill-opacity:0.7;" x="241.809" xlink:href="#m03afad1bde" y="109.971023"/>
     <use style="fill:#7b699a;fill-opacity:0.7;" x="242.46" xlink:href="#m03afad1bde" y="112.221816"/>
     <use style="fill:#7b699a;fill-opacity:0.7;" x="243.111" xlink:href="#m03afad1bde" y="114.190909"/>
     <use style="fill:#7b699a;fill-opacity:0.7;" x="243.762" xlink:href="#m03afad1bde" y="115.069441"/>
     <use style="fill:#7b699a;fill-opacity:0.7;" x="244.413" xlink:href="#m03afad1bde" y="113.355762"/>
     <use style="fill:#7b699a;fill-opacity:0.7;" x="245.064" xlink:href="#m03afad1bde" y="113.664683"/>
     <use style="fill:#7b699a;fill-opacity:0.7;" x="245.715" xlink:href="#m03afad1bde" y="113.765593"/>
     <use style="fill:#7b699a;fill-opacity:0.7;" x="246.366" xlink:href="#m03afad1bde" y="111.523016"/>
     <use style="fill:#7b699a;fill-opacity:0.7;" x="247.017" xlink:href="#m03afad1bde" y="107.709495"/>
     <use style="fill:#7b699a;fill-opacity:0.7;" x="247.668" xlink:href="#m03afad1bde" y="104.515922"/>
     <use style="fill:#7b699a;fill-opacity:0.7;" x="248.319" xlink:href="#m03afad1bde" y="100.096232"/>
     <use style="fill:#7b699a;fill-opacity:0.7;" x="248.97" xlink:href="#m03afad1bde" y="97.822379"/>
     <use style="fill:#7b699a;fill-opacity:0.7;" x="249.621" xlink:href="#m03afad1bde" y="98.290647"/>
     <use style="fill:#7b699a;fill-opacity:0.7;" x="250.272" xlink:href="#m03afad1bde" y="98.399314"/>
     <use style="fill:#7b699a;fill-opacity:0.7;" x="250.923" xlink:href="#m03afad1bde" y="92.682357"/>
     <use style="fill:#7b699a;fill-opacity:0.7;" x="251.574" xlink:href="#m03afad1bde" y="88.46446"/>
     <use style="fill:#7b699a;fill-opacity:0.7;" x="252.225" xlink:href="#m03afad1bde" y="87.11306"/>
     <use style="fill:#7b699a;fill-opacity:0.7;" x="252.876" xlink:href="#m03afad1bde" y="87.615457"/>
     <use style="fill:#7b699a;fill-opacity:0.7;" x="253.527" xlink:href="#m03afad1bde" y="88.428776"/>
     <use style="fill:#7b699a;fill-opacity:0.7;" x="254.178" xlink:href="#m03afad1bde" y="87.062029"/>
     <use style="fill:#7b699a;fill-opacity:0.7;" x="254.829" xlink:href="#m03afad1bde" y="88.291052"/>
     <use style="fill:#7b699a;fill-opacity:0.7;" x="255.48" xlink:href="#m03afad1bde" y="89.07218"/>
     <use style="fill:#7b699a;fill-opacity:0.7;" x="256.131" xlink:href="#m03afad1bde" y="88.383276"/>
     <use style="fill:#7b699a;fill-opacity:0.7;" x="256.782" xlink:href="#m03afad1bde" y="90.149808"/>
     <use style="fill:#7b699a;fill-opacity:0.7;" x="257.433" xlink:href="#m03afad1bde" y="91.092041"/>
     <use style="fill:#7b699a;fill-opacity:0.7;" x="258.084" xlink:href="#m03afad1bde" y="91.499191"/>
     <use style="fill:#7b699a;fill-opacity:0.7;" x="258.735" xlink:href="#m03afad1bde" y="90.153143"/>
    </g>
   </g>
   <g id="matplotlib.axis_1">
    <g id="xtick_1">
     <g id="line2d_1">
      <defs>
       <path d="M 0 0 
L 0 3.5 
" id="m7f853d93fc" style="stroke:#4c4c4c;stroke-width:2;"/>
      </defs>
      <g>
       <use style="fill:#4c4c4c;stroke:#4c4c4c;stroke-width:2;" x="36" xlink:href="#m7f853d93fc" y="126"/>
      </g>
     </g>
     <g id="text_1">
      <!-- 0 -->
      <g style="fill:#4c4c4c;" transform="translate(33.775625 137.2425)scale(0.08 -0.08)">
       <defs>
        <path d="M 1778 -122 
Q 1041 -122 639 478 
Q 238 1078 238 2188 
Q 238 3297 639 3898 
Q 1041 4500 1778 4500 
Q 2522 4500 2922 3898 
Q 3322 3297 3322 2188 
Q 3322 1078 2922 478 
Q 2522 -122 1778 -122 
L 1778 -122 
z
M 1778 384 
Q 2253 384 2490 834 
Q 2728 1284 2725 2188 
Q 2728 3091 2490 3542 
Q 2253 3994 1778 3994 
Q 1306 3994 1072 3542 
Q 838 3091 834 2188 
Q 838 1284 1072 834 
Q 1306 384 1778 384 
L 1778 384 
z
" id="Helvetica-30" transform="scale(0.015625)"/>
       </defs>
       <use xlink:href="#Helvetica-30"/>
      </g>
     </g>
    </g>
    <g id="xtick_2">
     <g id="line2d_2">
      <g>
       <use style="fill:#4c4c4c;stroke:#4c4c4c;stroke-width:2;" x="259.2" xlink:href="#m7f853d93fc" y="126"/>
      </g>
     </g>
     <g id="text_2">
      <!-- 2 -->
      <g style="fill:#4c4c4c;" transform="translate(256.975625 137.2425)scale(0.08 -0.08)">
       <defs>
        <path d="M 3247 3175 
Q 3247 2678 2992 2358 
Q 2738 2038 2034 1650 
Q 1272 1231 994 884 
Q 878 734 803 547 
L 803 547 
L 3247 547 
L 3247 0 
L 166 0 
L 166 0 
Q 166 709 519 1161 
Q 872 1613 1844 2147 
Q 2316 2409 2487 2628 
Q 2659 2847 2659 3191 
Q 2659 3550 2403 3778 
Q 2147 4006 1747 4006 
Q 1328 4006 1089 3720 
Q 850 3434 834 2909 
L 834 2909 
L 288 2909 
L 288 2909 
Q 275 3653 684 4076 
Q 1094 4500 1825 4500 
Q 2450 4500 2850 4128 
Q 3247 3759 3247 3175 
z
" id="Helvetica-32" transform="scale(0.015625)"/>
       </defs>
       <use xlink:href="#Helvetica-32"/>
      </g>
     </g>
    </g>
    <g id="text_3">
     <!-- Time / min -->
     <g transform="translate(128.933125 147.6375)scale(0.08 -0.08)">
      <defs>
       <path d="M 1644 0 
L 1644 4044 
L 1644 4044 
L 91 4044 
L 91 4044 
L 91 4319 
L 91 4594 
L 91 4594 
L 3819 4594 
L 3819 4594 
L 3819 4319 
L 3819 4044 
L 3819 4044 
L 2266 4044 
L 2266 4044 
L 2266 0 
L 2266 0 
L 1956 0 
L 1644 0 
L 1644 0 
z
" id="Helvetica-54" transform="scale(0.015625)"/>
       <path d="M 434 0 
L 434 3344 
L 434 3344 
L 716 3344 
L 997 3344 
L 997 3344 
L 997 0 
L 997 0 
L 716 0 
L 434 0 
L 434 0 
z
M 428 4594 
L 1003 4594 
L 1003 3956 
L 428 3956 
L 428 4594 
z
" id="Helvetica-69" transform="scale(0.015625)"/>
       <path d="M 416 0 
L 416 3344 
L 416 3344 
L 681 3344 
L 950 3344 
L 950 3344 
L 950 2847 
L 950 2847 
L 950 2847 
L 1066 2997 
Q 1444 3444 1969 3444 
Q 2419 3444 2684 3178 
Q 2803 3059 2869 2906 
L 2869 2906 
L 2959 3022 
Q 3322 3444 3825 3444 
Q 4350 3444 4636 3158 
Q 4922 2872 4922 2347 
L 4922 0 
L 4922 0 
L 4641 0 
L 4359 0 
L 4359 0 
L 4359 2156 
Q 4359 2538 4203 2734 
Q 4047 2931 3747 2931 
Q 3381 2931 3165 2647 
Q 2950 2363 2950 1878 
L 2950 1878 
L 2950 0 
L 2950 0 
L 2669 0 
L 2388 0 
L 2388 0 
L 2388 2291 
Q 2388 2603 2245 2767 
Q 2103 2931 1831 2931 
Q 1456 2931 1217 2612 
Q 978 2294 978 1791 
L 978 1791 
L 978 0 
L 978 0 
L 697 0 
L 416 0 
L 416 0 
z
" id="Helvetica-6d" transform="scale(0.015625)"/>
       <path d="M 1778 -91 
Q 1069 -91 662 359 
Q 256 809 256 1603 
Q 256 2447 686 2945 
Q 1116 3444 1841 3444 
Q 2497 3444 2900 2956 
Q 3303 2469 3303 1675 
L 3297 1475 
L 3297 1475 
L 853 1475 
L 853 1475 
Q 888 975 1081 713 
Q 1319 394 1831 394 
Q 2153 394 2393 575 
Q 2634 756 2688 1038 
L 2688 1038 
L 3244 1038 
L 3244 1038 
Q 3119 488 2744 198 
Q 2369 -91 1778 -91 
z
M 2716 1928 
L 2716 1928 
Q 2691 2394 2484 2653 
Q 2256 2941 1816 2941 
Q 1372 2941 1106 2609 
Q 897 2350 853 1928 
L 853 1928 
L 2716 1928 
z
" id="Helvetica-65" transform="scale(0.015625)"/>
       <path id="Helvetica-20" transform="scale(0.015625)"/>
       <path d="M 1884 4713 
L 322 -125 
L -106 -125 
L 1456 4713 
L 1884 4713 
z
" id="Helvetica-2f" transform="scale(0.015625)"/>
       <path d="M 416 0 
L 416 3344 
L 416 3344 
L 681 3344 
L 950 3344 
L 950 3344 
L 950 2850 
L 950 2850 
L 950 2850 
L 1075 3016 
Q 1441 3444 1991 3444 
Q 2544 3444 2844 3144 
Q 3144 2844 3144 2291 
L 3144 0 
L 3144 0 
L 2863 0 
L 2581 0 
L 2581 0 
L 2581 2100 
Q 2581 2541 2411 2736 
Q 2241 2931 1859 2931 
Q 1453 2931 1215 2623 
Q 978 2316 978 1791 
L 978 1791 
L 978 0 
L 978 0 
L 697 0 
L 416 0 
L 416 0 
z
" id="Helvetica-6e" transform="scale(0.015625)"/>
      </defs>
      <use xlink:href="#Helvetica-54"/>
      <use x="61.083984" xlink:href="#Helvetica-69"/>
      <use x="83.300781" xlink:href="#Helvetica-6d"/>
      <use x="166.601562" xlink:href="#Helvetica-65"/>
      <use x="222.216797" xlink:href="#Helvetica-20"/>
      <use x="250" xlink:href="#Helvetica-2f"/>
      <use x="277.783203" xlink:href="#Helvetica-20"/>
      <use x="305.566406" xlink:href="#Helvetica-6d"/>
      <use x="388.867188" xlink:href="#Helvetica-69"/>
      <use x="411.083984" xlink:href="#Helvetica-6e"/>
     </g>
    </g>
   </g>
   <g id="matplotlib.axis_2">
    <g id="ytick_1">
     <g id="line2d_3">
      <defs>
       <path d="M 0 0 
L -3.5 0 
" id="m1c2e4a6d61" style="stroke:#4c4c4c;stroke-width:2;"/>
      </defs>
      <g>
       <use style="fill:#4c4c4c;stroke:#4c4c4c;stroke-width:2;" x="36" xlink:href="#m1c2e4a6d61" y="17.28"/>
      </g>
     </g>
     <g id="text_4">
      <!-- 1 -->
      <g style="fill:#4c4c4c;" transform="translate(26.05125 20.15125)scale(0.08 -0.08)">
       <defs>
        <path d="M 1700 0 
L 1700 3194 
L 1700 3194 
L 647 3194 
L 647 3644 
Q 1113 3634 1403 3844 
Q 1697 4056 1838 4500 
L 2297 4500 
L 2297 4500 
L 2297 0 
L 2297 0 
L 2000 0 
L 1700 0 
L 1700 0 
z
" id="Helvetica-31" transform="scale(0.015625)"/>
       </defs>
       <use xlink:href="#Helvetica-31"/>
      </g>
     </g>
    </g>
    <g id="text_5">
     <!-- Position / m -->
     <g transform="translate(21.39875 92.535625)rotate(-90)scale(0.08 -0.08)">
      <defs>
       <path d="M 550 0 
L 550 4594 
L 550 4594 
L 859 4594 
L 859 4594 
L 2559 4594 
Q 3228 4594 3604 4258 
Q 3981 3922 3981 3328 
Q 3981 2675 3604 2306 
Q 3228 1938 2559 1938 
Q 1681 1941 1172 1931 
L 1172 1931 
L 1172 0 
L 1172 0 
L 863 0 
L 550 0 
L 550 0 
z
M 1172 2469 
L 1172 2469 
L 2406 2469 
Q 2891 2469 3116 2673 
Q 3341 2878 3341 3316 
Q 3341 3703 3116 3883 
Q 2891 4063 2406 4063 
L 1172 4063 
L 1172 4063 
L 1172 2469 
z
" id="Helvetica-50" transform="scale(0.015625)"/>
       <path d="M 1778 -91 
Q 1084 -91 654 396 
Q 225 884 225 1675 
Q 225 2469 654 2956 
Q 1084 3444 1778 3444 
Q 2478 3444 2906 2956 
Q 3334 2469 3334 1675 
Q 3334 884 2906 396 
Q 2478 -91 1778 -91 
L 1778 -91 
z
M 1778 394 
Q 2222 394 2484 741 
Q 2747 1088 2747 1675 
Q 2747 2263 2484 2611 
Q 2222 2959 1778 2959 
Q 1334 2959 1073 2611 
Q 813 2263 813 1675 
Q 813 1088 1073 741 
Q 1334 394 1778 394 
L 1778 394 
z
" id="Helvetica-6f" transform="scale(0.015625)"/>
       <path d="M 2331 2375 
L 2331 2375 
Q 2306 2653 2104 2806 
Q 1903 2959 1563 2959 
Q 1213 2959 1030 2837 
Q 847 2716 847 2481 
Q 847 2303 975 2213 
Q 1103 2122 1484 2031 
L 2066 1894 
Q 2553 1775 2763 1566 
Q 2969 1359 2969 988 
Q 2969 491 2611 200 
Q 2253 -91 1644 -91 
Q 938 -91 591 189 
Q 244 469 206 1069 
L 206 1069 
L 747 1069 
L 747 1069 
Q 788 713 998 553 
Q 1209 394 1644 394 
Q 2022 394 2217 537 
Q 2413 681 2413 956 
Q 2413 1131 2284 1222 
Q 2156 1313 1769 1403 
L 1188 1541 
Q 716 1653 516 1856 
Q 316 2056 316 2419 
Q 316 2891 652 3167 
Q 988 3444 1563 3444 
Q 2147 3444 2492 3159 
Q 2838 2875 2859 2375 
L 2859 2375 
L 2331 2375 
z
" id="Helvetica-73" transform="scale(0.015625)"/>
       <path d="M 1644 3 
Q 1356 -41 1225 -41 
Q 856 -41 704 121 
Q 553 284 553 681 
L 553 2884 
L 553 2884 
L 91 2884 
L 91 3344 
L 553 3344 
L 553 3344 
L 553 4281 
L 1116 4281 
L 1116 3344 
L 1116 3344 
L 1644 3344 
L 1644 2884 
L 1116 2884 
L 1116 2884 
L 1116 681 
Q 1116 569 1205 503 
Q 1294 438 1444 438 
L 1644 438 
L 1644 3 
z
" id="Helvetica-74" transform="scale(0.015625)"/>
      </defs>
      <use xlink:href="#Helvetica-50"/>
      <use x="66.699219" xlink:href="#Helvetica-6f"/>
      <use x="122.314453" xlink:href="#Helvetica-73"/>
      <use x="172.314453" xlink:href="#Helvetica-69"/>
      <use x="194.53125" xlink:href="#Helvetica-74"/>
      <use x="222.314453" xlink:href="#Helvetica-69"/>
      <use x="244.53125" xlink:href="#Helvetica-6f"/>
      <use x="300.146484" xlink:href="#Helvetica-6e"/>
      <use x="355.761719" xlink:href="#Helvetica-20"/>
      <use x="383.544922" xlink:href="#Helvetica-2f"/>
      <use x="411.328125" xlink:href="#Helvetica-20"/>
      <use x="439.111328" xlink:href="#Helvetica-6d"/>
     </g>
    </g>
   </g>
   <g id="patch_3">
    <path d="M 36 126 
L 36 17.28 
" style="fill:none;stroke:#4c4c4c;stroke-linecap:square;stroke-linejoin:miter;stroke-width:2;"/>
   </g>
   <g id="patch_4">
    <path d="M 259.2 126 
L 259.2 17.28 
" style="fill:none;"/>
   </g>
   <g id="patch_5">
    <path d="M 36 126 
L 259.2 126 
" style="fill:none;stroke:#4c4c4c;stroke-linecap:square;stroke-linejoin:miter;stroke-width:2;"/>
   </g>
   <g id="patch_6">
    <path d="M 36 17.28 
L 259.2 17.28 
" style="fill:none;"/>
   </g>
  </g>
 </g>
 <defs>
  <clipPath id="p4117b286da">
   <rect height="108.72" width="223.2" x="36" y="17.28"/>
  </clipPath>
 </defs>
</svg>
