<?xml version="1.0" encoding="utf-8" standalone="no"?>
<!DOCTYPE svg PUBLIC "-//W3C//DTD SVG 1.1//EN"
  "http://www.w3.org/Graphics/SVG/1.1/DTD/svg11.dtd">
<svg height="144pt" version="1.1" viewBox="0 0 144 144" width="144pt" xmlns="http://www.w3.org/2000/svg" xmlns:xlink="http://www.w3.org/1999/xlink">
 <metadata>
  <rdf:RDF xmlns:cc="http://creativecommons.org/ns#" xmlns:dc="http://purl.org/dc/elements/1.1/" xmlns:rdf="http://www.w3.org/1999/02/22-rdf-syntax-ns#">
   <cc:Work>
    <dc:type rdf:resource="http://purl.org/dc/dcmitype/StillImage"/>
    <dc:date>2022-07-07T02:50:32.940249</dc:date>
    <dc:format>image/svg+xml</dc:format>
    <dc:creator>
     <cc:Agent>
      <dc:title>Matplotlib v3.4.3, https://matplotlib.org/</dc:title>
     </cc:Agent>
    </dc:creator>
   </cc:Work>
  </rdf:RDF>
 </metadata>
 <defs>
  <style type="text/css">*{stroke-linecap:butt;stroke-linejoin:round;}</style>
 </defs>
 <g id="figure_1">
  <g id="patch_1">
   <path d="M 0 144 
L 144 144 
L 144 0 
L 0 0 
z
" style="fill:none;"/>
  </g>
  <g id="axes_1">
   <g id="patch_2">
    <path d="M 18 126 
L 129.6 126 
L 129.6 17.28 
L 18 17.28 
z
" style="fill:none;"/>
   </g>
   <g id="patch_3">
    <path clip-path="url(#pba4c022872)" d="M 18 126 
L 21.342828 126 
L 21.342828 98.906497 
L 18 98.906497 
z
" style="fill:#37738f;opacity:0.8;"/>
   </g>
   <g id="patch_4">
    <path clip-path="url(#pba4c022872)" d="M 21.342828 126 
L 24.685655 126 
L 24.685655 49.989151 
L 21.342828 49.989151 
z
" style="fill:#37738f;opacity:0.8;"/>
   </g>
   <g id="patch_5">
    <path clip-path="url(#pba4c022872)" d="M 24.685655 126 
L 28.028483 126 
L 28.028483 27.686247 
L 24.685655 27.686247 
z
" style="fill:#37738f;opacity:0.8;"/>
   </g>
   <g id="patch_6">
    <path clip-path="url(#pba4c022872)" d="M 28.028483 126 
L 31.371311 126 
L 31.371311 17.28 
L 28.028483 17.28 
z
" style="fill:#37738f;opacity:0.8;"/>
   </g>
   <g id="patch_7">
    <path clip-path="url(#pba4c022872)" d="M 31.371311 126 
L 34.714138 126 
L 34.714138 24.998188 
L 31.371311 24.998188 
z
" style="fill:#37738f;opacity:0.8;"/>
   </g>
   <g id="patch_8">
    <path clip-path="url(#pba4c022872)" d="M 34.714138 126 
L 38.056966 126 
L 38.056966 30.826752 
L 34.714138 30.826752 
z
" style="fill:#37738f;opacity:0.8;"/>
   </g>
   <g id="patch_9">
    <path clip-path="url(#pba4c022872)" d="M 38.056966 126 
L 41.399793 126 
L 41.399793 42.803251 
L 38.056966 42.803251 
z
" style="fill:#37738f;opacity:0.8;"/>
   </g>
   <g id="patch_10">
    <path clip-path="url(#pba4c022872)" d="M 41.399793 126 
L 44.742621 126 
L 44.742621 55.285425 
L 41.399793 55.285425 
z
" style="fill:#37738f;opacity:0.8;"/>
   </g>
   <g id="patch_11">
    <path clip-path="url(#pba4c022872)" d="M 44.742621 126 
L 48.085449 126 
L 48.085449 63.110071 
L 44.742621 63.110071 
z
" style="fill:#37738f;opacity:0.8;"/>
   </g>
   <g id="patch_12">
    <path clip-path="url(#pba4c022872)" d="M 48.085449 126 
L 51.428276 126 
L 51.428276 73.596162 
L 48.085449 73.596162 
z
" style="fill:#37738f;opacity:0.8;"/>
   </g>
   <g id="patch_13">
    <path clip-path="url(#pba4c022872)" d="M 51.428276 126 
L 54.771104 126 
L 54.771104 84.800842 
L 51.428276 84.800842 
z
" style="fill:#37738f;opacity:0.8;"/>
   </g>
   <g id="patch_14">
    <path clip-path="url(#pba4c022872)" d="M 54.771104 126 
L 58.113932 126 
L 58.113932 92.492416 
L 54.771104 92.492416 
z
" style="fill:#37738f;opacity:0.8;"/>
   </g>
   <g id="patch_15">
    <path clip-path="url(#pba4c022872)" d="M 58.113932 126 
L 61.456759 126 
L 61.456759 97.868534 
L 58.113932 97.868534 
z
" style="fill:#37738f;opacity:0.8;"/>
   </g>
   <g id="patch_16">
    <path clip-path="url(#pba4c022872)" d="M 61.456759 126 
L 64.799587 126 
L 64.799587 104.442301 
L 61.456759 104.442301 
z
" style="fill:#37738f;opacity:0.8;"/>
   </g>
   <g id="patch_17">
    <path clip-path="url(#pba4c022872)" d="M 64.799587 126 
L 68.142415 126 
L 68.142415 109.019985 
L 64.799587 109.019985 
z
" style="fill:#37738f;opacity:0.8;"/>
   </g>
   <g id="patch_18">
    <path clip-path="url(#pba4c022872)" d="M 68.142415 126 
L 71.485242 126 
L 71.485242 113.863814 
L 68.142415 113.863814 
z
" style="fill:#37738f;opacity:0.8;"/>
   </g>
   <g id="patch_19">
    <path clip-path="url(#pba4c022872)" d="M 71.485242 126 
L 74.82807 126 
L 74.82807 117.243848 
L 71.485242 117.243848 
z
" style="fill:#37738f;opacity:0.8;"/>
   </g>
   <g id="patch_20">
    <path clip-path="url(#pba4c022872)" d="M 74.82807 126 
L 78.170898 126 
L 78.170898 119.53269 
L 74.82807 119.53269 
z
" style="fill:#37738f;opacity:0.8;"/>
   </g>
   <g id="patch_21">
    <path clip-path="url(#pba4c022872)" d="M 78.170898 126 
L 81.513725 126 
L 81.513725 121.582002 
L 78.170898 121.582002 
z
" style="fill:#37738f;opacity:0.8;"/>
   </g>
   <g id="patch_22">
    <path clip-path="url(#pba4c022872)" d="M 81.513725 126 
L 84.856553 126 
L 84.856553 125.787084 
L 81.513725 125.787084 
z
" style="fill:#37738f;opacity:0.8;"/>
   </g>
   <g id="patch_23">
    <path clip-path="url(#pba4c022872)" d="M 84.856553 126 
L 88.19938 126 
L 88.19938 126 
L 84.856553 126 
z
" style="fill:#37738f;opacity:0.8;"/>
   </g>
   <g id="patch_24">
    <path clip-path="url(#pba4c022872)" d="M 88.19938 126 
L 91.542208 126 
L 91.542208 126 
L 88.19938 126 
z
" style="fill:#37738f;opacity:0.8;"/>
   </g>
   <g id="patch_25">
    <path clip-path="url(#pba4c022872)" d="M 91.542208 126 
L 94.885036 126 
L 94.885036 126 
L 91.542208 126 
z
" style="fill:#37738f;opacity:0.8;"/>
   </g>
   <g id="patch_26">
    <path clip-path="url(#pba4c022872)" d="M 94.885036 126 
L 98.227863 126 
L 98.227863 126 
L 94.885036 126 
z
" style="fill:#37738f;opacity:0.8;"/>
   </g>
   <g id="patch_27">
    <path clip-path="url(#pba4c022872)" d="M 98.227863 126 
L 101.570691 126 
L 101.570691 126 
L 98.227863 126 
z
" style="fill:#37738f;opacity:0.8;"/>
   </g>
   <g id="patch_28">
    <path clip-path="url(#pba4c022872)" d="M 101.570691 126 
L 104.913519 126 
L 104.913519 126 
L 101.570691 126 
z
" style="fill:#37738f;opacity:0.8;"/>
   </g>
   <g id="patch_29">
    <path clip-path="url(#pba4c022872)" d="M 104.913519 126 
L 108.256346 126 
L 108.256346 126 
L 104.913519 126 
z
" style="fill:#37738f;opacity:0.8;"/>
   </g>
   <g id="patch_30">
    <path clip-path="url(#pba4c022872)" d="M 108.256346 126 
L 111.599174 126 
L 111.599174 126 
L 108.256346 126 
z
" style="fill:#37738f;opacity:0.8;"/>
   </g>
   <g id="patch_31">
    <path clip-path="url(#pba4c022872)" d="M 111.599174 126 
L 114.942002 126 
L 114.942002 126 
L 111.599174 126 
z
" style="fill:#37738f;opacity:0.8;"/>
   </g>
   <g id="patch_32">
    <path clip-path="url(#pba4c022872)" d="M 114.942002 126 
L 118.284829 126 
L 118.284829 126 
L 114.942002 126 
z
" style="fill:#37738f;opacity:0.8;"/>
   </g>
   <g id="patch_33">
    <path clip-path="url(#pba4c022872)" d="M 118.284829 126 
L 121.627657 126 
L 121.627657 126 
L 118.284829 126 
z
" style="fill:#37738f;opacity:0.8;"/>
   </g>
   <g id="patch_34">
    <path clip-path="url(#pba4c022872)" d="M 121.627657 126 
L 124.970484 126 
L 124.970484 126 
L 121.627657 126 
z
" style="fill:#37738f;opacity:0.8;"/>
   </g>
   <g id="patch_35">
    <path clip-path="url(#pba4c022872)" d="M 124.970484 126 
L 128.313312 126 
L 128.313312 126 
L 124.970484 126 
z
" style="fill:#37738f;opacity:0.8;"/>
   </g>
   <g id="patch_36">
    <path clip-path="url(#pba4c022872)" d="M 128.313312 126 
L 131.65614 126 
L 131.65614 126 
L 128.313312 126 
z
" style="fill:#37738f;opacity:0.8;"/>
   </g>
   <g id="patch_37">
    <path clip-path="url(#pba4c022872)" d="M 131.65614 126 
L 134.998967 126 
L 134.998967 126 
L 131.65614 126 
z
" style="fill:#37738f;opacity:0.8;"/>
   </g>
   <g id="patch_38">
    <path clip-path="url(#pba4c022872)" d="M 134.998967 126 
L 138.341795 126 
L 138.341795 126 
L 134.998967 126 
z
" style="fill:#37738f;opacity:0.8;"/>
   </g>
   <g id="patch_39">
    <path clip-path="url(#pba4c022872)" d="M 138.341795 126 
L 141.684623 126 
L 141.684623 126 
L 138.341795 126 
z
" style="fill:#37738f;opacity:0.8;"/>
   </g>
   <g id="patch_40">
    <path clip-path="url(#pba4c022872)" d="M 141.684623 126 
L 145.02745 126 
L 145.02745 126 
L 141.684623 126 
z
" style="fill:#37738f;opacity:0.8;"/>
   </g>
   <g id="patch_41">
    <path clip-path="url(#pba4c022872)" d="M 145.02745 126 
L 148.370278 126 
L 148.370278 126 
L 145.02745 126 
z
" style="fill:#37738f;opacity:0.8;"/>
   </g>
   <g id="patch_42">
    <path clip-path="url(#pba4c022872)" d="M 148.370278 126 
L 151.713106 126 
L 151.713106 126 
L 148.370278 126 
z
" style="fill:#37738f;opacity:0.8;"/>
   </g>
   <g id="patch_43">
    <path clip-path="url(#pba4c022872)" d="M 151.713106 126 
L 155.055933 126 
L 155.055933 126 
L 151.713106 126 
z
" style="fill:#37738f;opacity:0.8;"/>
   </g>
   <g id="patch_44">
    <path clip-path="url(#pba4c022872)" d="M 155.055933 126 
L 158.398761 126 
L 158.398761 126 
L 155.055933 126 
z
" style="fill:#37738f;opacity:0.8;"/>
   </g>
   <g id="patch_45">
    <path clip-path="url(#pba4c022872)" d="M 158.398761 126 
L 161.741589 126 
L 161.741589 126 
L 158.398761 126 
z
" style="fill:#37738f;opacity:0.8;"/>
   </g>
   <g id="patch_46">
    <path clip-path="url(#pba4c022872)" d="M 161.741589 126 
L 165.084416 126 
L 165.084416 126 
L 161.741589 126 
z
" style="fill:#37738f;opacity:0.8;"/>
   </g>
   <g id="patch_47">
    <path clip-path="url(#pba4c022872)" d="M 165.084416 126 
L 168.427244 126 
L 168.427244 126 
L 165.084416 126 
z
" style="fill:#37738f;opacity:0.8;"/>
   </g>
   <g id="patch_48">
    <path clip-path="url(#pba4c022872)" d="M 168.427244 126 
L 171.770071 126 
L 171.770071 126 
L 168.427244 126 
z
" style="fill:#37738f;opacity:0.8;"/>
   </g>
   <g id="patch_49">
    <path clip-path="url(#pba4c022872)" d="M 171.770071 126 
L 175.112899 126 
L 175.112899 126 
L 171.770071 126 
z
" style="fill:#37738f;opacity:0.8;"/>
   </g>
   <g id="patch_50">
    <path clip-path="url(#pba4c022872)" d="M 175.112899 126 
L 178.455727 126 
L 178.455727 126 
L 175.112899 126 
z
" style="fill:#37738f;opacity:0.8;"/>
   </g>
   <g id="patch_51">
    <path clip-path="url(#pba4c022872)" d="M 178.455727 126 
L 181.798554 126 
L 181.798554 126 
L 178.455727 126 
z
" style="fill:#37738f;opacity:0.8;"/>
   </g>
   <g id="patch_52">
    <path clip-path="url(#pba4c022872)" d="M 181.798554 126 
L 185.141382 126 
L 185.141382 126 
L 181.798554 126 
z
" style="fill:#37738f;opacity:0.8;"/>
   </g>
   <g id="patch_53">
    <path clip-path="url(#pba4c022872)" d="M 185.141382 126 
L 188.48421 126 
L 188.48421 126 
L 185.141382 126 
z
" style="fill:#37738f;opacity:0.8;"/>
   </g>
   <g id="patch_54">
    <path clip-path="url(#pba4c022872)" d="M 188.48421 126 
L 191.827037 126 
L 191.827037 126 
L 188.48421 126 
z
" style="fill:#37738f;opacity:0.8;"/>
   </g>
   <g id="patch_55">
    <path clip-path="url(#pba4c022872)" d="M 191.827037 126 
L 195.169865 126 
L 195.169865 126 
L 191.827037 126 
z
" style="fill:#37738f;opacity:0.8;"/>
   </g>
   <g id="patch_56">
    <path clip-path="url(#pba4c022872)" d="M 195.169865 126 
L 198.512693 126 
L 198.512693 126 
L 195.169865 126 
z
" style="fill:#37738f;opacity:0.8;"/>
   </g>
   <g id="patch_57">
    <path clip-path="url(#pba4c022872)" d="M 198.512693 126 
L 201.85552 126 
L 201.85552 126 
L 198.512693 126 
z
" style="fill:#37738f;opacity:0.8;"/>
   </g>
   <g id="patch_58">
    <path clip-path="url(#pba4c022872)" d="M 201.85552 126 
L 205.198348 126 
L 205.198348 126 
L 201.85552 126 
z
" style="fill:#37738f;opacity:0.8;"/>
   </g>
   <g id="patch_59">
    <path clip-path="url(#pba4c022872)" d="M 205.198348 126 
L 208.541175 126 
L 208.541175 126 
L 205.198348 126 
z
" style="fill:#37738f;opacity:0.8;"/>
   </g>
   <g id="patch_60">
    <path clip-path="url(#pba4c022872)" d="M 208.541175 126 
L 211.884003 126 
L 211.884003 126 
L 208.541175 126 
z
" style="fill:#37738f;opacity:0.8;"/>
   </g>
   <g id="patch_61">
    <path clip-path="url(#pba4c022872)" d="M 211.884003 126 
L 215.226831 126 
L 215.226831 126 
L 211.884003 126 
z
" style="fill:#37738f;opacity:0.8;"/>
   </g>
   <g id="patch_62">
    <path clip-path="url(#pba4c022872)" d="M 215.226831 126 
L 218.569658 126 
L 218.569658 126 
L 215.226831 126 
z
" style="fill:#37738f;opacity:0.8;"/>
   </g>
   <g id="patch_63">
    <path clip-path="url(#pba4c022872)" d="M 218.569658 126 
L 221.912486 126 
L 221.912486 126 
L 218.569658 126 
z
" style="fill:#37738f;opacity:0.8;"/>
   </g>
   <g id="patch_64">
    <path clip-path="url(#pba4c022872)" d="M 221.912486 126 
L 225.255314 126 
L 225.255314 126 
L 221.912486 126 
z
" style="fill:#37738f;opacity:0.8;"/>
   </g>
   <g id="patch_65">
    <path clip-path="url(#pba4c022872)" d="M 225.255314 126 
L 228.598141 126 
L 228.598141 126 
L 225.255314 126 
z
" style="fill:#37738f;opacity:0.8;"/>
   </g>
   <g id="patch_66">
    <path clip-path="url(#pba4c022872)" d="M 228.598141 126 
L 231.940969 126 
L 231.940969 126 
L 228.598141 126 
z
" style="fill:#37738f;opacity:0.8;"/>
   </g>
   <g id="patch_67">
    <path clip-path="url(#pba4c022872)" d="M 231.940969 126 
L 235.283797 126 
L 235.283797 126 
L 231.940969 126 
z
" style="fill:#37738f;opacity:0.8;"/>
   </g>
   <g id="patch_68">
    <path clip-path="url(#pba4c022872)" d="M 235.283797 126 
L 238.626624 126 
L 238.626624 126 
L 235.283797 126 
z
" style="fill:#37738f;opacity:0.8;"/>
   </g>
   <g id="patch_69">
    <path clip-path="url(#pba4c022872)" d="M 238.626624 126 
L 241.969452 126 
L 241.969452 126 
L 238.626624 126 
z
" style="fill:#37738f;opacity:0.8;"/>
   </g>
   <g id="patch_70">
    <path clip-path="url(#pba4c022872)" d="M 241.969452 126 
L 245.31228 126 
L 245.31228 126 
L 241.969452 126 
z
" style="fill:#37738f;opacity:0.8;"/>
   </g>
   <g id="patch_71">
    <path clip-path="url(#pba4c022872)" d="M 245.31228 126 
L 248.655107 126 
L 248.655107 126 
L 245.31228 126 
z
" style="fill:#37738f;opacity:0.8;"/>
   </g>
   <g id="patch_72">
    <path clip-path="url(#pba4c022872)" d="M 248.655107 126 
L 251.997935 126 
L 251.997935 126 
L 248.655107 126 
z
" style="fill:#37738f;opacity:0.8;"/>
   </g>
   <g id="patch_73">
    <path clip-path="url(#pba4c022872)" d="M 251.997935 126 
L 255.340762 126 
L 255.340762 126 
L 251.997935 126 
z
" style="fill:#37738f;opacity:0.8;"/>
   </g>
   <g id="patch_74">
    <path clip-path="url(#pba4c022872)" d="M 255.340762 126 
L 258.68359 126 
L 258.68359 126 
L 255.340762 126 
z
" style="fill:#37738f;opacity:0.8;"/>
   </g>
   <g id="patch_75">
    <path clip-path="url(#pba4c022872)" d="M 258.68359 126 
L 262.026418 126 
L 262.026418 126 
L 258.68359 126 
z
" style="fill:#37738f;opacity:0.8;"/>
   </g>
   <g id="patch_76">
    <path clip-path="url(#pba4c022872)" d="M 262.026418 126 
L 265.369245 126 
L 265.369245 126 
L 262.026418 126 
z
" style="fill:#37738f;opacity:0.8;"/>
   </g>
   <g id="patch_77">
    <path clip-path="url(#pba4c022872)" d="M 265.369245 126 
L 268.712073 126 
L 268.712073 126 
L 265.369245 126 
z
" style="fill:#37738f;opacity:0.8;"/>
   </g>
   <g id="patch_78">
    <path clip-path="url(#pba4c022872)" d="M 268.712073 126 
L 272.054901 126 
L 272.054901 126 
L 268.712073 126 
z
" style="fill:#37738f;opacity:0.8;"/>
   </g>
   <g id="patch_79">
    <path clip-path="url(#pba4c022872)" d="M 272.054901 126 
L 275.397728 126 
L 275.397728 126 
L 272.054901 126 
z
" style="fill:#37738f;opacity:0.8;"/>
   </g>
   <g id="patch_80">
    <path clip-path="url(#pba4c022872)" d="M 275.397728 126 
L 278.740556 126 
L 278.740556 126 
L 275.397728 126 
z
" style="fill:#37738f;opacity:0.8;"/>
   </g>
   <g id="patch_81">
    <path clip-path="url(#pba4c022872)" d="M 278.740556 126 
L 282.083384 126 
L 282.083384 126 
L 278.740556 126 
z
" style="fill:#37738f;opacity:0.8;"/>
   </g>
   <g id="patch_82">
    <path clip-path="url(#pba4c022872)" d="M 282.083384 126 
L 285.426211 126 
L 285.426211 126 
L 282.083384 126 
z
" style="fill:#37738f;opacity:0.8;"/>
   </g>
   <g id="patch_83">
    <path clip-path="url(#pba4c022872)" d="M 285.426211 126 
L 288.769039 126 
L 288.769039 126 
L 285.426211 126 
z
" style="fill:#37738f;opacity:0.8;"/>
   </g>
   <g id="patch_84">
    <path clip-path="url(#pba4c022872)" d="M 288.769039 126 
L 292.111866 126 
L 292.111866 126 
L 288.769039 126 
z
" style="fill:#37738f;opacity:0.8;"/>
   </g>
   <g id="patch_85">
    <path clip-path="url(#pba4c022872)" d="M 292.111866 126 
L 295.454694 126 
L 295.454694 126 
L 292.111866 126 
z
" style="fill:#37738f;opacity:0.8;"/>
   </g>
   <g id="patch_86">
    <path clip-path="url(#pba4c022872)" d="M 295.454694 126 
L 298.797522 126 
L 298.797522 126 
L 295.454694 126 
z
" style="fill:#37738f;opacity:0.8;"/>
   </g>
   <g id="patch_87">
    <path clip-path="url(#pba4c022872)" d="M 298.797522 126 
L 302.140349 126 
L 302.140349 126 
L 298.797522 126 
z
" style="fill:#37738f;opacity:0.8;"/>
   </g>
   <g id="patch_88">
    <path clip-path="url(#pba4c022872)" d="M 302.140349 126 
L 305.483177 126 
L 305.483177 126 
L 302.140349 126 
z
" style="fill:#37738f;opacity:0.8;"/>
   </g>
   <g id="patch_89">
    <path clip-path="url(#pba4c022872)" d="M 305.483177 126 
L 308.826005 126 
L 308.826005 126 
L 305.483177 126 
z
" style="fill:#37738f;opacity:0.8;"/>
   </g>
   <g id="patch_90">
    <path clip-path="url(#pba4c022872)" d="M 308.826005 126 
L 312.168832 126 
L 312.168832 126 
L 308.826005 126 
z
" style="fill:#37738f;opacity:0.8;"/>
   </g>
   <g id="patch_91">
    <path clip-path="url(#pba4c022872)" d="M 312.168832 126 
L 315.51166 126 
L 315.51166 126 
L 312.168832 126 
z
" style="fill:#37738f;opacity:0.8;"/>
   </g>
   <g id="patch_92">
    <path clip-path="url(#pba4c022872)" d="M 315.51166 126 
L 318.854488 126 
L 318.854488 126 
L 315.51166 126 
z
" style="fill:#37738f;opacity:0.8;"/>
   </g>
   <g id="patch_93">
    <path clip-path="url(#pba4c022872)" d="M 318.854488 126 
L 322.197315 126 
L 322.197315 126 
L 318.854488 126 
z
" style="fill:#37738f;opacity:0.8;"/>
   </g>
   <g id="patch_94">
    <path clip-path="url(#pba4c022872)" d="M 322.197315 126 
L 325.540143 126 
L 325.540143 126 
L 322.197315 126 
z
" style="fill:#37738f;opacity:0.8;"/>
   </g>
   <g id="patch_95">
    <path clip-path="url(#pba4c022872)" d="M 325.540143 126 
L 328.88297 126 
L 328.88297 126 
L 325.540143 126 
z
" style="fill:#37738f;opacity:0.8;"/>
   </g>
   <g id="patch_96">
    <path clip-path="url(#pba4c022872)" d="M 328.88297 126 
L 332.225798 126 
L 332.225798 126 
L 328.88297 126 
z
" style="fill:#37738f;opacity:0.8;"/>
   </g>
   <g id="patch_97">
    <path clip-path="url(#pba4c022872)" d="M 332.225798 126 
L 335.568626 126 
L 335.568626 126 
L 332.225798 126 
z
" style="fill:#37738f;opacity:0.8;"/>
   </g>
   <g id="patch_98">
    <path clip-path="url(#pba4c022872)" d="M 335.568626 126 
L 338.911453 126 
L 338.911453 126 
L 335.568626 126 
z
" style="fill:#37738f;opacity:0.8;"/>
   </g>
   <g id="patch_99">
    <path clip-path="url(#pba4c022872)" d="M 338.911453 126 
L 342.254281 126 
L 342.254281 126 
L 338.911453 126 
z
" style="fill:#37738f;opacity:0.8;"/>
   </g>
   <g id="patch_100">
    <path clip-path="url(#pba4c022872)" d="M 342.254281 126 
L 345.597109 126 
L 345.597109 126 
L 342.254281 126 
z
" style="fill:#37738f;opacity:0.8;"/>
   </g>
   <g id="patch_101">
    <path clip-path="url(#pba4c022872)" d="M 345.597109 126 
L 348.939936 126 
L 348.939936 126 
L 345.597109 126 
z
" style="fill:#37738f;opacity:0.8;"/>
   </g>
   <g id="matplotlib.axis_1">
    <g id="xtick_1">
     <g id="line2d_1">
      <defs>
       <path d="M 0 0 
L 0 3.5 
" id="m3d034401f0" style="stroke:#4c4c4c;stroke-width:2;"/>
      </defs>
      <g>
       <use style="fill:#4c4c4c;stroke:#4c4c4c;stroke-width:2;" x="18" xlink:href="#m3d034401f0" y="126"/>
      </g>
     </g>
     <g id="text_1">
      <!-- 0.0 -->
      <g style="fill:#4c4c4c;" transform="translate(12.44 137.2425)scale(0.08 -0.08)">
       <defs>
        <path d="M 1778 -122 
Q 1041 -122 639 478 
Q 238 1078 238 2188 
Q 238 3297 639 3898 
Q 1041 4500 1778 4500 
Q 2522 4500 2922 3898 
Q 3322 3297 3322 2188 
Q 3322 1078 2922 478 
Q 2522 -122 1778 -122 
L 1778 -122 
z
M 1778 384 
Q 2253 384 2490 834 
Q 2728 1284 2725 2188 
Q 2728 3091 2490 3542 
Q 2253 3994 1778 3994 
Q 1306 3994 1072 3542 
Q 838 3091 834 2188 
Q 838 1284 1072 834 
Q 1306 384 1778 384 
L 1778 384 
z
" id="Helvetica-30" transform="scale(0.015625)"/>
        <path d="M 556 678 
L 1225 678 
L 1225 0 
L 556 0 
L 556 678 
z
" id="Helvetica-2e" transform="scale(0.015625)"/>
       </defs>
       <use xlink:href="#Helvetica-30"/>
       <use x="55.615234" xlink:href="#Helvetica-2e"/>
       <use x="83.398438" xlink:href="#Helvetica-30"/>
      </g>
     </g>
    </g>
    <g id="xtick_2">
     <g id="line2d_2">
      <g>
       <use style="fill:#4c4c4c;stroke:#4c4c4c;stroke-width:2;" x="73.156656" xlink:href="#m3d034401f0" y="126"/>
      </g>
     </g>
     <g id="text_2">
      <!-- 0.2 -->
      <g style="fill:#4c4c4c;" transform="translate(67.596656 137.2425)scale(0.08 -0.08)">
       <defs>
        <path d="M 3247 3175 
Q 3247 2678 2992 2358 
Q 2738 2038 2034 1650 
Q 1272 1231 994 884 
Q 878 734 803 547 
L 803 547 
L 3247 547 
L 3247 0 
L 166 0 
L 166 0 
Q 166 709 519 1161 
Q 872 1613 1844 2147 
Q 2316 2409 2487 2628 
Q 2659 2847 2659 3191 
Q 2659 3550 2403 3778 
Q 2147 4006 1747 4006 
Q 1328 4006 1089 3720 
Q 850 3434 834 2909 
L 834 2909 
L 288 2909 
L 288 2909 
Q 275 3653 684 4076 
Q 1094 4500 1825 4500 
Q 2450 4500 2850 4128 
Q 3247 3759 3247 3175 
z
" id="Helvetica-32" transform="scale(0.015625)"/>
       </defs>
       <use xlink:href="#Helvetica-30"/>
       <use x="55.615234" xlink:href="#Helvetica-2e"/>
       <use x="83.398438" xlink:href="#Helvetica-32"/>
      </g>
     </g>
    </g>
    <g id="xtick_3">
     <g id="line2d_3">
      <g>
       <use style="fill:#4c4c4c;stroke:#4c4c4c;stroke-width:2;" x="128.313312" xlink:href="#m3d034401f0" y="126"/>
      </g>
     </g>
     <g id="text_3">
      <!-- 0.4 -->
      <g style="fill:#4c4c4c;" transform="translate(122.753312 137.2425)scale(0.08 -0.08)">
       <defs>
        <path d="M 2144 1078 
L 159 1078 
L 159 1341 
L 159 1603 
L 2241 4497 
L 2475 4497 
L 2709 4497 
L 2709 1559 
L 2709 1559 
L 3347 1559 
L 3347 1078 
L 2709 1078 
L 2709 1078 
L 2709 0 
L 2144 0 
L 2144 1078 
L 2144 1078 
z
M 2144 1559 
L 2144 1559 
L 2144 3613 
L 2144 3613 
L 2144 3613 
L 709 1603 
L 678 1559 
L 678 1559 
L 2144 1559 
z
" id="Helvetica-34" transform="scale(0.015625)"/>
       </defs>
       <use xlink:href="#Helvetica-30"/>
       <use x="55.615234" xlink:href="#Helvetica-2e"/>
       <use x="83.398438" xlink:href="#Helvetica-34"/>
      </g>
     </g>
    </g>
    <g id="text_4">
     <!-- Speed  / $ms^{-1}$ -->
     <g transform="translate(47.36 149.095)scale(0.08 -0.08)">
      <defs>
       <path d="M 3288 3263 
L 3288 3263 
Q 3247 3697 2945 3933 
Q 2644 4169 2134 4169 
Q 1609 4169 1337 3966 
Q 1066 3763 1066 3372 
Q 1066 3106 1247 2975 
Q 1428 2844 1975 2716 
L 2775 2525 
Q 3419 2372 3694 2072 
Q 3969 1775 3969 1231 
Q 3969 606 3495 240 
Q 3022 -125 2213 -125 
Q 1313 -125 806 297 
Q 313 713 313 1434 
L 313 1469 
L 313 1469 
L 884 1469 
L 884 1469 
Q 900 969 1247 697 
Q 1594 425 2213 425 
Q 2784 425 3081 622 
Q 3378 819 3378 1200 
Q 3378 1531 3181 1691 
Q 2988 1847 2400 1988 
L 1600 2178 
Q 994 2322 734 2578 
Q 475 2834 475 3288 
Q 475 3947 923 4333 
Q 1372 4719 2134 4719 
Q 2909 4719 3368 4331 
Q 3828 3944 3859 3263 
L 3859 3263 
L 3288 3263 
z
" id="Helvetica-53" transform="scale(0.015625)"/>
       <path d="M 372 3344 
L 372 3344 
L 638 3344 
L 906 3344 
L 906 3344 
L 906 2869 
L 906 2869 
L 934 2909 
Q 1297 3444 1888 3444 
Q 2544 3444 2926 2992 
Q 3309 2541 3309 1772 
Q 3309 900 2923 404 
Q 2538 -91 1853 -91 
Q 1288 -91 953 344 
L 934 369 
L 934 369 
L 934 -1322 
L 934 -1322 
L 653 -1322 
L 372 -1322 
L 372 -1322 
L 372 3344 
z
M 1825 397 
Q 2266 397 2494 730 
Q 2722 1063 2722 1700 
Q 2722 2328 2503 2629 
Q 2284 2931 1828 2931 
Q 1363 2931 1148 2590 
Q 934 2250 934 1513 
L 934 1513 
L 934 1513 
L 934 1513 
Q 934 978 1165 687 
Q 1397 397 1825 397 
z
" id="Helvetica-70" transform="scale(0.015625)"/>
       <path d="M 1778 -91 
Q 1069 -91 662 359 
Q 256 809 256 1603 
Q 256 2447 686 2945 
Q 1116 3444 1841 3444 
Q 2497 3444 2900 2956 
Q 3303 2469 3303 1675 
L 3297 1475 
L 3297 1475 
L 853 1475 
L 853 1475 
Q 888 975 1081 713 
Q 1319 394 1831 394 
Q 2153 394 2393 575 
Q 2634 756 2688 1038 
L 2688 1038 
L 3244 1038 
L 3244 1038 
Q 3119 488 2744 198 
Q 2369 -91 1778 -91 
z
M 2716 1928 
L 2716 1928 
Q 2691 2394 2484 2653 
Q 2256 2941 1816 2941 
Q 1372 2941 1106 2609 
Q 897 2350 853 1928 
L 853 1928 
L 2716 1928 
z
" id="Helvetica-65" transform="scale(0.015625)"/>
       <path d="M 1691 -91 
Q 1019 -91 622 411 
Q 225 913 225 1766 
Q 225 2519 609 2981 
Q 994 3444 1613 3444 
Q 2228 3444 2588 2922 
L 2631 2859 
L 2631 2859 
L 2631 4594 
L 2631 4594 
L 2913 4594 
L 3194 4594 
L 3194 4594 
L 3194 0 
L 3194 0 
L 2934 0 
L 2672 0 
L 2672 0 
L 2672 456 
L 2672 456 
L 2600 353 
Q 2253 -91 1691 -91 
z
M 1722 2938 
Q 1250 2938 1031 2636 
Q 813 2334 813 1678 
Q 813 1059 1048 725 
Q 1284 391 1722 391 
Q 2131 391 2381 698 
Q 2631 1006 2631 1513 
Q 2631 2197 2395 2567 
Q 2159 2938 1722 2938 
z
" id="Helvetica-64" transform="scale(0.015625)"/>
       <path id="Helvetica-20" transform="scale(0.015625)"/>
       <path d="M 1884 4713 
L 322 -125 
L -106 -125 
L 1456 4713 
L 1884 4713 
z
" id="Helvetica-2f" transform="scale(0.015625)"/>
       <path d="M 5747 2113 
L 5338 0 
L 4763 0 
L 5166 2094 
Q 5191 2228 5203 2325 
Q 5216 2422 5216 2491 
Q 5216 2772 5059 2928 
Q 4903 3084 4622 3084 
Q 4203 3084 3875 2770 
Q 3547 2456 3450 1953 
L 3066 0 
L 2491 0 
L 2900 2094 
Q 2925 2209 2937 2307 
Q 2950 2406 2950 2484 
Q 2950 2769 2794 2926 
Q 2638 3084 2363 3084 
Q 1938 3084 1609 2770 
Q 1281 2456 1184 1953 
L 800 0 
L 225 0 
L 909 3500 
L 1484 3500 
L 1375 2956 
Q 1609 3263 1923 3423 
Q 2238 3584 2597 3584 
Q 2978 3584 3223 3384 
Q 3469 3184 3519 2828 
Q 3781 3197 4126 3390 
Q 4472 3584 4856 3584 
Q 5306 3584 5551 3325 
Q 5797 3066 5797 2591 
Q 5797 2488 5784 2364 
Q 5772 2241 5747 2113 
z
" id="DejaVuSans-Oblique-6d" transform="scale(0.015625)"/>
       <path d="M 3200 3397 
L 3091 2853 
Q 2863 2978 2609 3040 
Q 2356 3103 2088 3103 
Q 1634 3103 1373 2948 
Q 1113 2794 1113 2528 
Q 1113 2219 1719 2053 
Q 1766 2041 1788 2034 
L 1972 1978 
Q 2547 1819 2739 1644 
Q 2931 1469 2931 1166 
Q 2931 609 2489 259 
Q 2047 -91 1331 -91 
Q 1053 -91 747 -37 
Q 441 16 72 128 
L 184 722 
Q 500 559 806 475 
Q 1113 391 1394 391 
Q 1816 391 2080 572 
Q 2344 753 2344 1031 
Q 2344 1331 1650 1516 
L 1591 1531 
L 1394 1581 
Q 956 1697 753 1886 
Q 550 2075 550 2369 
Q 550 2928 970 3256 
Q 1391 3584 2113 3584 
Q 2397 3584 2667 3537 
Q 2938 3491 3200 3397 
z
" id="DejaVuSans-Oblique-73" transform="scale(0.015625)"/>
       <path d="M 678 2272 
L 4684 2272 
L 4684 1741 
L 678 1741 
L 678 2272 
z
" id="DejaVuSans-2212" transform="scale(0.015625)"/>
       <path d="M 794 531 
L 1825 531 
L 1825 4091 
L 703 3866 
L 703 4441 
L 1819 4666 
L 2450 4666 
L 2450 531 
L 3481 531 
L 3481 0 
L 794 0 
L 794 531 
z
" id="DejaVuSans-31" transform="scale(0.015625)"/>
      </defs>
      <use transform="translate(0 0.684375)" xlink:href="#Helvetica-53"/>
      <use transform="translate(66.699219 0.684375)" xlink:href="#Helvetica-70"/>
      <use transform="translate(122.314453 0.684375)" xlink:href="#Helvetica-65"/>
      <use transform="translate(177.929688 0.684375)" xlink:href="#Helvetica-65"/>
      <use transform="translate(233.544922 0.684375)" xlink:href="#Helvetica-64"/>
      <use transform="translate(289.160156 0.684375)" xlink:href="#Helvetica-20"/>
      <use transform="translate(316.943359 0.684375)" xlink:href="#Helvetica-20"/>
      <use transform="translate(344.726562 0.684375)" xlink:href="#Helvetica-2f"/>
      <use transform="translate(372.509766 0.684375)" xlink:href="#Helvetica-20"/>
      <use transform="translate(400.292969 0.684375)" xlink:href="#DejaVuSans-Oblique-6d"/>
      <use transform="translate(497.705078 0.684375)" xlink:href="#DejaVuSans-Oblique-73"/>
      <use transform="translate(554.454583 38.965625)scale(0.7)" xlink:href="#DejaVuSans-2212"/>
      <use transform="translate(613.106927 38.965625)scale(0.7)" xlink:href="#DejaVuSans-31"/>
     </g>
    </g>
   </g>
   <g id="matplotlib.axis_2"/>
   <g id="patch_102">
    <path d="M 18 126 
L 18 17.28 
" style="fill:none;"/>
   </g>
   <g id="patch_103">
    <path d="M 129.6 126 
L 129.6 17.28 
" style="fill:none;"/>
   </g>
   <g id="patch_104">
    <path d="M 18 126 
L 129.6 126 
" style="fill:none;stroke:#4c4c4c;stroke-linecap:square;stroke-linejoin:miter;stroke-width:2;"/>
   </g>
   <g id="patch_105">
    <path d="M 18 17.28 
L 129.6 17.28 
" style="fill:none;"/>
   </g>
  </g>
 </g>
 <defs>
  <clipPath id="pba4c022872">
   <rect height="108.72" width="111.6" x="18" y="17.28"/>
  </clipPath>
 </defs>
</svg>
