<?xml version="1.0" encoding="utf-8" standalone="no"?>
<!DOCTYPE svg PUBLIC "-//W3C//DTD SVG 1.1//EN"
  "http://www.w3.org/Graphics/SVG/1.1/DTD/svg11.dtd">
<svg height="15.84pt" version="1.1" viewBox="0 0 216 15.84" width="216pt" xmlns="http://www.w3.org/2000/svg" xmlns:xlink="http://www.w3.org/1999/xlink">
 <metadata>
  <rdf:RDF xmlns:cc="http://creativecommons.org/ns#" xmlns:dc="http://purl.org/dc/elements/1.1/" xmlns:rdf="http://www.w3.org/1999/02/22-rdf-syntax-ns#">
   <cc:Work>
    <dc:type rdf:resource="http://purl.org/dc/dcmitype/StillImage"/>
    <dc:date>2022-07-07T02:50:32.874166</dc:date>
    <dc:format>image/svg+xml</dc:format>
    <dc:creator>
     <cc:Agent>
      <dc:title>Matplotlib v3.4.3, https://matplotlib.org/</dc:title>
     </cc:Agent>
    </dc:creator>
   </cc:Work>
  </rdf:RDF>
 </metadata>
 <defs>
  <style type="text/css">*{stroke-linecap:butt;stroke-linejoin:round;}</style>
 </defs>
 <g id="figure_1">
  <g id="patch_1">
   <path d="M 0 15.84 
L 216 15.84 
L 216 0 
L 0 0 
z
" style="fill:none;"/>
  </g>
  <g id="axes_1">
   <g id="patch_2">
    <path d="M 27 13.86 
L 194.4 13.86 
L 194.4 1.9008 
L 27 1.9008 
z
" style="fill:none;"/>
   </g>
   <g id="PolyCollection_1">
    <path clip-path="url(#pd3f546c2f5)" d="M 27.837 11.598343 
L 27.837 13.86 
L 29.511 13.86 
L 31.185 13.86 
L 32.859 13.86 
L 34.533 13.86 
L 36.207 13.86 
L 37.881 13.86 
L 39.555 13.86 
L 41.229 13.86 
L 42.903 13.86 
L 44.577 13.86 
L 46.251 13.86 
L 47.925 13.86 
L 49.599 13.86 
L 51.273 13.86 
L 52.947 13.86 
L 54.621 13.86 
L 56.295 13.86 
L 57.969 13.86 
L 59.643 13.86 
L 61.317 13.86 
L 62.991 13.86 
L 64.665 13.86 
L 66.339 13.86 
L 68.013 13.86 
L 69.687 13.86 
L 71.361 13.86 
L 73.035 13.86 
L 74.709 13.86 
L 76.383 13.86 
L 78.057 13.86 
L 79.731 13.86 
L 81.405 13.86 
L 83.079 13.86 
L 84.753 13.86 
L 86.427 13.86 
L 88.101 13.86 
L 89.775 13.86 
L 91.449 13.86 
L 93.123 13.86 
L 94.797 13.86 
L 96.471 13.86 
L 98.145 13.86 
L 99.819 13.86 
L 101.493 13.86 
L 103.167 13.86 
L 104.841 13.86 
L 106.515 13.86 
L 108.189 13.86 
L 109.863 13.86 
L 111.537 13.86 
L 113.211 13.86 
L 114.885 13.86 
L 116.559 13.86 
L 118.233 13.86 
L 119.907 13.86 
L 121.581 13.86 
L 123.255 13.86 
L 124.929 13.86 
L 126.603 13.86 
L 128.277 13.86 
L 129.951 13.86 
L 131.625 13.86 
L 133.299 13.86 
L 134.973 13.86 
L 136.647 13.86 
L 138.321 13.86 
L 139.995 13.86 
L 141.669 13.86 
L 143.343 13.86 
L 145.017 13.86 
L 146.691 13.86 
L 148.365 13.86 
L 150.039 13.86 
L 151.713 13.86 
L 153.387 13.86 
L 155.061 13.86 
L 156.735 13.86 
L 158.409 13.86 
L 160.083 13.86 
L 161.757 13.86 
L 163.431 13.86 
L 165.105 13.86 
L 166.779 13.86 
L 168.453 13.86 
L 170.127 13.86 
L 171.801 13.86 
L 173.475 13.86 
L 175.149 13.86 
L 176.823 13.86 
L 178.497 13.86 
L 180.171 13.86 
L 181.845 13.86 
L 183.519 13.86 
L 185.193 13.86 
L 186.867 13.86 
L 188.541 13.86 
L 190.215 13.86 
L 191.889 13.86 
L 193.563 13.86 
L 193.563 10.108959 
L 193.563 10.108959 
L 191.889 8.564413 
L 190.215 6.891155 
L 188.541 7.902465 
L 186.867 7.258904 
L 185.193 6.909542 
L 183.519 7.847303 
L 181.845 5.622421 
L 180.171 6.431469 
L 178.497 6.302756 
L 176.823 7.608266 
L 175.149 6.688893 
L 173.475 7.350841 
L 171.801 6.891155 
L 170.127 6.008557 
L 168.453 4.923697 
L 166.779 3.894 
L 165.105 6.688893 
L 163.431 5.181122 
L 161.757 5.273059 
L 160.083 4.280137 
L 158.409 5.677583 
L 156.735 5.125959 
L 155.061 5.181122 
L 153.387 4.206587 
L 151.713 4.83176 
L 150.039 5.824683 
L 148.365 4.90531 
L 146.691 4.868535 
L 145.017 4.022712 
L 143.343 4.0411 
L 141.669 5.199509 
L 139.995 5.181122 
L 138.321 4.794985 
L 136.647 6.762443 
L 134.973 6.008557 
L 133.299 6.174044 
L 131.625 6.06372 
L 129.951 5.456934 
L 128.277 6.762443 
L 126.603 6.70728 
L 124.929 5.861458 
L 123.255 5.640808 
L 121.581 6.817605 
L 119.907 5.475321 
L 118.233 6.725668 
L 116.559 5.99017 
L 114.885 7.314066 
L 113.211 5.84307 
L 111.537 6.118882 
L 109.863 7.645041 
L 108.189 6.85438 
L 106.515 6.174044 
L 104.841 7.79214 
L 103.167 8.178277 
L 101.493 8.785063 
L 99.819 9.336686 
L 98.145 9.318299 
L 96.471 8.711513 
L 94.797 7.571491 
L 93.123 7.773753 
L 91.449 7.571491 
L 89.775 7.093417 
L 88.101 7.038255 
L 86.427 7.258904 
L 84.753 6.835993 
L 83.079 7.773753 
L 81.405 7.387616 
L 79.731 7.93924 
L 78.057 7.406004 
L 76.383 8.215052 
L 74.709 7.553103 
L 73.035 9.097649 
L 71.361 9.667661 
L 69.687 8.877 
L 68.013 8.454089 
L 66.339 9.189587 
L 64.665 7.86569 
L 62.991 7.902465 
L 61.317 7.424391 
L 59.643 7.626653 
L 57.969 7.608266 
L 56.295 8.619576 
L 54.621 8.104727 
L 52.947 8.215052 
L 51.273 7.461166 
L 49.599 8.141502 
L 47.925 10.531871 
L 46.251 9.851535 
L 44.577 9.833148 
L 42.903 9.630886 
L 41.229 9.88831 
L 39.555 9.171199 
L 37.881 9.557336 
L 36.207 8.932162 
L 34.533 9.263137 
L 32.859 9.851535 
L 31.185 9.777985 
L 29.511 9.483786 
L 27.837 11.598343 
z
" style="fill:#7b699a;fill-opacity:0.3;"/>
   </g>
   <g id="matplotlib.axis_1">
    <g id="xtick_1">
     <g id="line2d_1">
      <defs>
       <path d="M 0 0 
L 0 3.5 
" id="m7708d946ef" style="stroke:#4c4c4c;stroke-width:2;"/>
      </defs>
      <g>
       <use style="fill:#4c4c4c;stroke:#4c4c4c;stroke-width:2;" x="27" xlink:href="#m7708d946ef" y="13.86"/>
      </g>
     </g>
     <g id="text_1">
      <!-- 0 -->
      <g style="fill:#4c4c4c;" transform="translate(24.775625 25.1025)scale(0.08 -0.08)">
       <defs>
        <path d="M 1778 -122 
Q 1041 -122 639 478 
Q 238 1078 238 2188 
Q 238 3297 639 3898 
Q 1041 4500 1778 4500 
Q 2522 4500 2922 3898 
Q 3322 3297 3322 2188 
Q 3322 1078 2922 478 
Q 2522 -122 1778 -122 
L 1778 -122 
z
M 1778 384 
Q 2253 384 2490 834 
Q 2728 1284 2725 2188 
Q 2728 3091 2490 3542 
Q 2253 3994 1778 3994 
Q 1306 3994 1072 3542 
Q 838 3091 834 2188 
Q 838 1284 1072 834 
Q 1306 384 1778 384 
L 1778 384 
z
" id="Helvetica-30" transform="scale(0.015625)"/>
       </defs>
       <use xlink:href="#Helvetica-30"/>
      </g>
     </g>
    </g>
    <g id="xtick_2">
     <g id="line2d_2">
      <g>
       <use style="fill:#4c4c4c;stroke:#4c4c4c;stroke-width:2;" x="194.4" xlink:href="#m7708d946ef" y="13.86"/>
      </g>
     </g>
     <g id="text_2">
      <!-- 1 -->
      <g style="fill:#4c4c4c;" transform="translate(192.175625 25.1025)scale(0.08 -0.08)">
       <defs>
        <path d="M 1700 0 
L 1700 3194 
L 1700 3194 
L 647 3194 
L 647 3644 
Q 1113 3634 1403 3844 
Q 1697 4056 1838 4500 
L 2297 4500 
L 2297 4500 
L 2297 0 
L 2297 0 
L 2000 0 
L 1700 0 
L 1700 0 
z
" id="Helvetica-31" transform="scale(0.015625)"/>
       </defs>
       <use xlink:href="#Helvetica-31"/>
      </g>
     </g>
    </g>
    <g id="text_3">
     <!-- Position / m -->
     <g transform="translate(89.804375 35.4975)scale(0.08 -0.08)">
      <defs>
       <path d="M 550 0 
L 550 4594 
L 550 4594 
L 859 4594 
L 859 4594 
L 2559 4594 
Q 3228 4594 3604 4258 
Q 3981 3922 3981 3328 
Q 3981 2675 3604 2306 
Q 3228 1938 2559 1938 
Q 1681 1941 1172 1931 
L 1172 1931 
L 1172 0 
L 1172 0 
L 863 0 
L 550 0 
L 550 0 
z
M 1172 2469 
L 1172 2469 
L 2406 2469 
Q 2891 2469 3116 2673 
Q 3341 2878 3341 3316 
Q 3341 3703 3116 3883 
Q 2891 4063 2406 4063 
L 1172 4063 
L 1172 4063 
L 1172 2469 
z
" id="Helvetica-50" transform="scale(0.015625)"/>
       <path d="M 1778 -91 
Q 1084 -91 654 396 
Q 225 884 225 1675 
Q 225 2469 654 2956 
Q 1084 3444 1778 3444 
Q 2478 3444 2906 2956 
Q 3334 2469 3334 1675 
Q 3334 884 2906 396 
Q 2478 -91 1778 -91 
L 1778 -91 
z
M 1778 394 
Q 2222 394 2484 741 
Q 2747 1088 2747 1675 
Q 2747 2263 2484 2611 
Q 2222 2959 1778 2959 
Q 1334 2959 1073 2611 
Q 813 2263 813 1675 
Q 813 1088 1073 741 
Q 1334 394 1778 394 
L 1778 394 
z
" id="Helvetica-6f" transform="scale(0.015625)"/>
       <path d="M 2331 2375 
L 2331 2375 
Q 2306 2653 2104 2806 
Q 1903 2959 1563 2959 
Q 1213 2959 1030 2837 
Q 847 2716 847 2481 
Q 847 2303 975 2213 
Q 1103 2122 1484 2031 
L 2066 1894 
Q 2553 1775 2763 1566 
Q 2969 1359 2969 988 
Q 2969 491 2611 200 
Q 2253 -91 1644 -91 
Q 938 -91 591 189 
Q 244 469 206 1069 
L 206 1069 
L 747 1069 
L 747 1069 
Q 788 713 998 553 
Q 1209 394 1644 394 
Q 2022 394 2217 537 
Q 2413 681 2413 956 
Q 2413 1131 2284 1222 
Q 2156 1313 1769 1403 
L 1188 1541 
Q 716 1653 516 1856 
Q 316 2056 316 2419 
Q 316 2891 652 3167 
Q 988 3444 1563 3444 
Q 2147 3444 2492 3159 
Q 2838 2875 2859 2375 
L 2859 2375 
L 2331 2375 
z
" id="Helvetica-73" transform="scale(0.015625)"/>
       <path d="M 434 0 
L 434 3344 
L 434 3344 
L 716 3344 
L 997 3344 
L 997 3344 
L 997 0 
L 997 0 
L 716 0 
L 434 0 
L 434 0 
z
M 428 4594 
L 1003 4594 
L 1003 3956 
L 428 3956 
L 428 4594 
z
" id="Helvetica-69" transform="scale(0.015625)"/>
       <path d="M 1644 3 
Q 1356 -41 1225 -41 
Q 856 -41 704 121 
Q 553 284 553 681 
L 553 2884 
L 553 2884 
L 91 2884 
L 91 3344 
L 553 3344 
L 553 3344 
L 553 4281 
L 1116 4281 
L 1116 3344 
L 1116 3344 
L 1644 3344 
L 1644 2884 
L 1116 2884 
L 1116 2884 
L 1116 681 
Q 1116 569 1205 503 
Q 1294 438 1444 438 
L 1644 438 
L 1644 3 
z
" id="Helvetica-74" transform="scale(0.015625)"/>
       <path d="M 416 0 
L 416 3344 
L 416 3344 
L 681 3344 
L 950 3344 
L 950 3344 
L 950 2850 
L 950 2850 
L 950 2850 
L 1075 3016 
Q 1441 3444 1991 3444 
Q 2544 3444 2844 3144 
Q 3144 2844 3144 2291 
L 3144 0 
L 3144 0 
L 2863 0 
L 2581 0 
L 2581 0 
L 2581 2100 
Q 2581 2541 2411 2736 
Q 2241 2931 1859 2931 
Q 1453 2931 1215 2623 
Q 978 2316 978 1791 
L 978 1791 
L 978 0 
L 978 0 
L 697 0 
L 416 0 
L 416 0 
z
" id="Helvetica-6e" transform="scale(0.015625)"/>
       <path id="Helvetica-20" transform="scale(0.015625)"/>
       <path d="M 1884 4713 
L 322 -125 
L -106 -125 
L 1456 4713 
L 1884 4713 
z
" id="Helvetica-2f" transform="scale(0.015625)"/>
       <path d="M 416 0 
L 416 3344 
L 416 3344 
L 681 3344 
L 950 3344 
L 950 3344 
L 950 2847 
L 950 2847 
L 950 2847 
L 1066 2997 
Q 1444 3444 1969 3444 
Q 2419 3444 2684 3178 
Q 2803 3059 2869 2906 
L 2869 2906 
L 2959 3022 
Q 3322 3444 3825 3444 
Q 4350 3444 4636 3158 
Q 4922 2872 4922 2347 
L 4922 0 
L 4922 0 
L 4641 0 
L 4359 0 
L 4359 0 
L 4359 2156 
Q 4359 2538 4203 2734 
Q 4047 2931 3747 2931 
Q 3381 2931 3165 2647 
Q 2950 2363 2950 1878 
L 2950 1878 
L 2950 0 
L 2950 0 
L 2669 0 
L 2388 0 
L 2388 0 
L 2388 2291 
Q 2388 2603 2245 2767 
Q 2103 2931 1831 2931 
Q 1456 2931 1217 2612 
Q 978 2294 978 1791 
L 978 1791 
L 978 0 
L 978 0 
L 697 0 
L 416 0 
L 416 0 
z
" id="Helvetica-6d" transform="scale(0.015625)"/>
      </defs>
      <use xlink:href="#Helvetica-50"/>
      <use x="66.699219" xlink:href="#Helvetica-6f"/>
      <use x="122.314453" xlink:href="#Helvetica-73"/>
      <use x="172.314453" xlink:href="#Helvetica-69"/>
      <use x="194.53125" xlink:href="#Helvetica-74"/>
      <use x="222.314453" xlink:href="#Helvetica-69"/>
      <use x="244.53125" xlink:href="#Helvetica-6f"/>
      <use x="300.146484" xlink:href="#Helvetica-6e"/>
      <use x="355.761719" xlink:href="#Helvetica-20"/>
      <use x="383.544922" xlink:href="#Helvetica-2f"/>
      <use x="411.328125" xlink:href="#Helvetica-20"/>
      <use x="439.111328" xlink:href="#Helvetica-6d"/>
     </g>
    </g>
   </g>
   <g id="matplotlib.axis_2"/>
   <g id="line2d_3">
    <path clip-path="url(#pd3f546c2f5)" d="M 27.837 11.598343 
L 29.511 9.483786 
L 31.185 9.777985 
L 32.859 9.851535 
L 34.533 9.263137 
L 36.207 8.932162 
L 37.881 9.557336 
L 39.555 9.171199 
L 41.229 9.88831 
L 42.903 9.630886 
L 44.577 9.833148 
L 46.251 9.851535 
L 47.925 10.531871 
L 49.599 8.141502 
L 51.273 7.461166 
L 52.947 8.215052 
L 54.621 8.104727 
L 56.295 8.619576 
L 57.969 7.608266 
L 59.643 7.626653 
L 61.317 7.424391 
L 62.991 7.902465 
L 64.665 7.86569 
L 66.339 9.189587 
L 68.013 8.454089 
L 69.687 8.877 
L 71.361 9.667661 
L 73.035 9.097649 
L 74.709 7.553103 
L 76.383 8.215052 
L 78.057 7.406004 
L 79.731 7.93924 
L 81.405 7.387616 
L 83.079 7.773753 
L 84.753 6.835993 
L 86.427 7.258904 
L 88.101 7.038255 
L 89.775 7.093417 
L 91.449 7.571491 
L 93.123 7.773753 
L 94.797 7.571491 
L 96.471 8.711513 
L 98.145 9.318299 
L 99.819 9.336686 
L 101.493 8.785063 
L 103.167 8.178277 
L 104.841 7.79214 
L 106.515 6.174044 
L 108.189 6.85438 
L 109.863 7.645041 
L 111.537 6.118882 
L 113.211 5.84307 
L 114.885 7.314066 
L 116.559 5.99017 
L 118.233 6.725668 
L 119.907 5.475321 
L 121.581 6.817605 
L 123.255 5.640808 
L 124.929 5.861458 
L 126.603 6.70728 
L 128.277 6.762443 
L 129.951 5.456934 
L 131.625 6.06372 
L 133.299 6.174044 
L 134.973 6.008557 
L 136.647 6.762443 
L 138.321 4.794985 
L 139.995 5.181122 
L 141.669 5.199509 
L 143.343 4.0411 
L 145.017 4.022712 
L 146.691 4.868535 
L 148.365 4.90531 
L 150.039 5.824683 
L 151.713 4.83176 
L 153.387 4.206587 
L 155.061 5.181122 
L 156.735 5.125959 
L 158.409 5.677583 
L 160.083 4.280137 
L 161.757 5.273059 
L 163.431 5.181122 
L 165.105 6.688893 
L 166.779 3.894 
L 168.453 4.923697 
L 170.127 6.008557 
L 171.801 6.891155 
L 173.475 7.350841 
L 175.149 6.688893 
L 176.823 7.608266 
L 178.497 6.302756 
L 180.171 6.431469 
L 181.845 5.622421 
L 183.519 7.847303 
L 185.193 6.909542 
L 186.867 7.258904 
L 188.541 7.902465 
L 190.215 6.891155 
L 191.889 8.564413 
L 193.563 10.108959 
" style="fill:none;stroke:#7b699a;stroke-linecap:square;stroke-width:2;"/>
   </g>
   <g id="patch_3">
    <path d="M 27 13.86 
L 27 1.9008 
" style="fill:none;"/>
   </g>
   <g id="patch_4">
    <path d="M 194.4 13.86 
L 194.4 1.9008 
" style="fill:none;"/>
   </g>
   <g id="patch_5">
    <path d="M 27 13.86 
L 194.4 13.86 
" style="fill:none;stroke:#4c4c4c;stroke-linecap:square;stroke-linejoin:miter;stroke-width:2;"/>
   </g>
   <g id="patch_6">
    <path d="M 27 1.9008 
L 194.4 1.9008 
" style="fill:none;"/>
   </g>
  </g>
 </g>
 <defs>
  <clipPath id="pd3f546c2f5">
   <rect height="11.9592" width="167.4" x="27" y="1.9008"/>
  </clipPath>
 </defs>
</svg>
